<?xml version="1.0" encoding="iso-8859-1"?>
<!-- Generator: Adobe Illustrator 21.0.2, SVG Export Plug-In . SVG Version: 6.00 Build 0)  -->
<svg version="1.1" id="Am7_x2F_B5_1_" xmlns="http://www.w3.org/2000/svg" xmlns:xlink="http://www.w3.org/1999/xlink" x="0px"
	 y="0px" viewBox="0 0 533 700" style="enable-background:new 0 0 533 700;" xml:space="preserve">
<g id="Am7_x2F_B5">
	<g>
		<path style="fill-rule:evenodd;clip-rule:evenodd;" d="M440,357.575V349v-8V238v-8v-96v-15v-4.5H97v4.5v15v96v8v7.589
			c-21.376,2.506-37.965,20.681-37.965,42.743c0,22.063,16.589,40.238,37.965,42.744V341v8v105v8v103v8v101h10V573h101v101h10V573
			h101v101h10V573h101v101h10V573v-8V462v-8v-10.91c21.43-2.455,38.077-20.656,38.077-42.758
			C478.077,378.231,461.43,360.03,440,357.575z M208,565H107V462h101V565z M208,357.716c-20.891,2.947-36.965,20.899-36.965,42.616
			c0,21.718,16.074,39.67,36.965,42.616V454H107V349h101V357.716z M208,341H107v-9.91c21.43-2.455,38.077-20.656,38.077-42.758
			c0-22.101-16.647-40.302-38.077-42.758V238h101V341z M208,230H107v-96h101V230z M319,565H218V462h101V565z M319,357.589
			c-21.376,2.506-37.965,20.681-37.965,42.743c0,22.063,16.589,40.238,37.965,42.744V454H218v-10.806
			c21.91-1.994,39.077-20.417,39.077-42.862c0-22.444-17.167-40.868-39.077-42.862V349h101V357.589z M319,341H218V238h101V341z
			 M319,230H218v-96h101V230z M430,565H329V462h101V565z M430,357.589c-21.376,2.506-37.965,20.681-37.965,42.743
			c0,22.063,16.589,40.238,37.965,42.744V454H329v-10.91c21.43-2.455,38.077-20.656,38.077-42.758
			c0-22.101-16.647-40.302-38.077-42.758V349h101V357.589z M430,341H329V238h101V341z M430,230H329v-96h101V230z M110.806,87.834
			c1.912,0,3.288-0.603,4.129-1.808c0.84-1.205,1.854-3.53,3.042-6.974l3.042-8.829h25.902l3.042,8.642
			c0.405,1.065,0.891,2.294,1.456,3.687c0.565,1.394,1.093,2.427,1.586,3.1c0.492,0.674,1.101,1.205,1.825,1.597
			c0.724,0.391,1.593,0.587,2.608,0.587c1.738,0,3.223-0.666,4.455-1.996c1.231-1.33,1.847-2.794,1.847-4.391
			c0-1.534-0.652-3.992-1.956-7.374l-16.645-44.429c-0.782-2.223-1.427-3.999-1.934-5.331c-0.507-1.33-1.13-2.575-1.869-3.734
			c-0.739-1.158-1.71-2.105-2.912-2.841c-1.203-0.735-2.702-1.104-4.498-1.104c-1.768,0-3.253,0.368-4.455,1.104
			c-1.203,0.736-2.173,1.699-2.912,2.888c-0.739,1.19-1.434,2.685-2.086,4.485c-0.652,1.801-1.21,3.343-1.673,4.626l-16.297,44.711
			c-0.667,1.785-1.145,3.178-1.434,4.18c-0.29,1.002-0.435,1.973-0.435,2.912c0,1.628,0.623,3.084,1.869,4.368
			C107.749,87.192,109.184,87.834,110.806,87.834z M133.84,31.335l9.604,28.414h-19.035L133.84,31.335z M177.82,87.834
			c1.825,0,3.295-0.681,4.411-2.043c1.115-1.362,1.673-3.373,1.673-6.035v-17.33c0-5.385,0.615-9.518,1.847-12.399
			c1.231-2.88,3.788-4.321,7.671-4.321c1.941,0,3.361,0.572,4.259,1.714c0.898,1.143,1.448,2.607,1.651,4.391
			c0.202,1.785,0.304,4.29,0.304,7.514v20.43c0,2.693,0.557,4.713,1.673,6.059c1.115,1.346,2.571,2.02,4.368,2.02
			c1.854,0,3.346-0.674,4.476-2.02c1.13-1.346,1.695-3.365,1.695-6.059V62.708c0-5.479,0.435-9.299,1.304-11.46
			c0.782-1.691,1.876-3.037,3.281-4.039c1.405-1.002,2.89-1.503,4.455-1.503c1.941,0,3.39,0.564,4.346,1.691
			c0.956,1.127,1.543,2.521,1.76,4.18c0.217,1.66,0.326,3.867,0.326,6.622v21.557c0,2.662,0.572,4.673,1.717,6.035
			c1.144,1.362,2.614,2.043,4.411,2.043c1.854,0,3.346-0.674,4.476-2.02c1.13-1.346,1.695-3.365,1.695-6.059V54.724
			c0-4.978-0.507-8.625-1.521-10.943c-1.159-2.567-2.912-4.539-5.259-5.918c-2.347-1.377-5.143-2.066-8.388-2.066
			c-2.781,0-5.317,0.634-7.605,1.902c-2.289,1.268-4.433,3.217-6.432,5.847c-1.391-2.599-3.158-4.539-5.302-5.824
			c-2.144-1.284-4.709-1.926-7.692-1.926c-2.868,0-5.476,0.627-7.823,1.879c-2.347,1.253-4.549,3.21-6.606,5.871v-1.221
			c0-2.066-0.543-3.687-1.63-4.861s-2.441-1.761-4.063-1.761c-1.681,0-3.035,0.627-4.063,1.879
			c-1.029,1.253-1.543,3.084-1.543,5.495v36.68c0,2.662,0.572,4.673,1.717,6.035C174.554,87.153,176.024,87.834,177.82,87.834z
			 M258.872,29.503h23.251c-3.651,5.01-6.801,10.043-9.452,15.099c-2.651,5.057-4.861,9.988-6.628,14.794
			c-1.768,4.807-3.042,8.932-3.824,12.375c-0.782,3.445-1.173,6.169-1.173,8.172c0,2.599,0.536,4.564,1.608,5.894
			c1.072,1.33,2.491,1.996,4.259,1.996c1.854,0,3.339-0.619,4.455-1.855c1.115-1.237,1.977-3.452,2.586-6.646
			c0.261-1.377,0.565-3.365,0.913-5.965c0.348-2.599,0.666-4.712,0.956-6.34c0.289-1.628,0.782-3.679,1.478-6.152
			c1.651-5.604,3.469-10.348,5.454-14.23c1.984-3.882,3.911-7.131,5.78-9.745c1.869-2.614,3.534-5.002,4.998-7.162
			c1.463-2.16,2.195-3.898,2.195-5.213c0-2.16-0.623-3.71-1.869-4.65c-1.246-0.939-3.259-1.409-6.041-1.409h-28.944
			c-2.289,0-4.071,0.313-5.345,0.939c-1.275,0.627-1.912,2.02-1.912,4.18c0,2.036,0.601,3.53,1.804,4.485
			C254.62,29.026,256.438,29.503,258.872,29.503z M303.504,87.834c1.188,0,2.093-0.29,2.716-0.869
			c0.623-0.579,1.086-1.385,1.391-2.419c0.304-1.033,0.659-2.442,1.065-4.227l12.169-54.151c0.608-2.567,0.913-4.336,0.913-5.307
			c0-1.315-0.384-2.348-1.152-3.1c-0.768-0.751-1.876-1.127-3.325-1.127c-1.681,0-2.811,0.533-3.39,1.597
			c-0.58,1.065-1.188,3.037-1.825,5.918L299.941,78.3c-0.58,2.881-0.869,4.681-0.869,5.401
			C299.071,86.457,300.549,87.834,303.504,87.834z M337.576,86.66h19.47c3.361,0,6.302-0.18,8.822-0.54
			c2.521-0.36,4.751-0.978,6.693-1.855c3.1-1.471,5.563-3.749,7.388-6.833c1.825-3.084,2.738-6.552,2.738-10.403
			c0-8.328-4.187-13.932-12.56-16.814c6.374-3.194,9.561-8.234,9.561-15.123c0-2.003-0.304-3.905-0.913-5.706
			c-0.608-1.8-1.493-3.444-2.651-4.931c-1.159-1.487-2.492-2.716-3.998-3.687c-1.768-1.158-3.767-1.941-5.997-2.348
			c-2.231-0.406-4.867-0.611-7.91-0.611h-20.643c-2.753,0-4.745,0.666-5.976,1.996c-1.232,1.331-1.847,3.515-1.847,6.552v51.756
			c0,2.975,0.601,5.143,1.804,6.505C332.759,85.979,334.766,86.66,337.576,86.66z M342.661,28.282h10.474
			c4.694,0,8.185,0.572,10.474,1.714c2.288,1.143,3.433,3.452,3.433,6.927c0,1.628-0.363,3.1-1.086,4.415
			c-0.928,1.848-2.267,3.1-4.02,3.757c-1.753,0.658-4.237,0.986-7.453,0.986h-11.821V28.282z M342.661,56.086h13.429
			c4.491,0,7.866,0.783,10.126,2.348c2.26,1.566,3.39,4.086,3.39,7.561c0,6.795-4.361,10.191-13.081,10.191h-13.863V56.086z
			 M400.527,84.734c3.23,2.066,7.438,3.1,12.625,3.1c4.635,0,8.728-1.096,12.277-3.288c3.549-2.191,6.265-5.15,8.149-8.876
			c1.883-3.726,2.825-7.859,2.825-12.399c0-3.13-0.522-6.058-1.565-8.782c-1.043-2.724-2.477-5.08-4.302-7.068
			c-1.825-1.988-3.948-3.546-6.367-4.673c-2.419-1.127-5.02-1.691-7.801-1.691c-3.477,0-7.273,1.19-11.386,3.569l2.477-15.217
			h20.643c2.144,0,3.766-0.5,4.867-1.503c1.101-1.002,1.651-2.317,1.651-3.945c0-3.726-2.26-5.589-6.78-5.589h-22.946
			c-2.492,0-4.288,0.611-5.389,1.832c-1.101,1.221-1.854,3.178-2.26,5.871l-3.651,22.496c-0.319,1.973-0.478,3.037-0.478,3.194
			c0,1.409,0.55,2.67,1.651,3.781c1.101,1.112,2.361,1.667,3.781,1.667c1.304,0,2.962-0.822,4.976-2.466
			c2.013-1.644,3.556-2.794,4.628-3.452c1.072-0.657,2.853-0.986,5.346-0.986c2.028,0,3.868,0.525,5.519,1.573
			c1.651,1.049,2.969,2.638,3.955,4.767c0.985,2.13,1.478,4.697,1.478,7.702c0,2.787-0.456,5.276-1.369,7.467
			c-0.913,2.192-2.21,3.914-3.89,5.166c-1.681,1.253-3.636,1.879-5.867,1.879c-2.434,0-4.636-0.775-6.606-2.325
			c-1.971-1.55-3.535-3.718-4.694-6.505c-1.188-3.037-2.999-4.556-5.432-4.556c-1.42,0-2.601,0.548-3.542,1.644
			c-0.942,1.096-1.412,2.254-1.412,3.475c0,2.004,0.674,4.344,2.021,7.021S397.296,82.668,400.527,84.734z"/>
	</g>
</g>
</svg>
