<?xml version="1.0" encoding="utf-8"?>
<!-- Generator: Adobe Illustrator 21.0.2, SVG Export Plug-In . SVG Version: 6.00 Build 0)  -->
<svg version="1.1" id="Bmaj7_1_" xmlns="http://www.w3.org/2000/svg" xmlns:xlink="http://www.w3.org/1999/xlink" x="0px" y="0px"
	 viewBox="0 0 533 700" style="enable-background:new 0 0 533 700;" xml:space="preserve">
<style type="text/css">
	.st0{fill-rule:evenodd;clip-rule:evenodd;}
</style>
<g id="Bmaj7">
	<g>
		<path class="st0" d="M440,242.5V238v-8v-96v-15v-4.5H97v4.5v15v96v8v103v8v4.6c-21.4,2.5-38,20.7-38,42.7
			c0,22.1,16.6,40.2,38,42.7V454v8v103v8v101h10V573h101v101h10V573h101v101h10V573h101v101h10V573v-8V462v-8V349v-8v-13
			c21.4-2.5,38.1-20.7,38.1-42.8C478.1,263.2,461.4,245,440,242.5z M208,565H107V462h101V565z M208,353.6c-21.4,2.5-38,20.7-38,42.7
			c0,22.1,16.6,40.2,38,42.7V454H107v-14.9c21.4-2.5,38.1-20.7,38.1-42.8c0-22.1-16.6-40.3-38.1-42.8V349h101V353.6z M208,341H107
			V238h101V341z M208,230H107v-96h101V230z M319,565H218V462h101V565z M319,454H218v-14.9c21.4-2.5,38.1-20.7,38.1-42.8
			c0-22.1-16.6-40.3-38.1-42.8V349h101V454z M319,242.5c-21.4,2.5-38,20.7-38,42.7c0,22.1,16.6,40.2,38,42.7v13H218V238h101V242.5z
			 M319,230H218v-96h101V230z M430,565H329V462h101V565z M430,454H329V349h101V454z M430,242.5c-21.4,2.5-38,20.7-38,42.7
			c0,22.1,16.6,40.2,38,42.7v13H329v-13c21.4-2.5,38.1-20.7,38.1-42.8c0-22.1-16.6-40.3-38.1-42.8V238h101V242.5z M430,230H329v-96
			h101V230z M149.4,86.7h19.5c3.4,0,6.3-0.2,8.8-0.5c2.5-0.4,4.8-1,6.7-1.9c3.1-1.5,5.6-3.7,7.4-6.8c1.8-3.1,2.7-6.6,2.7-10.4
			c0-8.3-4.2-13.9-12.6-16.8c6.4-3.2,9.6-8.2,9.6-15.1c0-2-0.3-3.9-0.9-5.7c-0.6-1.8-1.5-3.4-2.7-4.9c-1.2-1.5-2.5-2.7-4-3.7
			c-1.8-1.2-3.8-1.9-6-2.3c-2.2-0.4-4.9-0.6-7.9-0.6h-20.6c-2.8,0-4.7,0.7-6,2c-1.2,1.3-1.8,3.5-1.8,6.6v51.8c0,3,0.6,5.1,1.8,6.5
			C144.6,86,146.6,86.7,149.4,86.7z M154.5,28.3h10.5c4.7,0,8.2,0.6,10.5,1.7c2.3,1.1,3.4,3.5,3.4,6.9c0,1.6-0.4,3.1-1.1,4.4
			c-0.9,1.8-2.3,3.1-4,3.8c-1.8,0.7-4.2,1-7.5,1h-11.8V28.3z M154.5,56.1h13.4c4.5,0,7.9,0.8,10.1,2.3c2.3,1.6,3.4,4.1,3.4,7.6
			c0,6.8-4.4,10.2-13.1,10.2h-13.9V56.1z M210.3,87.8c1.8,0,3.3-0.7,4.4-2c1.1-1.4,1.7-3.4,1.7-6V62.4c0-5.4,0.6-9.5,1.8-12.4
			c1.2-2.9,3.8-4.3,7.7-4.3c1.9,0,3.4,0.6,4.3,1.7c0.9,1.1,1.4,2.6,1.7,4.4c0.2,1.8,0.3,4.3,0.3,7.5v20.4c0,2.7,0.6,4.7,1.7,6.1
			c1.1,1.3,2.6,2,4.4,2c1.9,0,3.3-0.7,4.5-2c1.1-1.3,1.7-3.4,1.7-6.1v-17c0-5.5,0.4-9.3,1.3-11.5c0.8-1.7,1.9-3,3.3-4
			c1.4-1,2.9-1.5,4.5-1.5c1.9,0,3.4,0.6,4.3,1.7c1,1.1,1.5,2.5,1.8,4.2c0.2,1.7,0.3,3.9,0.3,6.6v21.6c0,2.7,0.6,4.7,1.7,6
			c1.1,1.4,2.6,2,4.4,2c1.9,0,3.3-0.7,4.5-2c1.1-1.3,1.7-3.4,1.7-6.1v-25c0-5-0.5-8.6-1.5-10.9c-1.2-2.6-2.9-4.5-5.3-5.9
			c-2.3-1.4-5.1-2.1-8.4-2.1c-2.8,0-5.3,0.6-7.6,1.9c-2.3,1.3-4.4,3.2-6.4,5.8c-1.4-2.6-3.2-4.5-5.3-5.8c-2.1-1.3-4.7-1.9-7.7-1.9
			c-2.9,0-5.5,0.6-7.8,1.9c-2.3,1.3-4.5,3.2-6.6,5.9v-1.2c0-2.1-0.5-3.7-1.6-4.9s-2.4-1.8-4.1-1.8c-1.7,0-3,0.6-4.1,1.9
			c-1,1.3-1.5,3.1-1.5,5.5v36.7c0,2.7,0.6,4.7,1.7,6C207,87.2,208.5,87.8,210.3,87.8z M298.2,58.2c-3,0.7-4.9,1.1-5.6,1.3
			c-3.6,0.8-6.4,2.5-8.5,5c-2.1,2.5-3.1,5.5-3.1,9c0,2.6,0.6,5,1.9,7.2c1.2,2.2,3,4,5.3,5.3c2.3,1.3,5,1.9,8,1.9
			c3.3,0,6.3-0.6,9-1.8c2.7-1.2,5.5-3,8.3-5.4c1.3,2.3,2.6,4.1,3.8,5.4c1.2,1.2,2.4,1.9,3.6,1.9c1.4,0,2.7-0.5,3.9-1.6
			c1.1-1.1,1.7-2.3,1.7-3.6c0-0.8-0.4-2.4-1.1-5c-0.7-2.6-1.1-5.1-1.1-7.5c0-2.6,0.1-4.9,0.1-7c0-2.1,0-4.6,0-7.7
			c0-4.8-0.6-8.6-1.8-11.5c-1.2-2.9-3.3-5-6.3-6.3c-3-1.3-7.1-2-12.3-2c-4.7,0-8.6,0.7-11.7,2.1c-3.1,1.4-5.4,3.1-6.9,5.3
			c-1.5,2.1-2.2,4.3-2.2,6.6c0,1.4,0.5,2.6,1.5,3.5c1,0.9,2.1,1.4,3.5,1.4c1.5,0,2.4-0.3,2.9-0.9c0.4-0.6,1.2-1.8,2.3-3.6
			c1.1-1.8,2.4-3.2,3.9-4.1c1.5-0.9,3.8-1.4,6.8-1.4c3.5,0,5.8,0.8,6.9,2.4c1.1,1.6,1.7,4.1,1.9,7.4c-2.5,0.8-4.8,1.4-6.9,2
			C303.7,56.9,301.2,57.5,298.2,58.2z M312.8,63.9c0,4.4-0.5,7.6-1.6,9.6c-0.9,1.8-2.4,3.2-4.4,4.3c-2,1.1-4.2,1.7-6.5,1.7
			c-2.2,0-4-0.7-5.3-2c-1.4-1.4-2-3-2-5c0-1.9,0.6-3.3,1.7-4.4c1.2-1,2.4-1.8,3.7-2.1c1.3-0.4,3.6-0.9,6.9-1.7
			c3.3-0.8,5.8-1.5,7.6-2.2V63.9z M342.6,29.7c1.6,0,3-0.6,4.1-1.7c1.2-1.1,1.7-2.7,1.7-4.6c0-2-0.6-3.6-1.8-4.6
			c-1.2-1.1-2.5-1.6-4.1-1.6c-1.6,0-3,0.6-4.2,1.8c-1.2,1.2-1.8,2.7-1.8,4.5c0,2,0.6,3.6,1.8,4.6C339.5,29.2,340.9,29.7,342.6,29.7z
			 M323.8,100.6c0,2,0.9,3.6,2.8,4.6c1.9,1.1,4.6,1.6,8.2,1.6c6.4,0,10.6-2.7,12.6-8.2c0.3-0.9,0.6-2.3,0.8-4.3
			c0.2-2,0.3-4.5,0.3-7.6V43.4c0-2.6-0.5-4.5-1.6-5.8c-1.1-1.3-2.5-1.9-4.2-1.9c-1.8,0-3.2,0.6-4.3,1.9c-1.1,1.3-1.7,3.2-1.7,5.7
			v43.2c0,3.5-0.3,5.9-0.8,7.2c-0.5,1.3-1.6,2-3.2,2c-0.3,0-0.8,0-1.6-0.1c-0.8-0.1-1.3-0.1-1.7-0.2c-0.4,0-0.7-0.1-0.8-0.1
			c-1.4,0-2.5,0.5-3.3,1.4C324.2,97.9,323.8,99.1,323.8,100.6z M368.3,29.5h23.3c-3.7,5-6.8,10-9.5,15.1c-2.7,5.1-4.9,10-6.6,14.8
			c-1.8,4.8-3,8.9-3.8,12.4c-0.8,3.4-1.2,6.2-1.2,8.2c0,2.6,0.5,4.6,1.6,5.9c1.1,1.3,2.5,2,4.3,2c1.9,0,3.3-0.6,4.5-1.9
			c1.1-1.2,2-3.5,2.6-6.6c0.3-1.4,0.6-3.4,0.9-6c0.3-2.6,0.7-4.7,1-6.3c0.3-1.6,0.8-3.7,1.5-6.2c1.7-5.6,3.5-10.3,5.5-14.2
			c2-3.9,3.9-7.1,5.8-9.7c1.9-2.6,3.5-5,5-7.2c1.5-2.2,2.2-3.9,2.2-5.2c0-2.2-0.6-3.7-1.9-4.6c-1.2-0.9-3.3-1.4-6-1.4h-28.9
			c-2.3,0-4.1,0.3-5.3,0.9c-1.3,0.6-1.9,2-1.9,4.2c0,2,0.6,3.5,1.8,4.5C364.1,29,365.9,29.5,368.3,29.5z"/>
	</g>
</g>
</svg>
