<?xml version="1.0" encoding="iso-8859-1"?>
<!-- Generator: Adobe Illustrator 21.0.2, SVG Export Plug-In . SVG Version: 6.00 Build 0)  -->
<svg version="1.1" id="Cdim_1_" xmlns="http://www.w3.org/2000/svg" xmlns:xlink="http://www.w3.org/1999/xlink" x="0px" y="0px"
	 viewBox="0 0 533 700" style="enable-background:new 0 0 533 700;" xml:space="preserve">
<g id="Cdim">
	<g>
		<path style="fill-rule:evenodd;clip-rule:evenodd;" d="M440,357.575V349v-8V238v-8v-96v-15v-4.5H97v4.5v15v96v8v103v8v105v8v103v8
			v101h10V573h101v101h10V573h101v101h10V573h101v101h10V573v-8V462v-8v-10.91c21.43-2.455,38.077-20.656,38.077-42.758
			C478.077,378.231,461.43,360.03,440,357.575z M208,565H107V462h101V565z M208,357.716c-20.891,2.947-36.965,20.899-36.965,42.616
			c0,21.718,16.074,39.67,36.965,42.616V454H107V349h101V357.716z M208,341H107V238h101V341z M208,230H107v-96h101V230z M319,565
			H218V462h101V565z M319,454H218v-10.806c21.91-1.994,39.077-20.417,39.077-42.862c0-22.444-17.167-40.868-39.077-42.862V349h101
			V454z M319,245.589c-21.376,2.506-37.965,20.681-37.965,42.743c0,22.063,16.589,40.238,37.965,42.744V341H218V238h101V245.589z
			 M319,230H218v-96h101V230z M430,565H329V462h101V565z M430,357.589c-21.376,2.506-37.965,20.681-37.965,42.743
			c0,22.063,16.589,40.238,37.965,42.744V454H329V349h101V357.589z M430,341H329v-9.91c21.43-2.455,38.077-20.656,38.077-42.758
			c0-22.101-16.647-40.302-38.077-42.758V238h101V341z M430,230H329v-96h101V230z M166.825,70.574
			c1.188,2.677,2.622,5.096,4.302,7.256c1.883,2.38,3.947,4.297,6.193,5.753c2.245,1.456,4.744,2.529,7.497,3.217
			c2.752,0.688,5.809,1.033,9.17,1.033c4.433,0,8.315-0.768,11.647-2.301c3.331-1.534,6.069-3.53,8.214-5.988
			c2.144-2.458,3.716-4.962,4.715-7.514c1-2.552,1.499-4.923,1.499-7.115c0-1.722-0.551-3.162-1.651-4.321
			c-1.101-1.158-2.419-1.738-3.955-1.738c-1.797,0-3.101,0.572-3.911,1.714c-0.811,1.143-1.493,2.623-2.043,4.438
			c-1.304,3.851-3.238,6.771-5.802,8.759c-2.564,1.989-5.701,2.982-9.409,2.982c-3.419,0-6.403-0.876-8.953-2.63
			c-2.55-1.753-4.52-4.407-5.91-7.961c-1.391-3.553-2.086-8.008-2.086-13.362c0-8.015,1.571-14.199,4.715-18.551
			c3.143-4.352,7.366-6.528,12.668-6.528c3.331,0,6.135,0.845,8.409,2.536c2.274,1.691,4.252,4.243,5.932,7.655
			c1.014,2.066,1.934,3.522,2.76,4.368c0.826,0.845,2.064,1.268,3.716,1.268c1.478,0,2.738-0.611,3.781-1.832
			c1.043-1.221,1.565-2.63,1.565-4.227c0-2.912-1.072-6.003-3.216-9.276c-2.144-3.271-5.23-6.019-9.257-8.242
			c-4.027-2.223-8.62-3.335-13.776-3.335c-4.231,0-8.214,0.815-11.951,2.442c-3.737,1.628-6.997,4-9.778,7.115
			c-2.781,3.116-4.918,6.865-6.41,11.248c-1.493,4.384-2.238,9.346-2.238,14.888c0,3.413,0.297,6.638,0.891,9.675
			C164.746,65.041,165.637,67.897,166.825,70.574z M233.491,80.32c1.767,2.411,3.86,4.267,6.28,5.565
			c2.419,1.299,5.048,1.949,7.888,1.949c2.144,0,4.121-0.321,5.932-0.963c1.81-0.641,3.491-1.581,5.041-2.818
			c1.55-1.237,3.122-2.841,4.715-4.814v1.268c0,2.348,0.528,4.156,1.586,5.424c1.057,1.268,2.397,1.902,4.02,1.902
			c1.651,0,2.999-0.611,4.042-1.832c1.043-1.221,1.565-3.053,1.565-5.495V23.961c0-2.411-0.486-4.234-1.456-5.471
			c-0.971-1.237-2.354-1.855-4.15-1.855c-1.797,0-3.18,0.674-4.15,2.02c-0.971,1.347-1.456,3.335-1.456,5.965v18.927
			c-2.231-2.63-4.52-4.579-6.867-5.847c-2.347-1.268-5.23-1.902-8.648-1.902c-5.91,0-10.677,2.239-14.298,6.716
			c-3.622,4.478-5.432,10.724-5.432,18.739c0,3.789,0.456,7.311,1.369,10.567C230.384,75.076,231.724,77.909,233.491,80.32z
			 M241.423,53.009c0.941-2.489,2.267-4.399,3.977-5.73c1.709-1.33,3.651-1.996,5.824-1.996c2.086,0,4.005,0.65,5.758,1.949
			c1.753,1.3,3.143,3.178,4.172,5.636c1.028,2.458,1.543,5.394,1.543,8.806c0,3.633-0.515,6.662-1.543,9.088
			c-1.029,2.427-2.405,4.227-4.129,5.401c-1.724,1.174-3.629,1.761-5.715,1.761c-2.057,0-3.955-0.618-5.693-1.855
			c-1.738-1.236-3.107-3.076-4.107-5.518c-1-2.442-1.499-5.401-1.499-8.876C240.01,58.387,240.481,55.499,241.423,53.009z
			 M292.465,29.738c1.593,0,2.969-0.555,4.129-1.667c1.158-1.111,1.738-2.654,1.738-4.626c0-2.035-0.594-3.585-1.782-4.65
			c-1.188-1.064-2.55-1.597-4.085-1.597c-1.594,0-2.992,0.587-4.194,1.761c-1.203,1.174-1.804,2.67-1.804,4.485
			c0,2.004,0.587,3.554,1.76,4.65C289.401,29.191,290.814,29.738,292.465,29.738z M292.335,87.834c1.738,0,3.173-0.658,4.302-1.973
			c1.13-1.315,1.695-3.256,1.695-5.824V42.982c0-2.285-0.565-4.07-1.695-5.354c-1.13-1.283-2.564-1.926-4.302-1.926
			c-1.738,0-3.151,0.642-4.237,1.926c-1.086,1.284-1.63,3.194-1.63,5.73v36.68c0,2.505,0.543,4.431,1.63,5.777
			C289.184,87.161,290.597,87.834,292.335,87.834z M316.02,87.834c1.825,0,3.295-0.681,4.411-2.043
			c1.115-1.362,1.673-3.373,1.673-6.035v-17.33c0-5.385,0.615-9.518,1.847-12.399c1.231-2.88,3.788-4.321,7.671-4.321
			c1.941,0,3.361,0.572,4.259,1.714c0.898,1.143,1.448,2.607,1.651,4.391c0.202,1.785,0.304,4.29,0.304,7.514v20.43
			c0,2.693,0.557,4.713,1.673,6.059c1.115,1.346,2.571,2.02,4.368,2.02c1.854,0,3.346-0.674,4.476-2.02
			c1.13-1.346,1.695-3.365,1.695-6.059V62.708c0-5.479,0.435-9.299,1.304-11.46c0.782-1.691,1.876-3.037,3.281-4.039
			c1.405-1.002,2.89-1.503,4.455-1.503c1.941,0,3.39,0.564,4.346,1.691c0.956,1.127,1.543,2.521,1.76,4.18
			c0.217,1.66,0.326,3.867,0.326,6.622v21.557c0,2.662,0.572,4.673,1.717,6.035c1.144,1.362,2.614,2.043,4.411,2.043
			c1.854,0,3.346-0.674,4.476-2.02c1.13-1.346,1.695-3.365,1.695-6.059V54.724c0-4.978-0.507-8.625-1.521-10.943
			c-1.159-2.567-2.912-4.539-5.259-5.918c-2.347-1.377-5.143-2.066-8.388-2.066c-2.781,0-5.317,0.634-7.605,1.902
			c-2.289,1.268-4.433,3.217-6.432,5.847c-1.391-2.599-3.158-4.539-5.302-5.824c-2.144-1.284-4.709-1.926-7.692-1.926
			c-2.868,0-5.476,0.627-7.823,1.879c-2.347,1.253-4.549,3.21-6.606,5.871v-1.221c0-2.066-0.543-3.687-1.63-4.861
			s-2.441-1.761-4.063-1.761c-1.681,0-3.035,0.627-4.063,1.879c-1.029,1.253-1.543,3.084-1.543,5.495v36.68
			c0,2.662,0.572,4.673,1.717,6.035C312.753,87.153,314.223,87.834,316.02,87.834z"/>
	</g>
</g>
</svg>
