<?xml version="1.0" encoding="iso-8859-1"?>
<!-- Generator: Adobe Illustrator 21.0.2, SVG Export Plug-In . SVG Version: 6.00 Build 0)  -->
<svg version="1.1" id="Dm7_1_" xmlns="http://www.w3.org/2000/svg" xmlns:xlink="http://www.w3.org/1999/xlink" x="0px" y="0px"
	 viewBox="0 0 533 700" style="enable-background:new 0 0 533 700;" xml:space="preserve">
<g id="Dm7">
	<g>
		<path style="fill-rule:evenodd;clip-rule:evenodd;" d="M440,357.575V349v-8V238v-8v-96v-15v-4.5H97v4.5v15v96v8v9.589
			c-21.376,2.506-37.965,20.681-37.965,42.743c0,22.063,16.589,40.238,37.965,42.744V341v8v105v8v103v8v101h10V573h101v101h10V573
			h101v101h10V573h101v101h10V573v-8V462v-8v-10.91c21.43-2.455,38.077-20.656,38.077-42.758
			C478.077,378.231,461.43,360.03,440,357.575z M208,565H107V462h101V565z M208,454H107V349h101V454z M208,247.716
			c-20.891,2.947-36.965,20.899-36.965,42.616c0,21.718,16.074,39.67,36.965,42.616V341H107v-7.91
			c21.43-2.455,38.077-20.656,38.077-42.758c0-22.101-16.647-40.302-38.077-42.758V238h101V247.716z M208,230H107v-96h101V230z
			 M319,565H218V462h101V565z M319,454H218V349h101V454z M319,341H218v-7.806c21.91-1.994,39.077-20.417,39.077-42.862
			c0-22.444-17.167-40.867-39.077-42.862V238h101V341z M319,137.589c-21.376,2.506-37.965,20.681-37.965,42.743
			c0,22.063,16.589,40.238,37.965,42.744V230H218v-96h101V137.589z M430,565H329V462h101V565z M430,357.589
			c-21.376,2.506-37.965,20.681-37.965,42.743c0,22.063,16.589,40.238,37.965,42.744V454H329V349h101V357.589z M430,341H329V238h101
			V341z M430,230H329v-6.91c21.43-2.455,38.077-20.656,38.077-42.758c0-22.101-16.647-40.302-38.077-42.758V134h101V230z
			 M182.167,85.509c1.188,0.768,2.955,1.151,5.302,1.151h16.819c2.926,0,5.555-0.203,7.888-0.611
			c2.332-0.406,4.512-1.111,6.541-2.113c2.028-1.002,3.896-2.332,5.606-3.992c2.173-2.16,3.955-4.61,5.345-7.35
			c1.391-2.739,2.419-5.816,3.086-9.229c0.666-3.412,1-7.186,1-11.319c0-12.524-3.318-21.854-9.952-27.991
			c-2.55-2.411-5.389-4.054-8.518-4.931c-3.129-0.876-6.881-1.315-11.256-1.315h-16.819c-2.781,0-4.795,0.674-6.041,2.02
			c-1.246,1.347-1.869,3.522-1.869,6.528v50.488c0,2.224,0.181,4.032,0.543,5.425C180.204,83.662,180.979,84.742,182.167,85.509z
			 M192.206,28.846h8.518c3.94,0,7.301,0.462,10.083,1.385c2.781,0.924,5.121,3.076,7.019,6.458
			c1.897,3.381,2.847,8.47,2.847,15.264c0,9.644-2.159,16.438-6.475,20.383c-0.956,0.909-2.086,1.613-3.39,2.113
			c-1.304,0.501-2.564,0.815-3.781,0.939c-1.217,0.125-2.898,0.188-5.041,0.188h-9.778V28.846z M249.703,87.834
			c1.825,0,3.295-0.681,4.411-2.043c1.115-1.362,1.673-3.373,1.673-6.035v-17.33c0-5.385,0.615-9.518,1.847-12.399
			c1.231-2.88,3.788-4.321,7.671-4.321c1.941,0,3.361,0.572,4.259,1.714c0.898,1.143,1.448,2.607,1.651,4.391
			c0.202,1.785,0.304,4.29,0.304,7.514v20.43c0,2.693,0.557,4.713,1.673,6.059c1.115,1.346,2.571,2.02,4.368,2.02
			c1.854,0,3.346-0.674,4.476-2.02c1.13-1.346,1.695-3.365,1.695-6.059V62.708c0-5.479,0.435-9.299,1.304-11.46
			c0.782-1.691,1.876-3.037,3.281-4.039c1.405-1.002,2.89-1.503,4.455-1.503c1.941,0,3.39,0.564,4.346,1.691
			c0.956,1.127,1.543,2.521,1.76,4.18c0.217,1.66,0.326,3.867,0.326,6.622v21.557c0,2.662,0.572,4.673,1.717,6.035
			c1.144,1.362,2.614,2.043,4.411,2.043c1.854,0,3.346-0.674,4.476-2.02c1.13-1.346,1.695-3.365,1.695-6.059V54.724
			c0-4.978-0.507-8.625-1.521-10.943c-1.159-2.567-2.912-4.539-5.259-5.918c-2.347-1.377-5.143-2.066-8.388-2.066
			c-2.781,0-5.317,0.634-7.605,1.902c-2.289,1.268-4.433,3.217-6.432,5.847c-1.391-2.599-3.158-4.539-5.302-5.824
			c-2.144-1.284-4.709-1.926-7.692-1.926c-2.868,0-5.476,0.627-7.823,1.879c-2.347,1.253-4.549,3.21-6.606,5.871v-1.221
			c0-2.066-0.543-3.687-1.63-4.861c-1.086-1.174-2.441-1.761-4.063-1.761c-1.681,0-3.035,0.627-4.063,1.879
			c-1.029,1.253-1.543,3.084-1.543,5.495v36.68c0,2.662,0.572,4.673,1.717,6.035C246.436,87.153,247.906,87.834,249.703,87.834z
			 M330.754,29.503h23.251c-3.651,5.01-6.801,10.043-9.452,15.099c-2.651,5.057-4.861,9.988-6.628,14.794
			c-1.768,4.807-3.042,8.932-3.824,12.375c-0.782,3.445-1.173,6.169-1.173,8.172c0,2.599,0.536,4.564,1.608,5.894
			c1.072,1.33,2.491,1.996,4.259,1.996c1.854,0,3.339-0.619,4.455-1.855c1.115-1.237,1.977-3.452,2.586-6.646
			c0.261-1.377,0.565-3.365,0.913-5.965c0.348-2.599,0.666-4.712,0.956-6.34c0.289-1.628,0.782-3.679,1.478-6.152
			c1.651-5.604,3.469-10.348,5.454-14.23c1.984-3.882,3.911-7.131,5.78-9.745c1.869-2.614,3.534-5.002,4.998-7.162
			c1.463-2.16,2.195-3.898,2.195-5.213c0-2.16-0.623-3.71-1.869-4.65c-1.246-0.939-3.259-1.409-6.041-1.409h-28.944
			c-2.289,0-4.071,0.313-5.345,0.939c-1.275,0.627-1.912,2.02-1.912,4.18c0,2.036,0.601,3.53,1.804,4.485
			C326.502,29.026,328.321,29.503,330.754,29.503z"/>
	</g>
</g>
</svg>
