<?xml version="1.0" encoding="iso-8859-1"?>
<!-- Generator: Adobe Illustrator 21.0.2, SVG Export Plug-In . SVG Version: 6.00 Build 0)  -->
<svg version="1.1" id="Gbmaj7_1_" xmlns="http://www.w3.org/2000/svg" xmlns:xlink="http://www.w3.org/1999/xlink" x="0px" y="0px"
	 viewBox="0 0 533 700" style="enable-background:new 0 0 533 700;" xml:space="preserve">
<g id="Gbmaj7">
	<g>
		<path style="fill-rule:evenodd;clip-rule:evenodd;" d="M440,471.575V462v-8V349v-8V238v-8v-96v-15v-4.5H97v4.5v15v96v8v103v8
			v6.589c-21.376,2.506-37.965,20.681-37.965,42.743c0,22.063,16.589,40.238,37.965,42.744V454v8v103v8v101h10V573h101v8.716
			c-20.891,2.947-36.965,20.899-36.965,42.616c0,21.718,16.074,39.67,36.965,42.616V674h10v-6.806
			c21.91-1.994,39.077-20.417,39.077-42.862c0-22.444-17.167-40.867-39.077-42.862V573h101v101h10V573h101v101h10V573v-8v-7.91
			c21.43-2.455,38.077-20.656,38.077-42.758C478.077,492.231,461.43,474.03,440,471.575z M208,565H107V462h101V565z M208,454H107
			v-12.91c21.43-2.455,38.077-20.656,38.077-42.758c0-22.101-16.647-40.302-38.077-42.758V349h101V454z M208,341H107V238h101V341z
			 M208,230H107v-96h101V230z M319,565H218V462h101V565z M319,454H218V349h101V454z M319,245.589
			c-21.376,2.506-37.965,20.681-37.965,42.743c0,22.063,16.589,40.238,37.965,42.744V341H218V238h101V245.589z M319,230H218v-96h101
			V230z M430,471.589c-21.376,2.506-37.965,20.681-37.965,42.743c0,22.063,16.589,40.238,37.965,42.744V565H329V462h101V471.589z
			 M430,454H329V349h101V454z M430,341H329v-9.91c21.43-2.455,38.077-20.656,38.077-42.758c0-22.101-16.647-40.302-38.077-42.758
			V238h101V341z M430,230H329v-96h101V230z M116.804,78.3c2.839,3.1,6.272,5.464,10.3,7.092c4.027,1.628,8.489,2.442,13.385,2.442
			c4.201,0,8.083-0.517,11.647-1.55c3.564-1.033,7.272-2.677,11.126-4.931c1.332-0.782,2.426-1.597,3.281-2.442
			c0.854-0.845,1.441-1.792,1.76-2.841c0.318-1.049,0.478-2.45,0.478-4.203V58.669c0-2.379-0.384-4.164-1.152-5.354
			c-0.768-1.19-1.775-1.956-3.02-2.301c-1.246-0.344-2.767-0.517-4.563-0.517H145.4c-1.768,0-3.166,0.501-4.194,1.503
			c-1.029,1.002-1.543,2.271-1.543,3.804c0,1.879,0.615,3.21,1.847,3.992c1.231,0.783,3.049,1.174,5.454,1.174h9.996v11.178
			c-2.694,1.566-5.353,2.771-7.975,3.616c-2.622,0.845-5.426,1.268-8.409,1.268c-6.143,0-10.93-2.176-14.363-6.528
			c-3.433-4.352-5.15-10.567-5.15-18.645c0-3.726,0.441-7.123,1.326-10.191c0.883-3.068,2.158-5.659,3.824-7.773
			c1.666-2.113,3.672-3.726,6.019-4.837c2.347-1.111,5.012-1.667,7.996-1.667c2.897,0,5.28,0.47,7.149,1.409
			c1.869,0.939,3.353,2.098,4.455,3.475c1.101,1.378,2.448,3.413,4.042,6.105c0.579,0.845,1.296,1.503,2.151,1.973
			c0.854,0.47,1.745,0.704,2.673,0.704c1.68,0,3.122-0.618,4.324-1.855c1.202-1.237,1.804-2.731,1.804-4.485
			c0-1.628-0.521-3.491-1.565-5.589c-1.043-2.097-2.593-4.086-4.65-5.965c-2.057-1.879-4.737-3.436-8.04-4.673
			c-3.303-1.237-7.099-1.855-11.386-1.855c-5.215,0-9.88,0.822-13.994,2.466c-4.114,1.644-7.605,4.016-10.474,7.115
			c-2.868,3.1-5.041,6.873-6.519,11.319c-1.478,4.446-2.216,9.346-2.216,14.7c0,5.448,0.761,10.379,2.282,14.794
			S113.964,75.201,116.804,78.3z M185.513,87.834c1.651,0,3.013-0.619,4.085-1.855c1.072-1.237,1.608-3.06,1.608-5.471V79.24
			c1.304,1.628,2.354,2.849,3.151,3.663c0.797,0.815,1.76,1.605,2.89,2.372c1.13,0.768,2.499,1.385,4.107,1.855
			c1.608,0.47,3.325,0.705,5.15,0.705c2.984,0,5.715-0.65,8.192-1.949c2.477-1.299,4.585-3.139,6.323-5.518
			c1.738-2.379,3.064-5.19,3.977-8.43s1.369-6.802,1.369-10.685c0-5.26-0.819-9.808-2.455-13.643
			c-1.637-3.835-3.94-6.763-6.91-8.782c-2.97-2.02-6.425-3.029-10.365-3.029c-3.419,0-6.287,0.666-8.605,1.996
			c-2.318,1.331-4.592,3.249-6.823,5.753V23.961c0-2.348-0.493-4.156-1.478-5.424c-0.985-1.268-2.39-1.902-4.216-1.902
			c-1.738,0-3.093,0.666-4.063,1.996c-0.971,1.331-1.456,3.296-1.456,5.894v55.983c0,2.411,0.5,4.235,1.499,5.471
			C182.492,87.216,183.832,87.834,185.513,87.834z M193.292,53.056c1.014-2.52,2.404-4.446,4.172-5.777
			c1.767-1.33,3.781-1.996,6.041-1.996c2.201,0,4.129,0.666,5.78,1.996c1.651,1.331,2.926,3.217,3.824,5.659
			c0.898,2.442,1.347,5.354,1.347,8.736c0,5.229-1.08,9.245-3.238,12.047c-2.159,2.802-4.73,4.203-7.714,4.203
			c-3.506,0-6.338-1.369-8.496-4.109c-2.159-2.739-3.238-6.661-3.238-11.765C191.771,58.575,192.277,55.577,193.292,53.056z
			 M241.314,87.834c1.825,0,3.295-0.681,4.411-2.043c1.115-1.362,1.673-3.373,1.673-6.035v-17.33c0-5.385,0.615-9.518,1.847-12.399
			c1.231-2.88,3.788-4.321,7.671-4.321c1.941,0,3.361,0.572,4.259,1.714c0.898,1.143,1.448,2.607,1.651,4.391
			c0.202,1.785,0.304,4.29,0.304,7.514v20.43c0,2.693,0.557,4.713,1.673,6.059c1.115,1.346,2.571,2.02,4.368,2.02
			c1.854,0,3.346-0.674,4.476-2.02c1.13-1.346,1.695-3.365,1.695-6.059V62.708c0-5.479,0.435-9.299,1.304-11.46
			c0.782-1.691,1.876-3.037,3.281-4.039c1.405-1.002,2.89-1.503,4.455-1.503c1.941,0,3.39,0.564,4.346,1.691
			c0.956,1.127,1.543,2.521,1.76,4.18c0.217,1.66,0.326,3.867,0.326,6.622v21.557c0,2.662,0.572,4.673,1.717,6.035
			c1.144,1.362,2.614,2.043,4.411,2.043c1.854,0,3.346-0.674,4.476-2.02c1.13-1.346,1.695-3.365,1.695-6.059V54.724
			c0-4.978-0.507-8.625-1.521-10.943c-1.159-2.567-2.912-4.539-5.259-5.918c-2.347-1.377-5.143-2.066-8.388-2.066
			c-2.781,0-5.317,0.634-7.605,1.902c-2.289,1.268-4.433,3.217-6.432,5.847c-1.391-2.599-3.158-4.539-5.302-5.824
			c-2.144-1.284-4.709-1.926-7.692-1.926c-2.868,0-5.476,0.627-7.823,1.879c-2.347,1.253-4.549,3.21-6.606,5.871v-1.221
			c0-2.066-0.543-3.687-1.63-4.861c-1.086-1.174-2.441-1.761-4.063-1.761c-1.681,0-3.035,0.627-4.063,1.879
			c-1.029,1.253-1.543,3.084-1.543,5.495v36.68c0,2.662,0.572,4.673,1.717,6.035C238.047,87.153,239.518,87.834,241.314,87.834z
			 M329.232,58.152c-2.984,0.658-4.853,1.08-5.606,1.268c-3.593,0.845-6.418,2.505-8.474,4.978c-2.058,2.474-3.086,5.464-3.086,8.97
			c0,2.599,0.623,5.01,1.869,7.233c1.245,2.224,3.02,3.985,5.324,5.284c2.303,1.299,4.976,1.949,8.018,1.949
			c3.331,0,6.338-0.603,9.018-1.808c2.68-1.205,5.454-3.013,8.322-5.424c1.332,2.348,2.593,4.141,3.781,5.378
			c1.188,1.237,2.39,1.855,3.607,1.855c1.448,0,2.745-0.54,3.89-1.62c1.144-1.08,1.717-2.278,1.717-3.593
			c0-0.751-0.369-2.434-1.108-5.049c-0.739-2.614-1.108-5.127-1.108-7.538c0.029-2.567,0.05-4.9,0.065-6.998
			c0.014-2.097,0.022-4.65,0.022-7.655c0-4.759-0.616-8.578-1.847-11.46c-1.232-2.88-3.34-4.986-6.323-6.317
			c-2.984-1.33-7.084-1.996-12.299-1.996c-4.665,0-8.561,0.689-11.69,2.066c-3.129,1.378-5.432,3.131-6.91,5.26
			c-1.478,2.13-2.216,4.321-2.216,6.575c0,1.44,0.485,2.623,1.456,3.546c0.97,0.924,2.122,1.385,3.455,1.385
			c1.478,0,2.44-0.289,2.89-0.869c0.449-0.579,1.217-1.777,2.303-3.593c1.086-1.815,2.39-3.177,3.911-4.086
			c1.521-0.908,3.788-1.362,6.801-1.362c3.505,0,5.816,0.791,6.932,2.372c1.115,1.581,1.745,4.062,1.89,7.444
			c-2.492,0.783-4.802,1.449-6.932,1.996C334.773,56.892,332.216,57.495,329.232,58.152z M343.834,63.882
			c0,4.446-0.536,7.64-1.608,9.581c-0.928,1.754-2.383,3.186-4.368,4.297c-1.985,1.112-4.15,1.667-6.497,1.667
			c-2.202,0-3.984-0.681-5.345-2.043c-1.362-1.362-2.043-3.013-2.043-4.955c0-1.879,0.579-3.342,1.738-4.391
			c1.158-1.049,2.375-1.753,3.651-2.113c1.275-0.36,3.57-0.923,6.888-1.691c3.317-0.767,5.845-1.495,7.584-2.184V63.882z
			 M373.604,29.738c1.593,0,2.969-0.555,4.129-1.667c1.158-1.111,1.738-2.654,1.738-4.626c0-2.035-0.594-3.585-1.782-4.65
			c-1.188-1.064-2.55-1.597-4.085-1.597c-1.594,0-2.992,0.587-4.194,1.761c-1.203,1.174-1.804,2.67-1.804,4.485
			c0,2.004,0.587,3.554,1.76,4.65C370.54,29.191,371.952,29.738,373.604,29.738z M354.873,100.609c0,2.035,0.928,3.585,2.781,4.65
			c1.854,1.064,4.577,1.597,8.17,1.597c6.403,0,10.589-2.724,12.56-8.172c0.348-0.877,0.615-2.294,0.804-4.25
			c0.188-1.957,0.282-4.485,0.282-7.585v-43.49c0-2.567-0.543-4.485-1.63-5.753c-1.086-1.268-2.499-1.902-4.237-1.902
			c-1.797,0-3.245,0.642-4.346,1.926c-1.101,1.284-1.651,3.194-1.651,5.73v43.208c0,3.475-0.268,5.886-0.804,7.233
			c-0.536,1.346-1.601,2.02-3.194,2.02c-0.29,0-0.819-0.032-1.586-0.094c-0.767-0.063-1.347-0.117-1.738-0.164
			c-0.391-0.047-0.674-0.07-0.847-0.07c-1.361,0-2.462,0.477-3.303,1.432C355.293,97.877,354.873,99.106,354.873,100.609z
			 M399.375,29.503h23.251c-3.651,5.01-6.801,10.043-9.452,15.099c-2.651,5.057-4.861,9.988-6.628,14.794
			c-1.768,4.807-3.042,8.932-3.824,12.375c-0.782,3.445-1.173,6.169-1.173,8.172c0,2.599,0.536,4.564,1.608,5.894
			c1.072,1.33,2.491,1.996,4.259,1.996c1.854,0,3.339-0.619,4.455-1.855c1.115-1.237,1.977-3.452,2.586-6.646
			c0.261-1.377,0.565-3.365,0.913-5.965c0.348-2.599,0.666-4.712,0.956-6.34c0.289-1.628,0.782-3.679,1.478-6.152
			c1.651-5.604,3.469-10.348,5.454-14.23c1.984-3.882,3.911-7.131,5.78-9.745c1.869-2.614,3.534-5.002,4.998-7.162
			c1.463-2.16,2.195-3.898,2.195-5.213c0-2.16-0.623-3.71-1.869-4.65c-1.246-0.939-3.259-1.409-6.041-1.409h-28.944
			c-2.289,0-4.071,0.313-5.345,0.939c-1.275,0.627-1.912,2.02-1.912,4.18c0,2.036,0.601,3.53,1.804,4.485
			C395.123,29.026,396.941,29.503,399.375,29.503z"/>
	</g>
</g>
</svg>
