<?xml version="1.0" encoding="iso-8859-1"?>
<!-- Generator: Adobe Illustrator 21.0.2, SVG Export Plug-In . SVG Version: 6.00 Build 0)  -->
<svg version="1.1" id="A7_1_" xmlns="http://www.w3.org/2000/svg" xmlns:xlink="http://www.w3.org/1999/xlink" x="0px" y="0px"
	 viewBox="0 0 533 700" style="enable-background:new 0 0 533 700;" xml:space="preserve">
<g id="A7">
	<g>
		<path style="fill-rule:evenodd;clip-rule:evenodd;" d="M97,114.5v4.5v15v96v8v103v8v105v8v103v8v101h10V573h101v101h10V573h101
			v101h10V573h101v101h10V573v-8V462v-8V349v-8V238v-8v-96v-15v-4.5H97z M208,565H107V462h101V565z M208,454H107V349h101V454z
			 M208,341H107V238h101V341z M208,137.716c-20.891,2.947-36.965,20.899-36.965,42.616c0,21.718,16.074,39.67,36.965,42.616V230H107
			v-96h101V137.716z M319,565H218V462h101V565z M319,454H218V349h101V454z M319,341H218V238h101V341z M319,230H218v-6.806
			c21.91-1.994,39.077-20.417,39.077-42.862c0-22.444-17.167-40.868-39.077-42.862V134h101V230z M430,565H329V462h101V565z M430,454
			H329V349h101V454z M430,341H329V238h101V341z M430,230H329v-96h101V230z M221.128,87.834c1.912,0,3.288-0.603,4.129-1.808
			c0.84-1.205,1.854-3.53,3.042-6.974l3.042-8.829h25.902l3.042,8.642c0.405,1.065,0.891,2.294,1.456,3.687
			c0.565,1.394,1.093,2.427,1.586,3.1c0.492,0.674,1.101,1.205,1.825,1.597c0.724,0.391,1.593,0.587,2.608,0.587
			c1.738,0,3.223-0.666,4.455-1.996c1.231-1.33,1.847-2.794,1.847-4.391c0-1.534-0.652-3.992-1.956-7.374l-16.645-44.429
			c-0.782-2.223-1.427-3.999-1.934-5.331c-0.507-1.33-1.13-2.575-1.869-3.734c-0.739-1.158-1.71-2.105-2.912-2.841
			c-1.203-0.735-2.702-1.104-4.498-1.104c-1.768,0-3.253,0.368-4.455,1.104c-1.203,0.736-2.173,1.699-2.912,2.888
			c-0.739,1.19-1.434,2.685-2.086,4.485c-0.652,1.801-1.21,3.343-1.673,4.626l-16.297,44.711c-0.667,1.785-1.145,3.178-1.434,4.18
			c-0.29,1.002-0.435,1.973-0.435,2.912c0,1.628,0.623,3.084,1.869,4.368C218.071,87.192,219.505,87.834,221.128,87.834z
			 M244.162,31.335l9.604,28.414h-19.035L244.162,31.335z M290.446,29.503h23.251c-3.651,5.01-6.801,10.043-9.452,15.099
			c-2.651,5.057-4.861,9.988-6.628,14.794c-1.768,4.807-3.042,8.932-3.824,12.375c-0.782,3.445-1.173,6.169-1.173,8.172
			c0,2.599,0.536,4.564,1.608,5.894c1.071,1.33,2.491,1.996,4.259,1.996c1.854,0,3.339-0.619,4.455-1.855
			c1.115-1.237,1.977-3.452,2.586-6.646c0.261-1.377,0.565-3.365,0.913-5.965c0.348-2.599,0.666-4.712,0.956-6.34
			c0.289-1.628,0.782-3.679,1.478-6.152c1.651-5.604,3.469-10.348,5.454-14.23c1.984-3.882,3.911-7.131,5.78-9.745
			c1.869-2.614,3.534-5.002,4.998-7.162c1.463-2.16,2.195-3.898,2.195-5.213c0-2.16-0.623-3.71-1.869-4.65
			c-1.246-0.939-3.259-1.409-6.041-1.409h-28.944c-2.289,0-4.071,0.313-5.346,0.939c-1.275,0.627-1.912,2.02-1.912,4.18
			c0,2.036,0.601,3.53,1.804,4.485C286.193,29.026,288.012,29.503,290.446,29.503z"/>
	</g>
</g>
</svg>
