<?xml version="1.0" encoding="iso-8859-1"?>
<!-- Generator: Adobe Illustrator 21.0.2, SVG Export Plug-In . SVG Version: 6.00 Build 0)  -->
<svg version="1.1" id="Ab_1_" xmlns="http://www.w3.org/2000/svg" xmlns:xlink="http://www.w3.org/1999/xlink" x="0px" y="0px"
	 viewBox="0 0 533 700" style="enable-background:new 0 0 533 700;" xml:space="preserve">
<g id="Ab">
	<g>
		<path style="fill-rule:evenodd;clip-rule:evenodd;" d="M440,245.575V238v-8v-96v-15v-4.5H97v4.5v15v96v8v103v8v105v8v7.589
			c-21.376,2.506-37.965,20.681-37.965,42.743c0,22.063,16.589,40.238,37.965,42.744V565v8v101h10V573h101v101h10V573h101v101h10
			V573h101v101h10V573v-8V462v-8V349v-8v-9.91c21.43-2.455,38.077-20.656,38.077-42.758C478.077,266.231,461.43,248.03,440,245.575z
			 M208,565H107v-9.91c21.43-2.455,38.077-20.656,38.077-42.758c0-22.101-16.647-40.302-38.077-42.758V462h101V565z M208,454H107
			V349h101V454z M208,245.586c-21.376,2.505-37.965,20.683-37.965,42.746c0,22.063,16.589,40.241,37.965,42.746V341H107V238h101
			V245.586z M208,230H107v-96h101V230z M319,565H218V462h101V565z M319,358.589c-21.376,2.506-37.965,20.681-37.965,42.743
			c0,22.063,16.589,40.238,37.965,42.744V454H218V349h101V358.589z M319,341H218v-9.619c14.461,0,57.214,0,101,0V341z M319,245.283
			c-43.784,0-86.535,0-101,0V238h101V245.283z M319,230H218v-96h101V230z M430,565H329V462h101V565z M430,454H329v-9.91
			c21.43-2.455,38.077-20.656,38.077-42.758c0-22.101-16.647-40.302-38.077-42.758V349h101V454z M430,341H329v-9.618
			c43.858,0,86.656,0,101,0V341z M430,245.283c-14.344,0-57.141,0-101,0V238h101V245.283z M430,230H329v-96h101V230z
			 M219.759,87.834c1.912,0,3.288-0.603,4.129-1.808c0.84-1.205,1.854-3.53,3.042-6.974l3.042-8.829h25.902l3.042,8.642
			c0.405,1.065,0.891,2.294,1.456,3.687c0.565,1.394,1.093,2.427,1.586,3.1c0.492,0.674,1.101,1.205,1.825,1.597
			c0.724,0.391,1.593,0.587,2.608,0.587c1.738,0,3.223-0.666,4.455-1.996c1.231-1.33,1.847-2.794,1.847-4.391
			c0-1.534-0.652-3.992-1.956-7.374l-16.645-44.429c-0.782-2.223-1.427-3.999-1.934-5.331c-0.507-1.33-1.13-2.575-1.869-3.734
			c-0.739-1.158-1.71-2.105-2.912-2.841c-1.203-0.735-2.702-1.104-4.498-1.104c-1.768,0-3.253,0.368-4.455,1.104
			c-1.203,0.736-2.173,1.699-2.912,2.888c-0.739,1.19-1.434,2.685-2.086,4.485c-0.652,1.801-1.21,3.343-1.673,4.626l-16.297,44.711
			c-0.667,1.785-1.145,3.178-1.434,4.18c-0.29,1.002-0.435,1.973-0.435,2.912c0,1.628,0.623,3.084,1.869,4.368
			C216.702,87.192,218.136,87.834,219.759,87.834z M242.793,31.335l9.604,28.414h-19.035L242.793,31.335z M286.599,87.834
			c1.651,0,3.013-0.619,4.085-1.855c1.072-1.237,1.608-3.06,1.608-5.471V79.24c1.304,1.628,2.354,2.849,3.151,3.663
			c0.797,0.815,1.76,1.605,2.89,2.372c1.13,0.768,2.499,1.385,4.107,1.855c1.608,0.47,3.325,0.705,5.15,0.705
			c2.984,0,5.715-0.65,8.192-1.949c2.477-1.299,4.585-3.139,6.323-5.518c1.738-2.379,3.064-5.19,3.977-8.43
			c0.913-3.241,1.369-6.802,1.369-10.685c0-5.26-0.819-9.808-2.455-13.643c-1.637-3.835-3.941-6.763-6.91-8.782
			c-2.97-2.02-6.425-3.029-10.365-3.029c-3.419,0-6.287,0.666-8.605,1.996c-2.318,1.331-4.592,3.249-6.823,5.753V23.961
			c0-2.348-0.493-4.156-1.478-5.424c-0.985-1.268-2.39-1.902-4.216-1.902c-1.738,0-3.093,0.666-4.063,1.996
			c-0.971,1.331-1.456,3.296-1.456,5.894v55.983c0,2.411,0.5,4.235,1.499,5.471C283.579,87.216,284.919,87.834,286.599,87.834z
			 M294.379,53.056c1.014-2.52,2.405-4.446,4.172-5.777c1.767-1.33,3.781-1.996,6.041-1.996c2.201,0,4.129,0.666,5.78,1.996
			c1.651,1.331,2.926,3.217,3.824,5.659c0.898,2.442,1.347,5.354,1.347,8.736c0,5.229-1.08,9.245-3.238,12.047
			c-2.159,2.802-4.73,4.203-7.714,4.203c-3.506,0-6.338-1.369-8.496-4.109c-2.159-2.739-3.238-6.661-3.238-11.765
			C292.858,58.575,293.364,55.577,294.379,53.056z"/>
	</g>
</g>
</svg>
