<?xml version="1.0" encoding="iso-8859-1"?>
<!-- Generator: Adobe Illustrator 21.0.2, SVG Export Plug-In . SVG Version: 6.00 Build 0)  -->
<svg version="1.1" id="Csus2_1_" xmlns="http://www.w3.org/2000/svg" xmlns:xlink="http://www.w3.org/1999/xlink" x="0px" y="0px"
	 viewBox="0 0 533 700" style="enable-background:new 0 0 533 700;" xml:space="preserve">
<g id="Csus2">
	<g>
		<path style="fill-rule:evenodd;clip-rule:evenodd;" d="M440,358.575V349v-8V238v-8v-96v-15v-4.5H97v4.5v15v96v8v103v8v105v8v103v8
			v101h10V573h101v101h10V573h101v101h10V573h101v101h10V573v-8V462v-8v-9.91c21.43-2.455,38.077-20.656,38.077-42.758
			C478.077,379.231,461.43,361.03,440,358.575z M208,565H107V462h101V565z M208,454H107V349h101V454z M208,245.716
			c-20.891,2.947-36.965,20.899-36.965,42.616c0,21.718,16.074,39.67,36.965,42.616V341H107V238h101V245.716z M208,230H107v-96h101
			V230z M319,565H218V462h101V565z M319,358.589c-21.376,2.506-37.965,20.681-37.965,42.743c0,22.063,16.589,40.238,37.965,42.744
			V454H218V349h101V358.589z M319,341H218v-9.806c21.91-1.994,39.077-20.417,39.077-42.862c0-22.444-17.167-40.868-39.077-42.862
			V238h101V341z M319,230H218v-96h101V230z M430,565H329V462h101V565z M430,358.589c-21.376,2.506-37.965,20.681-37.965,42.743
			c0,22.063,16.589,40.238,37.965,42.744V454H329v-9.91c21.43-2.455,38.077-20.656,38.077-42.758
			c0-22.101-16.647-40.302-38.077-42.758V349h101V358.589z M430,341H329V238h101V341z M430,230H329v-96h101V230z M144.51,70.574
			c1.188,2.677,2.622,5.096,4.302,7.256c1.883,2.38,3.947,4.297,6.193,5.753c2.245,1.456,4.744,2.529,7.497,3.217
			c2.752,0.688,5.809,1.033,9.17,1.033c4.433,0,8.315-0.768,11.647-2.301c3.331-1.534,6.069-3.53,8.214-5.988
			c2.144-2.458,3.716-4.962,4.715-7.514c1-2.552,1.499-4.923,1.499-7.115c0-1.722-0.551-3.162-1.651-4.321
			c-1.101-1.158-2.419-1.738-3.955-1.738c-1.797,0-3.101,0.572-3.911,1.714c-0.811,1.143-1.493,2.623-2.043,4.438
			c-1.304,3.851-3.238,6.771-5.802,8.759c-2.564,1.989-5.701,2.982-9.409,2.982c-3.419,0-6.403-0.876-8.953-2.63
			c-2.55-1.753-4.52-4.407-5.91-7.961c-1.391-3.553-2.086-8.008-2.086-13.362c0-8.015,1.571-14.199,4.715-18.551
			c3.143-4.352,7.366-6.528,12.668-6.528c3.331,0,6.135,0.845,8.409,2.536c2.274,1.691,4.252,4.243,5.932,7.655
			c1.014,2.066,1.934,3.522,2.76,4.368c0.826,0.845,2.064,1.268,3.716,1.268c1.478,0,2.738-0.611,3.781-1.832
			s1.565-2.63,1.565-4.227c0-2.912-1.072-6.003-3.216-9.276c-2.144-3.271-5.23-6.019-9.257-8.242
			c-4.027-2.223-8.62-3.335-13.777-3.335c-4.23,0-8.214,0.815-11.951,2.442c-3.737,1.628-6.997,4-9.778,7.115
			c-2.781,3.116-4.918,6.865-6.41,11.248c-1.493,4.384-2.238,9.346-2.238,14.888c0,3.413,0.297,6.638,0.891,9.675
			C142.43,65.041,143.321,67.897,144.51,70.574z M232.884,77.807c-1.521,1.143-3.47,1.714-5.845,1.714
			c-2.927,0-5.237-0.564-6.932-1.691c-1.695-1.127-3.151-2.833-4.368-5.119c-0.608-1.19-1.246-2.113-1.912-2.771
			c-0.667-0.657-1.623-0.986-2.868-0.986c-1.42,0-2.593,0.501-3.52,1.503c-0.928,1.002-1.391,2.207-1.391,3.616
			c0,2.13,0.724,4.25,2.173,6.364c1.448,2.113,3.694,3.875,6.736,5.284s6.693,2.113,10.952,2.113c4.461,0,8.25-0.65,11.365-1.949
			c3.114-1.299,5.468-3.209,7.062-5.73c1.593-2.52,2.39-5.549,2.39-9.088c0-2.348-0.602-4.438-1.804-6.27
			c-1.203-1.832-2.97-3.42-5.302-4.767c-2.333-1.346-5.339-2.505-9.018-3.475c-3.101-0.814-5.534-1.503-7.301-2.066
			c-1.768-0.564-3.172-1.275-4.216-2.137c-1.043-0.861-1.565-1.965-1.565-3.311c0-1.471,0.71-2.701,2.13-3.687
			c1.419-0.986,3.201-1.479,5.345-1.479c2.086,0,3.737,0.376,4.954,1.127c1.217,0.751,2.274,1.754,3.173,3.006
			c1.101,1.503,2.079,2.63,2.933,3.381c0.854,0.751,1.891,1.127,3.107,1.127c1.68,0,2.977-0.47,3.89-1.409
			c0.913-0.939,1.369-2.144,1.369-3.616c0-1.346-0.428-2.724-1.282-4.133c-0.855-1.409-2.101-2.692-3.737-3.851
			c-1.637-1.158-3.68-2.082-6.128-2.771c-2.449-0.688-5.208-1.033-8.279-1.033c-3.911,0-7.251,0.681-10.017,2.043
			c-2.767,1.362-4.861,3.186-6.28,5.471c-1.42,2.286-2.129,4.713-2.129,7.28c0,2.881,0.767,5.307,2.303,7.28
			c1.535,1.973,3.585,3.562,6.149,4.767c2.564,1.206,5.889,2.356,9.974,3.452c3.621,0.939,6.221,1.926,7.801,2.959
			c1.579,1.033,2.369,2.677,2.369,4.931C235.165,75.358,234.405,76.664,232.884,77.807z M263.914,85.815
			c2.274,1.284,4.846,1.926,7.714,1.926c2.375,0,4.491-0.321,6.345-0.963c1.854-0.641,3.564-1.62,5.128-2.935
			c1.565-1.315,3.056-2.943,4.476-4.884v1.644c0,2.286,0.528,4.062,1.586,5.331c1.057,1.268,2.397,1.902,4.02,1.902
			c1.622,0,2.948-0.611,3.977-1.832c1.028-1.221,1.543-3.053,1.543-5.495v-37.15c0-2.567-0.536-4.485-1.608-5.753
			c-1.072-1.268-2.492-1.902-4.259-1.902c-1.768,0-3.202,0.642-4.302,1.926c-1.101,1.284-1.651,3.194-1.651,5.73v15.593
			c0,6.137-0.333,10.114-1,11.929c-0.811,2.066-2.101,3.742-3.868,5.025c-1.768,1.284-3.651,1.926-5.65,1.926
			c-2.057,0-3.687-0.571-4.889-1.714c-1.203-1.143-2.036-2.724-2.499-4.743c-0.464-2.02-0.695-4.516-0.695-7.491V43.358
			c0-2.536-0.551-4.445-1.651-5.73c-1.101-1.283-2.55-1.926-4.346-1.926c-1.768,0-3.187,0.634-4.259,1.902
			c-1.072,1.268-1.608,3.186-1.608,5.753v25.408c0,5.104,0.739,9.017,2.216,11.741C259.879,82.762,261.639,84.531,263.914,85.815z
			 M334.882,77.807c-1.521,1.143-3.47,1.714-5.845,1.714c-2.927,0-5.237-0.564-6.932-1.691c-1.695-1.127-3.151-2.833-4.368-5.119
			c-0.608-1.19-1.246-2.113-1.912-2.771c-0.667-0.657-1.623-0.986-2.868-0.986c-1.42,0-2.593,0.501-3.52,1.503
			c-0.928,1.002-1.391,2.207-1.391,3.616c0,2.13,0.724,4.25,2.173,6.364c1.448,2.113,3.694,3.875,6.736,5.284
			c3.042,1.409,6.693,2.113,10.952,2.113c4.461,0,8.25-0.65,11.365-1.949c3.114-1.299,5.468-3.209,7.062-5.73
			c1.593-2.52,2.39-5.549,2.39-9.088c0-2.348-0.602-4.438-1.804-6.27c-1.203-1.832-2.97-3.42-5.302-4.767
			c-2.333-1.346-5.339-2.505-9.018-3.475c-3.101-0.814-5.534-1.503-7.301-2.066c-1.768-0.564-3.172-1.275-4.216-2.137
			c-1.043-0.861-1.565-1.965-1.565-3.311c0-1.471,0.71-2.701,2.13-3.687c1.419-0.986,3.201-1.479,5.346-1.479
			c2.086,0,3.737,0.376,4.954,1.127c1.217,0.751,2.274,1.754,3.173,3.006c1.101,1.503,2.079,2.63,2.933,3.381
			c0.854,0.751,1.891,1.127,3.107,1.127c1.68,0,2.977-0.47,3.89-1.409c0.913-0.939,1.369-2.144,1.369-3.616
			c0-1.346-0.428-2.724-1.282-4.133c-0.855-1.409-2.101-2.692-3.737-3.851c-1.637-1.158-3.68-2.082-6.128-2.771
			c-2.449-0.688-5.208-1.033-8.279-1.033c-3.911,0-7.251,0.681-10.017,2.043c-2.767,1.362-4.861,3.186-6.28,5.471
			c-1.42,2.286-2.129,4.713-2.129,7.28c0,2.881,0.767,5.307,2.303,7.28c1.535,1.973,3.585,3.562,6.149,4.767
			c2.564,1.206,5.889,2.356,9.974,3.452c3.621,0.939,6.221,1.926,7.801,2.959c1.579,1.033,2.369,2.677,2.369,4.931
			C337.164,75.358,336.403,76.664,334.882,77.807z M384.295,48.595c-1.579,1.832-3.557,3.656-5.932,5.471
			c-1.333,0.971-3.549,2.998-6.649,6.082c-3.101,3.084-6.577,6.786-10.43,11.107c-0.928,1.065-1.782,2.529-2.564,4.391
			c-0.782,1.863-1.173,3.358-1.173,4.485c0,1.754,0.608,3.28,1.825,4.579c1.217,1.3,2.912,1.949,5.085,1.949h31.986
			c1.912,0,3.339-0.532,4.281-1.597c0.941-1.064,1.412-2.364,1.412-3.898c0-1.722-0.594-3.084-1.782-4.086
			c-1.188-1.002-2.912-1.503-5.172-1.503h-22.686c0.724-1.19,1.434-2.207,2.13-3.053c1.622-2.129,4.613-5.119,8.974-8.97
			c4.36-3.851,7.467-6.676,9.322-8.477c1.854-1.8,3.672-4.289,5.454-7.468c1.782-3.177,2.673-6.708,2.673-10.591
			c0-2.473-0.428-4.861-1.282-7.162c-0.855-2.301-2.05-4.328-3.585-6.082c-1.536-1.753-3.318-3.13-5.345-4.133
			c-3.129-1.503-6.91-2.254-11.343-2.254c-3.68,0-6.888,0.587-9.626,1.761c-2.738,1.174-4.998,2.717-6.78,4.626
			c-1.782,1.91-3.122,4.039-4.02,6.387c-0.898,2.348-1.347,4.603-1.347,6.763c0,1.785,0.478,3.194,1.434,4.227
			c0.956,1.033,2.158,1.55,3.607,1.55c1.651,0,2.904-0.564,3.759-1.691c0.854-1.127,1.622-2.739,2.303-4.837
			c0.68-2.097,1.166-3.381,1.456-3.851c2.173-3.6,5.157-5.401,8.953-5.401c1.796,0,3.455,0.439,4.976,1.315
			c1.521,0.877,2.723,2.106,3.607,3.687c0.883,1.581,1.326,3.374,1.326,5.378c0,1.848-0.413,3.734-1.239,5.659
			C387.077,44.884,385.874,46.763,384.295,48.595z"/>
	</g>
</g>
</svg>
