<?xml version="1.0" encoding="iso-8859-1"?>
<!-- Generator: Adobe Illustrator 21.0.2, SVG Export Plug-In . SVG Version: 6.00 Build 0)  -->
<svg version="1.1" id="D_1_" xmlns="http://www.w3.org/2000/svg" xmlns:xlink="http://www.w3.org/1999/xlink" x="0px" y="0px"
	 viewBox="0 0 533 700" style="enable-background:new 0 0 533 700;" xml:space="preserve">
<g id="D">
	<g>
		<path style="fill-rule:evenodd;clip-rule:evenodd;" d="M247.986,85.509c1.188,0.768,2.955,1.151,5.302,1.151h16.819
			c2.926,0,5.555-0.203,7.888-0.611c2.332-0.406,4.512-1.111,6.541-2.113c2.028-1.002,3.896-2.332,5.606-3.992
			c2.173-2.16,3.955-4.61,5.346-7.35c1.391-2.739,2.419-5.816,3.086-9.229c0.666-3.412,1-7.186,1-11.319
			c0-12.524-3.318-21.854-9.952-27.991c-2.55-2.411-5.389-4.054-8.518-4.931c-3.129-0.876-6.881-1.315-11.256-1.315h-16.819
			c-2.781,0-4.795,0.674-6.041,2.02c-1.246,1.347-1.869,3.522-1.869,6.528v50.488c0,2.224,0.181,4.032,0.543,5.425
			C246.023,83.662,246.798,84.742,247.986,85.509z M258.025,28.846h8.518c3.94,0,7.301,0.462,10.083,1.385
			c2.781,0.924,5.121,3.076,7.019,6.458c1.897,3.381,2.847,8.47,2.847,15.264c0,9.644-2.159,16.438-6.475,20.383
			c-0.956,0.909-2.086,1.613-3.39,2.113c-1.304,0.501-2.564,0.815-3.781,0.939c-1.217,0.125-2.898,0.188-5.041,0.188h-9.778V28.846z
			 M97,114.5v4.5v15v96v8v5.589c-21.376,2.506-37.965,20.681-37.965,42.743c0,22.063,16.589,40.238,37.965,42.744V341v8v105v8v103v8
			v101h10V573h101v101h10V573h101v101h10V573h101v101h10V573v-8V462v-8V349v-8V238v-8v-96v-15v-4.5H97z M208,565H107V462h101V565z
			 M208,454H107V349h101V454z M208,243.716c-20.891,2.947-36.965,20.899-36.965,42.616c0,21.718,16.074,39.67,36.965,42.616V341H107
			v-11.91c21.43-2.455,38.077-20.656,38.077-42.758c0-22.101-16.647-40.302-38.077-42.758V238h101V243.716z M208,230H107v-96h101
			V230z M319,565H218V462h101V565z M319,454H218V349h101V454z M319,243.589c-21.376,2.506-37.965,20.681-37.965,42.743
			c0,22.063,16.589,40.238,37.965,42.744V341H218v-11.806c21.91-1.994,39.077-20.417,39.077-42.862
			c0-22.444-17.167-40.868-39.077-42.862V238h101V243.589z M319,230H218v-96h101V230z M430,565H329V462h101V565z M430,454H329V349
			h101V454z M430,341H329v-11.91c21.43-2.455,38.077-20.656,38.077-42.758c0-22.101-16.647-40.302-38.077-42.758V238h101V341z
			 M430,230H329v-96h101V230z"/>
	</g>
</g>
</svg>
