<?xml version="1.0" encoding="iso-8859-1"?>
<!-- Generator: Adobe Illustrator 21.0.2, SVG Export Plug-In . SVG Version: 6.00 Build 0)  -->
<svg version="1.1" id="Eaug_1_" xmlns="http://www.w3.org/2000/svg" xmlns:xlink="http://www.w3.org/1999/xlink" x="0px" y="0px"
	 viewBox="0 0 533 700" style="enable-background:new 0 0 533 700;" xml:space="preserve">
<g id="Eaug">
	<g>
		<path style="fill-rule:evenodd;clip-rule:evenodd;" d="M440,357.575V349v-8V238v-8v-96v-15v-4.5H97v4.5v15v5.589
			c-21.376,2.506-37.965,20.681-37.965,42.743c0,22.063,16.589,40.238,37.965,42.744V230v8v103v8v105v8v103v8v101h10V573h101v101h10
			V573h101v101h10V573h101v101h10V573v-8V462v-8v-10.91c21.43-2.455,38.077-20.656,38.077-42.758
			C478.077,378.231,461.43,360.03,440,357.575z M208,565H107V462h101V565z M208,454H107V349h101V454z M208,341H107V238h101V341z
			 M208,230H107v-4.91c21.43-2.455,38.077-20.656,38.077-42.758c0-22.101-16.647-40.302-38.077-42.758V134h101V230z M319,565H218
			V462h101V565z M319,454H218V349h101V454z M319,341H218V238h101V341z M319,230H218v-96h101V230z M430,565H329V462h101V565z
			 M430,357.589c-21.376,2.506-37.965,20.681-37.965,42.743c0,22.063,16.589,40.238,37.965,42.744V454H329V349h101V357.589z
			 M430,341H329V238h101V341z M430,230H329v-96h101V230z M175.061,86.66h35.072c2.028,0,3.556-0.509,4.585-1.526
			c1.028-1.017,1.543-2.34,1.543-3.969c0-1.691-0.515-3.045-1.543-4.063c-1.029-1.017-2.557-1.526-4.585-1.526h-30.074V55.992
			h26.771c1.999,0,3.477-0.493,4.433-1.479c0.956-0.986,1.434-2.262,1.434-3.828c0-1.565-0.486-2.825-1.456-3.781
			c-0.971-0.955-2.441-1.432-4.411-1.432h-26.771V28.564h29.074c2.057,0,3.585-0.493,4.585-1.479c1-0.986,1.499-2.293,1.499-3.922
			c0-1.597-0.5-2.888-1.499-3.875c-1-0.986-2.528-1.479-4.585-1.479h-34.072c-1.825,0-3.325,0.29-4.498,0.869
			c-1.173,0.58-2.036,1.503-2.586,2.771c-0.551,1.268-0.826,2.904-0.826,4.908v51.756c0,3.006,0.615,5.182,1.847,6.528
			C170.229,85.987,172.25,86.66,175.061,86.66z M240.293,58.152c-2.984,0.658-4.853,1.08-5.606,1.268
			c-3.593,0.845-6.418,2.505-8.475,4.978c-2.057,2.474-3.086,5.464-3.086,8.97c0,2.599,0.623,5.01,1.869,7.233
			c1.245,2.224,3.02,3.985,5.324,5.284c2.303,1.299,4.976,1.949,8.018,1.949c3.331,0,6.338-0.603,9.018-1.808
			c2.68-1.205,5.454-3.013,8.322-5.424c1.332,2.348,2.593,4.141,3.781,5.378c1.188,1.237,2.39,1.855,3.607,1.855
			c1.448,0,2.745-0.54,3.89-1.62c1.144-1.08,1.717-2.278,1.717-3.593c0-0.751-0.369-2.434-1.108-5.049
			c-0.739-2.614-1.108-5.127-1.108-7.538c0.029-2.567,0.05-4.9,0.065-6.998c0.014-2.097,0.022-4.65,0.022-7.655
			c0-4.759-0.616-8.578-1.847-11.46c-1.232-2.88-3.34-4.986-6.323-6.317c-2.984-1.33-7.084-1.996-12.299-1.996
			c-4.665,0-8.561,0.689-11.69,2.066c-3.129,1.378-5.432,3.131-6.91,5.26c-1.478,2.13-2.216,4.321-2.216,6.575
			c0,1.44,0.485,2.623,1.456,3.546c0.97,0.924,2.122,1.385,3.455,1.385c1.478,0,2.44-0.289,2.89-0.869
			c0.449-0.579,1.217-1.777,2.303-3.593c1.086-1.815,2.39-3.177,3.911-4.086c1.521-0.908,3.788-1.362,6.801-1.362
			c3.505,0,5.816,0.791,6.932,2.372c1.115,1.581,1.745,4.062,1.89,7.444c-2.492,0.783-4.802,1.449-6.932,1.996
			C245.834,56.892,243.276,57.495,240.293,58.152z M254.895,63.882c0,4.446-0.536,7.64-1.608,9.581
			c-0.928,1.754-2.383,3.186-4.368,4.297c-1.985,1.112-4.15,1.667-6.497,1.667c-2.202,0-3.984-0.681-5.345-2.043
			c-1.362-1.362-2.043-3.013-2.043-4.955c0-1.879,0.579-3.342,1.738-4.391c1.158-1.049,2.375-1.753,3.651-2.113
			c1.275-0.36,3.57-0.923,6.888-1.691c3.317-0.767,5.845-1.495,7.584-2.184V63.882z M285.729,85.815
			c2.274,1.284,4.846,1.926,7.714,1.926c2.375,0,4.491-0.321,6.345-0.963c1.854-0.641,3.564-1.62,5.128-2.935
			c1.565-1.315,3.056-2.943,4.476-4.884v1.644c0,2.286,0.528,4.062,1.586,5.331c1.057,1.268,2.397,1.902,4.02,1.902
			c1.622,0,2.948-0.611,3.977-1.832c1.028-1.221,1.543-3.053,1.543-5.495v-37.15c0-2.567-0.536-4.485-1.608-5.753
			c-1.072-1.268-2.492-1.902-4.259-1.902c-1.768,0-3.202,0.642-4.302,1.926c-1.101,1.284-1.651,3.194-1.651,5.73v15.593
			c0,6.137-0.333,10.114-1,11.929c-0.811,2.066-2.101,3.742-3.868,5.025c-1.768,1.284-3.651,1.926-5.65,1.926
			c-2.057,0-3.687-0.571-4.889-1.714c-1.203-1.143-2.036-2.724-2.499-4.743c-0.464-2.02-0.695-4.516-0.695-7.491V43.358
			c0-2.536-0.551-4.445-1.651-5.73c-1.101-1.283-2.55-1.926-4.346-1.926c-1.768,0-3.188,0.634-4.259,1.902
			c-1.072,1.268-1.608,3.186-1.608,5.753v25.408c0,5.104,0.739,9.017,2.216,11.741C281.694,82.762,283.454,84.531,285.729,85.815z
			 M338.923,83.372c2.969,2.192,6.439,3.288,10.409,3.288c3.303,0,6.149-0.72,8.54-2.16c2.39-1.44,4.498-3.538,6.323-6.293
			c-0.058,4.196-0.145,7.241-0.261,9.135c-0.116,1.894-0.515,3.671-1.195,5.331c-0.681,1.659-1.869,2.951-3.564,3.875
			c-1.695,0.923-4.078,1.385-7.149,1.385c-1.507,0-2.84-0.149-3.998-0.446c-1.159-0.298-2.151-0.751-2.977-1.362
			c-0.826-0.611-1.58-1.347-2.26-2.207c-0.681-0.862-1.34-1.714-1.977-2.56c-1.304-1.66-2.825-2.489-4.563-2.489
			c-1.391,0-2.579,0.493-3.564,1.479c-0.985,0.986-1.478,2.262-1.478,3.828c0,2.067,0.869,4.078,2.608,6.035
			c1.738,1.956,4.216,3.553,7.431,4.79c3.216,1.237,6.867,1.855,10.952,1.855c4.461,0,8.192-0.486,11.191-1.456
			c2.999-0.971,5.425-2.458,7.279-4.462c1.854-2.004,3.201-4.54,4.042-7.608c0.84-3.069,1.26-6.731,1.26-10.99V45.096
			c0-3.037-0.377-5.361-1.13-6.974c-0.754-1.612-2.275-2.419-4.563-2.419c-1.594,0-2.897,0.611-3.911,1.832
			c-1.014,1.221-1.521,2.943-1.521,5.166v1.738c-2.115-2.974-4.404-5.158-6.867-6.552c-2.463-1.393-5.375-2.09-8.735-2.09
			c-2.811,0-5.389,0.54-7.736,1.62c-2.347,1.08-4.419,2.685-6.215,4.814c-1.797,2.13-3.18,4.743-4.15,7.843
			c-0.971,3.1-1.456,6.575-1.456,10.426c0,5.166,0.797,9.722,2.39,13.667C333.671,78.112,335.953,81.181,338.923,83.372z
			 M344.66,49.464c2.043-2.786,4.759-4.18,8.149-4.18c3.477,0,6.28,1.456,8.409,4.368c2.13,2.912,3.194,6.982,3.194,12.211
			c0,3.288-0.551,6.082-1.651,8.383c-1.101,2.301-2.528,4.024-4.281,5.166c-1.753,1.143-3.615,1.714-5.584,1.714
			c-3.332,0-6.048-1.33-8.149-3.992c-2.101-2.661-3.151-6.591-3.151-11.788C341.596,56.211,342.617,52.251,344.66,49.464z"/>
	</g>
</g>
</svg>
