<?xml version="1.0" encoding="iso-8859-1"?>
<!-- Generator: Adobe Illustrator 21.0.2, SVG Export Plug-In . SVG Version: 6.00 Build 0)  -->
<svg version="1.1" id="Edim_1_" xmlns="http://www.w3.org/2000/svg" xmlns:xlink="http://www.w3.org/1999/xlink" x="0px" y="0px"
	 viewBox="0 0 533 700" style="enable-background:new 0 0 533 700;" xml:space="preserve">
<g id="Edim">
	<g>
		<path style="fill-rule:evenodd;clip-rule:evenodd;" d="M440,139.575V134v-15v-4.5H97v4.5v15v96v8v103v8v105v8v103v8v101h10V573
			h101v101h10V573h101v101h10V573h101v101h10V573v-8V462v-8V349v-8V238v-8v-4.91c21.43-2.455,38.077-20.656,38.077-42.758
			C478.077,160.231,461.43,142.03,440,139.575z M208,470.716c-20.891,2.947-36.965,20.899-36.965,42.616
			c0,21.718,16.074,39.67,36.965,42.616V565H107V462h101V470.716z M208,454H107V349h101V454z M208,341H107V238h101V341z M208,230
			H107v-96h101V230z M319,565H218v-8.806c21.91-1.994,39.077-20.417,39.077-42.862c0-22.444-17.167-40.868-39.077-42.862V462h101
			V565z M319,454H218V349h101V454z M319,341H218V238h101V341z M319,230H218v-96h101V230z M430,565H329V462h101V565z M430,454H329
			V349h101V454z M430,341H329V238h101V341z M430,139.589c-21.376,2.506-37.965,20.681-37.965,42.743
			c0,22.063,16.589,40.238,37.965,42.744V230H329v-96h101V139.589z M176.952,86.66h35.071c2.028,0,3.556-0.509,4.585-1.526
			c1.028-1.017,1.543-2.34,1.543-3.969c0-1.691-0.515-3.045-1.543-4.063c-1.029-1.017-2.557-1.526-4.585-1.526h-30.074V55.992
			h26.771c1.999,0,3.477-0.493,4.433-1.479c0.956-0.986,1.434-2.262,1.434-3.828c0-1.565-0.486-2.825-1.456-3.781
			c-0.971-0.955-2.441-1.432-4.411-1.432h-26.771V28.564h29.074c2.057,0,3.585-0.493,4.585-1.479c1-0.986,1.499-2.293,1.499-3.922
			c0-1.597-0.5-2.888-1.499-3.875c-1-0.986-2.528-1.479-4.585-1.479h-34.072c-1.825,0-3.325,0.29-4.498,0.869
			c-1.173,0.58-2.036,1.503-2.586,2.771c-0.551,1.268-0.826,2.904-0.826,4.908v51.756c0,3.006,0.615,5.182,1.847,6.528
			C172.12,85.987,174.141,86.66,176.952,86.66z M230.232,80.32c1.767,2.411,3.86,4.267,6.28,5.565
			c2.419,1.299,5.048,1.949,7.888,1.949c2.144,0,4.121-0.321,5.932-0.963c1.81-0.641,3.491-1.581,5.041-2.818
			c1.55-1.237,3.122-2.841,4.715-4.814v1.268c0,2.348,0.528,4.156,1.586,5.424c1.057,1.268,2.397,1.902,4.02,1.902
			c1.651,0,2.999-0.611,4.042-1.832c1.043-1.221,1.565-3.053,1.565-5.495V23.961c0-2.411-0.486-4.234-1.456-5.471
			c-0.971-1.237-2.354-1.855-4.15-1.855c-1.797,0-3.18,0.674-4.15,2.02c-0.971,1.347-1.456,3.335-1.456,5.965v18.927
			c-2.231-2.63-4.52-4.579-6.867-5.847c-2.347-1.268-5.23-1.902-8.648-1.902c-5.91,0-10.677,2.239-14.298,6.716
			c-3.622,4.478-5.432,10.724-5.432,18.739c0,3.789,0.456,7.311,1.369,10.567C227.125,75.076,228.465,77.909,230.232,80.32z
			 M238.164,53.009c0.941-2.489,2.267-4.399,3.977-5.73c1.709-1.33,3.651-1.996,5.824-1.996c2.086,0,4.005,0.65,5.758,1.949
			c1.753,1.3,3.143,3.178,4.172,5.636c1.028,2.458,1.543,5.394,1.543,8.806c0,3.633-0.515,6.662-1.543,9.088
			c-1.029,2.427-2.405,4.227-4.129,5.401c-1.724,1.174-3.629,1.761-5.715,1.761c-2.058,0-3.955-0.618-5.693-1.855
			c-1.738-1.236-3.107-3.076-4.107-5.518c-1-2.442-1.499-5.401-1.499-8.876C236.751,58.387,237.222,55.499,238.164,53.009z
			 M289.206,29.738c1.593,0,2.969-0.555,4.129-1.667c1.158-1.111,1.738-2.654,1.738-4.626c0-2.035-0.594-3.585-1.782-4.65
			c-1.188-1.064-2.55-1.597-4.085-1.597c-1.594,0-2.992,0.587-4.194,1.761c-1.203,1.174-1.804,2.67-1.804,4.485
			c0,2.004,0.587,3.554,1.76,4.65C286.143,29.191,287.555,29.738,289.206,29.738z M289.076,87.834c1.738,0,3.172-0.658,4.302-1.973
			c1.13-1.315,1.695-3.256,1.695-5.824V42.982c0-2.285-0.565-4.07-1.695-5.354c-1.13-1.283-2.564-1.926-4.302-1.926
			c-1.738,0-3.151,0.642-4.237,1.926c-1.086,1.284-1.63,3.194-1.63,5.73v36.68c0,2.505,0.543,4.431,1.63,5.777
			C285.925,87.161,287.338,87.834,289.076,87.834z M312.761,87.834c1.825,0,3.295-0.681,4.411-2.043
			c1.115-1.362,1.673-3.373,1.673-6.035v-17.33c0-5.385,0.615-9.518,1.847-12.399c1.231-2.88,3.788-4.321,7.671-4.321
			c1.941,0,3.361,0.572,4.259,1.714c0.898,1.143,1.448,2.607,1.651,4.391c0.202,1.785,0.304,4.29,0.304,7.514v20.43
			c0,2.693,0.557,4.713,1.673,6.059c1.115,1.346,2.571,2.02,4.368,2.02c1.854,0,3.346-0.674,4.476-2.02
			c1.13-1.346,1.695-3.365,1.695-6.059V62.708c0-5.479,0.435-9.299,1.304-11.46c0.782-1.691,1.876-3.037,3.281-4.039
			c1.405-1.002,2.89-1.503,4.455-1.503c1.941,0,3.39,0.564,4.346,1.691c0.956,1.127,1.543,2.521,1.76,4.18
			c0.217,1.66,0.326,3.867,0.326,6.622v21.557c0,2.662,0.572,4.673,1.717,6.035c1.144,1.362,2.614,2.043,4.411,2.043
			c1.854,0,3.346-0.674,4.476-2.02c1.13-1.346,1.695-3.365,1.695-6.059V54.724c0-4.978-0.507-8.625-1.521-10.943
			c-1.159-2.567-2.912-4.539-5.259-5.918c-2.347-1.377-5.143-2.066-8.388-2.066c-2.781,0-5.317,0.634-7.605,1.902
			c-2.289,1.268-4.433,3.217-6.432,5.847c-1.391-2.599-3.158-4.539-5.302-5.824c-2.144-1.284-4.709-1.926-7.692-1.926
			c-2.868,0-5.476,0.627-7.823,1.879c-2.347,1.253-4.549,3.21-6.606,5.871v-1.221c0-2.066-0.543-3.687-1.63-4.861
			c-1.086-1.174-2.441-1.761-4.063-1.761c-1.681,0-3.035,0.627-4.063,1.879c-1.029,1.253-1.543,3.084-1.543,5.495v36.68
			c0,2.662,0.572,4.673,1.717,6.035C309.494,87.153,310.964,87.834,312.761,87.834z"/>
	</g>
</g>
</svg>
