<?xml version="1.0" encoding="iso-8859-1"?>
<!-- Generator: Adobe Illustrator 21.0.2, SVG Export Plug-In . SVG Version: 6.00 Build 0)  -->
<svg version="1.1" id="Gb7sus4_1_" xmlns="http://www.w3.org/2000/svg" xmlns:xlink="http://www.w3.org/1999/xlink" x="0px" y="0px"
	 viewBox="0 0 533 700" style="enable-background:new 0 0 533 700;" xml:space="preserve">
<g id="Gb7sus4">
	<g>
		<path style="fill-rule:evenodd;clip-rule:evenodd;" d="M440,357.575V349v-8V238v-8v-96v-15v-4.5H97v4.5v15v96v8v8.589
			c-21.376,2.506-37.965,20.681-37.965,42.743c0,22.063,16.589,40.238,37.965,42.744V341v8v105v8v103v8v101h10V573h101v101h10V573
			h101v101h10V573h101v101h10V573v-8V462v-8v-10.91c21.43-2.455,38.077-20.656,38.077-42.758
			C478.077,378.231,461.43,360.03,440,357.575z M208,565H107V462h101V565z M208,454H107V349h101V454z M208,246.716
			c-20.891,2.947-36.965,20.899-36.965,42.616c0,21.718,16.074,39.67,36.965,42.616V341H107v-8.91
			c21.43-2.455,38.077-20.656,38.077-42.758c0-22.101-16.647-40.302-38.077-42.758V238h101V246.716z M208,230H107v-96h101V230z
			 M319,565H218V462h101V565z M319,357.589c-21.376,2.506-37.965,20.681-37.965,42.743c0,22.063,16.589,40.238,37.965,42.744V454
			H218V349h101V357.589z M319,341H218v-8.806c21.91-1.994,39.077-20.417,39.077-42.862c0-22.444-17.167-40.868-39.077-42.862V238
			h101V341z M319,230H218v-96h101V230z M430,565H329V462h101V565z M430,357.589c-21.376,2.506-37.965,20.681-37.965,42.743
			c0,22.063,16.589,40.238,37.965,42.744V454H329v-10.91c21.43-2.455,38.077-20.656,38.077-42.758
			c0-22.101-16.647-40.302-38.077-42.758V349h101V357.589z M430,341H329V238h101V341z M430,230H329v-96h101V230z M93.119,78.3
			c2.839,3.1,6.272,5.464,10.3,7.092c4.027,1.628,8.489,2.442,13.385,2.442c4.201,0,8.083-0.517,11.647-1.55
			c3.564-1.033,7.272-2.677,11.125-4.931c1.332-0.782,2.426-1.597,3.281-2.442c0.854-0.845,1.441-1.792,1.76-2.841
			c0.318-1.049,0.478-2.45,0.478-4.203V58.669c0-2.379-0.384-4.164-1.152-5.354c-0.768-1.19-1.775-1.956-3.02-2.301
			c-1.246-0.344-2.767-0.517-4.563-0.517h-14.646c-1.768,0-3.166,0.501-4.194,1.503c-1.029,1.002-1.543,2.271-1.543,3.804
			c0,1.879,0.615,3.21,1.847,3.992c1.231,0.783,3.049,1.174,5.454,1.174h9.996v11.178c-2.694,1.566-5.353,2.771-7.975,3.616
			c-2.622,0.845-5.426,1.268-8.409,1.268c-6.143,0-10.93-2.176-14.363-6.528c-3.433-4.352-5.15-10.567-5.15-18.645
			c0-3.726,0.441-7.123,1.326-10.191c0.883-3.068,2.158-5.659,3.824-7.773c1.666-2.113,3.672-3.726,6.019-4.837
			c2.347-1.111,5.012-1.667,7.997-1.667c2.897,0,5.28,0.47,7.149,1.409c1.869,0.939,3.353,2.098,4.455,3.475
			c1.101,1.378,2.448,3.413,4.042,6.105c0.579,0.845,1.296,1.503,2.151,1.973c0.854,0.47,1.745,0.704,2.673,0.704
			c1.68,0,3.122-0.618,4.324-1.855c1.202-1.237,1.804-2.731,1.804-4.485c0-1.628-0.521-3.491-1.565-5.589
			c-1.043-2.097-2.593-4.086-4.65-5.965c-2.057-1.879-4.737-3.436-8.04-4.673c-3.303-1.237-7.099-1.855-11.386-1.855
			c-5.215,0-9.88,0.822-13.994,2.466c-4.114,1.644-7.605,4.016-10.474,7.115s-5.041,6.873-6.519,11.319
			c-1.478,4.446-2.216,9.346-2.216,14.7c0,5.448,0.761,10.379,2.282,14.794S90.28,75.201,93.119,78.3z M161.828,87.834
			c1.651,0,3.013-0.619,4.085-1.855c1.072-1.237,1.608-3.06,1.608-5.471V79.24c1.304,1.628,2.354,2.849,3.151,3.663
			c0.797,0.815,1.76,1.605,2.89,2.372c1.13,0.768,2.499,1.385,4.107,1.855c1.608,0.47,3.325,0.705,5.15,0.705
			c2.984,0,5.715-0.65,8.192-1.949c2.477-1.299,4.585-3.139,6.323-5.518c1.738-2.379,3.064-5.19,3.977-8.43
			s1.369-6.802,1.369-10.685c0-5.26-0.819-9.808-2.455-13.643c-1.637-3.835-3.941-6.763-6.91-8.782
			c-2.97-2.02-6.425-3.029-10.365-3.029c-3.419,0-6.287,0.666-8.605,1.996c-2.318,1.331-4.592,3.249-6.823,5.753V23.961
			c0-2.348-0.493-4.156-1.478-5.424c-0.985-1.268-2.39-1.902-4.216-1.902c-1.738,0-3.093,0.666-4.063,1.996
			c-0.971,1.331-1.456,3.296-1.456,5.894v55.983c0,2.411,0.5,4.235,1.499,5.471S160.148,87.834,161.828,87.834z M169.608,53.056
			c1.014-2.52,2.404-4.446,4.172-5.777c1.767-1.33,3.781-1.996,6.041-1.996c2.201,0,4.129,0.666,5.78,1.996
			c1.651,1.331,2.926,3.217,3.824,5.659c0.898,2.442,1.347,5.354,1.347,8.736c0,5.229-1.08,9.245-3.238,12.047
			c-2.159,2.802-4.73,4.203-7.714,4.203c-3.506,0-6.338-1.369-8.496-4.109c-2.159-2.739-3.238-6.661-3.238-11.765
			C168.086,58.575,168.593,55.577,169.608,53.056z M219.933,29.503h23.251c-3.651,5.01-6.801,10.043-9.452,15.099
			c-2.651,5.057-4.861,9.988-6.628,14.794c-1.768,4.807-3.042,8.932-3.824,12.375c-0.782,3.445-1.173,6.169-1.173,8.172
			c0,2.599,0.536,4.564,1.608,5.894c1.072,1.33,2.491,1.996,4.259,1.996c1.854,0,3.339-0.619,4.455-1.855
			c1.115-1.237,1.977-3.452,2.586-6.646c0.261-1.377,0.565-3.365,0.913-5.965c0.348-2.599,0.666-4.712,0.956-6.34
			c0.289-1.628,0.782-3.679,1.478-6.152c1.651-5.604,3.469-10.348,5.454-14.23c1.984-3.882,3.911-7.131,5.78-9.745
			c1.869-2.614,3.534-5.002,4.998-7.162c1.463-2.16,2.195-3.898,2.195-5.213c0-2.16-0.623-3.71-1.869-4.65
			c-1.246-0.939-3.259-1.409-6.041-1.409h-28.944c-2.289,0-4.071,0.313-5.345,0.939c-1.275,0.627-1.912,2.02-1.912,4.18
			c0,2.036,0.601,3.53,1.804,4.485C215.681,29.026,217.499,29.503,219.933,29.503z M289.446,77.807
			c-1.521,1.143-3.47,1.714-5.845,1.714c-2.927,0-5.237-0.564-6.932-1.691c-1.695-1.127-3.151-2.833-4.368-5.119
			c-0.608-1.19-1.246-2.113-1.912-2.771c-0.667-0.657-1.623-0.986-2.868-0.986c-1.42,0-2.593,0.501-3.52,1.503
			c-0.928,1.002-1.391,2.207-1.391,3.616c0,2.13,0.724,4.25,2.173,6.364c1.448,2.113,3.694,3.875,6.736,5.284
			c3.042,1.409,6.693,2.113,10.952,2.113c4.461,0,8.25-0.65,11.365-1.949c3.114-1.299,5.468-3.209,7.062-5.73
			c1.593-2.52,2.39-5.549,2.39-9.088c0-2.348-0.602-4.438-1.804-6.27c-1.203-1.832-2.97-3.42-5.302-4.767
			c-2.333-1.346-5.339-2.505-9.018-3.475c-3.101-0.814-5.534-1.503-7.301-2.066c-1.768-0.564-3.172-1.275-4.216-2.137
			c-1.043-0.861-1.565-1.965-1.565-3.311c0-1.471,0.71-2.701,2.129-3.687c1.419-0.986,3.201-1.479,5.345-1.479
			c2.086,0,3.738,0.376,4.954,1.127c1.217,0.751,2.274,1.754,3.172,3.006c1.101,1.503,2.079,2.63,2.933,3.381
			c0.854,0.751,1.891,1.127,3.107,1.127c1.68,0,2.977-0.47,3.89-1.409c0.913-0.939,1.369-2.144,1.369-3.616
			c0-1.346-0.428-2.724-1.282-4.133c-0.855-1.409-2.101-2.692-3.737-3.851c-1.637-1.158-3.68-2.082-6.128-2.771
			c-2.449-0.688-5.208-1.033-8.279-1.033c-3.911,0-7.251,0.681-10.017,2.043c-2.767,1.362-4.861,3.186-6.28,5.471
			c-1.42,2.286-2.13,4.713-2.13,7.28c0,2.881,0.767,5.307,2.303,7.28c1.535,1.973,3.585,3.562,6.15,4.767
			c2.564,1.206,5.889,2.356,9.974,3.452c3.621,0.939,6.221,1.926,7.801,2.959c1.579,1.033,2.369,2.677,2.369,4.931
			C291.728,75.358,290.967,76.664,289.446,77.807z M320.476,85.815c2.274,1.284,4.846,1.926,7.714,1.926
			c2.375,0,4.491-0.321,6.345-0.963c1.854-0.641,3.564-1.62,5.128-2.935s3.056-2.943,4.476-4.884v1.644
			c0,2.286,0.528,4.062,1.586,5.331c1.057,1.268,2.397,1.902,4.02,1.902c1.622,0,2.948-0.611,3.977-1.832
			c1.028-1.221,1.543-3.053,1.543-5.495v-37.15c0-2.567-0.536-4.485-1.608-5.753c-1.072-1.268-2.492-1.902-4.259-1.902
			c-1.768,0-3.202,0.642-4.302,1.926c-1.101,1.284-1.651,3.194-1.651,5.73v15.593c0,6.137-0.333,10.114-1,11.929
			c-0.811,2.066-2.101,3.742-3.868,5.025c-1.768,1.284-3.651,1.926-5.65,1.926c-2.058,0-3.687-0.571-4.889-1.714
			c-1.203-1.143-2.036-2.724-2.499-4.743c-0.464-2.02-0.695-4.516-0.695-7.491V43.358c0-2.536-0.551-4.445-1.651-5.73
			c-1.101-1.283-2.55-1.926-4.346-1.926c-1.768,0-3.187,0.634-4.259,1.902c-1.072,1.268-1.608,3.186-1.608,5.753v25.408
			c0,5.104,0.739,9.017,2.216,11.741C316.441,82.762,318.201,84.531,320.476,85.815z M391.445,77.807
			c-1.521,1.143-3.47,1.714-5.845,1.714c-2.927,0-5.237-0.564-6.932-1.691c-1.695-1.127-3.151-2.833-4.368-5.119
			c-0.608-1.19-1.246-2.113-1.912-2.771c-0.667-0.657-1.623-0.986-2.868-0.986c-1.42,0-2.593,0.501-3.52,1.503
			c-0.928,1.002-1.391,2.207-1.391,3.616c0,2.13,0.724,4.25,2.173,6.364c1.448,2.113,3.694,3.875,6.736,5.284
			c3.042,1.409,6.693,2.113,10.952,2.113c4.461,0,8.25-0.65,11.365-1.949c3.114-1.299,5.468-3.209,7.062-5.73
			c1.593-2.52,2.39-5.549,2.39-9.088c0-2.348-0.602-4.438-1.804-6.27c-1.203-1.832-2.97-3.42-5.302-4.767
			c-2.333-1.346-5.339-2.505-9.018-3.475c-3.101-0.814-5.534-1.503-7.301-2.066c-1.768-0.564-3.172-1.275-4.216-2.137
			c-1.043-0.861-1.565-1.965-1.565-3.311c0-1.471,0.71-2.701,2.129-3.687c1.419-0.986,3.201-1.479,5.346-1.479
			c2.086,0,3.737,0.376,4.954,1.127c1.217,0.751,2.274,1.754,3.172,3.006c1.101,1.503,2.079,2.63,2.934,3.381
			c0.854,0.751,1.89,1.127,3.107,1.127c1.68,0,2.977-0.47,3.89-1.409c0.913-0.939,1.369-2.144,1.369-3.616
			c0-1.346-0.428-2.724-1.282-4.133c-0.855-1.409-2.101-2.692-3.737-3.851c-1.637-1.158-3.68-2.082-6.128-2.771
			c-2.449-0.688-5.208-1.033-8.279-1.033c-3.911,0-7.251,0.681-10.017,2.043c-2.767,1.362-4.861,3.186-6.28,5.471
			c-1.42,2.286-2.13,4.713-2.13,7.28c0,2.881,0.767,5.307,2.303,7.28c1.535,1.973,3.585,3.562,6.149,4.767
			c2.564,1.206,5.889,2.356,9.974,3.452c3.621,0.939,6.221,1.926,7.801,2.959c1.579,1.033,2.369,2.677,2.369,4.931
			C393.726,75.358,392.966,76.664,391.445,77.807z M418.541,71.96h21.816v8.736c0,2.348,0.5,4.126,1.499,5.331
			s2.31,1.808,3.933,1.808c1.651,0,2.969-0.587,3.955-1.761c0.985-1.174,1.478-2.966,1.478-5.378V71.96h2.651
			c2.201,0,3.853-0.415,4.954-1.245c1.101-0.829,1.651-2.152,1.651-3.969c0-2.223-0.674-3.663-2.021-4.321
			c-1.347-0.658-3.137-0.986-5.367-0.986h-1.869V25.089c0-5.448-2.202-8.172-6.606-8.172c-1.362,0-2.528,0.493-3.498,1.479
			c-0.971,0.986-2.21,2.576-3.716,4.767l-23.033,33.298c-0.638,0.909-1.173,1.675-1.608,2.301c-0.435,0.627-0.855,1.276-1.26,1.949
			c-0.406,0.674-0.71,1.315-0.913,1.926c-0.203,0.611-0.304,1.214-0.304,1.808c0,2.317,0.688,4.149,2.064,5.495
			C413.724,71.287,415.789,71.96,418.541,71.96z M440.358,34.153V61.44H421.67L440.358,34.153z"/>
	</g>
</g>
</svg>
