<?xml version="1.0" encoding="iso-8859-1"?>
<!-- Generator: Adobe Illustrator 21.0.2, SVG Export Plug-In . SVG Version: 6.00 Build 0)  -->
<svg version="1.1" id="Gbdim7_1_" xmlns="http://www.w3.org/2000/svg" xmlns:xlink="http://www.w3.org/1999/xlink" x="0px" y="0px"
	 viewBox="0 0 533 700" style="enable-background:new 0 0 533 700;" xml:space="preserve">
<g id="Gbdim7">
	<g>
		<path style="fill-rule:evenodd;clip-rule:evenodd;" d="M440,358.575V349v-8V238v-8v-96v-15v-4.5H97v4.5v15v96v8v7.589
			c-21.376,2.506-37.965,20.681-37.965,42.743c0,22.063,16.589,40.238,37.965,42.744V341v8v105v8v103v8v101h10V573h101v101h10V573
			h101v101h10V573h101v101h10V573v-8V462v-8v-9.91c21.43-2.455,38.077-20.656,38.077-42.758
			C478.077,379.231,461.43,361.03,440,358.575z M208,565H107V462h101V565z M208,358.716c-20.891,2.947-36.965,20.899-36.965,42.616
			c0,21.718,16.074,39.67,36.965,42.616V454H107V349h101V358.716z M208,341H107v-9.91c21.43-2.455,38.077-20.656,38.077-42.758
			c0-22.101-16.647-40.302-38.077-42.758V238h101V341z M208,230H107v-96h101V230z M319,565H218V462h101V565z M319,454H218v-9.806
			c21.91-1.994,39.077-20.417,39.077-42.862c0-22.444-17.167-40.868-39.077-42.862V349h101V454z M319,245.589
			c-21.376,2.506-37.965,20.681-37.965,42.743c0,22.063,16.589,40.238,37.965,42.744V341H218V238h101V245.589z M319,230H218v-96h101
			V230z M430,565H329V462h101V565z M430,358.589c-21.376,2.506-37.965,20.681-37.965,42.743c0,22.063,16.589,40.238,37.965,42.744
			V454H329V349h101V358.589z M430,341H329v-9.91c21.43-2.455,38.077-20.656,38.077-42.758c0-22.101-16.647-40.302-38.077-42.758V238
			h101V341z M430,230H329v-96h101V230z M115.435,78.3c2.839,3.1,6.272,5.464,10.3,7.092c4.027,1.628,8.489,2.442,13.385,2.442
			c4.201,0,8.083-0.517,11.647-1.55c3.564-1.033,7.272-2.677,11.126-4.931c1.332-0.782,2.426-1.597,3.281-2.442
			c0.854-0.845,1.441-1.792,1.76-2.841c0.318-1.049,0.478-2.45,0.478-4.203V58.669c0-2.379-0.384-4.164-1.152-5.354
			c-0.768-1.19-1.775-1.956-3.02-2.301c-1.246-0.344-2.767-0.517-4.563-0.517h-14.646c-1.768,0-3.166,0.501-4.194,1.503
			c-1.029,1.002-1.543,2.271-1.543,3.804c0,1.879,0.615,3.21,1.847,3.992c1.231,0.783,3.049,1.174,5.454,1.174h9.996v11.178
			c-2.694,1.566-5.353,2.771-7.975,3.616c-2.622,0.845-5.426,1.268-8.409,1.268c-6.143,0-10.93-2.176-14.363-6.528
			c-3.433-4.352-5.15-10.567-5.15-18.645c0-3.726,0.441-7.123,1.326-10.191c0.883-3.068,2.158-5.659,3.824-7.773
			c1.666-2.113,3.672-3.726,6.019-4.837c2.347-1.111,5.012-1.667,7.996-1.667c2.897,0,5.28,0.47,7.149,1.409
			c1.869,0.939,3.353,2.098,4.455,3.475c1.101,1.378,2.448,3.413,4.042,6.105c0.579,0.845,1.296,1.503,2.151,1.973
			c0.854,0.47,1.745,0.704,2.673,0.704c1.68,0,3.122-0.618,4.324-1.855c1.202-1.237,1.804-2.731,1.804-4.485
			c0-1.628-0.522-3.491-1.565-5.589c-1.043-2.097-2.593-4.086-4.65-5.965c-2.057-1.879-4.737-3.436-8.04-4.673
			c-3.303-1.237-7.099-1.855-11.386-1.855c-5.215,0-9.88,0.822-13.994,2.466c-4.114,1.644-7.605,4.016-10.474,7.115
			s-5.041,6.873-6.519,11.319c-1.478,4.446-2.216,9.346-2.216,14.7c0,5.448,0.76,10.379,2.282,14.794
			C110.415,71.443,112.595,75.201,115.435,78.3z M184.144,87.834c1.651,0,3.013-0.619,4.085-1.855
			c1.071-1.237,1.608-3.06,1.608-5.471V79.24c1.304,1.628,2.354,2.849,3.151,3.663c0.797,0.815,1.76,1.605,2.89,2.372
			c1.13,0.768,2.499,1.385,4.107,1.855c1.608,0.47,3.325,0.705,5.15,0.705c2.984,0,5.715-0.65,8.192-1.949
			c2.477-1.299,4.585-3.139,6.323-5.518c1.738-2.379,3.064-5.19,3.977-8.43c0.913-3.241,1.369-6.802,1.369-10.685
			c0-5.26-0.819-9.808-2.455-13.643c-1.637-3.835-3.94-6.763-6.91-8.782c-2.97-2.02-6.425-3.029-10.365-3.029
			c-3.419,0-6.287,0.666-8.605,1.996c-2.318,1.331-4.592,3.249-6.823,5.753V23.961c0-2.348-0.493-4.156-1.478-5.424
			c-0.985-1.268-2.39-1.902-4.216-1.902c-1.738,0-3.093,0.666-4.063,1.996c-0.971,1.331-1.456,3.296-1.456,5.894v55.983
			c0,2.411,0.5,4.235,1.499,5.471S182.463,87.834,184.144,87.834z M191.923,53.056c1.014-2.52,2.405-4.446,4.172-5.777
			c1.767-1.33,3.781-1.996,6.041-1.996c2.202,0,4.129,0.666,5.78,1.996c1.651,1.331,2.926,3.217,3.824,5.659
			c0.898,2.442,1.347,5.354,1.347,8.736c0,5.229-1.08,9.245-3.238,12.047c-2.159,2.802-4.73,4.203-7.714,4.203
			c-3.506,0-6.338-1.369-8.496-4.109c-2.159-2.739-3.238-6.661-3.238-11.765C190.402,58.575,190.908,55.577,191.923,53.056z
			 M237.164,80.32c1.767,2.411,3.86,4.267,6.28,5.565c2.419,1.299,5.048,1.949,7.888,1.949c2.144,0,4.121-0.321,5.932-0.963
			c1.81-0.641,3.491-1.581,5.041-2.818c1.55-1.237,3.122-2.841,4.715-4.814v1.268c0,2.348,0.528,4.156,1.586,5.424
			c1.057,1.268,2.397,1.902,4.02,1.902c1.651,0,2.999-0.611,4.042-1.832c1.043-1.221,1.565-3.053,1.565-5.495V23.961
			c0-2.411-0.486-4.234-1.456-5.471c-0.971-1.237-2.354-1.855-4.15-1.855c-1.797,0-3.18,0.674-4.15,2.02
			c-0.971,1.347-1.456,3.335-1.456,5.965v18.927c-2.231-2.63-4.52-4.579-6.867-5.847c-2.347-1.268-5.23-1.902-8.648-1.902
			c-5.91,0-10.677,2.239-14.298,6.716c-3.622,4.478-5.432,10.724-5.432,18.739c0,3.789,0.456,7.311,1.369,10.567
			C234.057,75.076,235.396,77.909,237.164,80.32z M245.095,53.009c0.941-2.489,2.267-4.399,3.977-5.73
			c1.709-1.33,3.651-1.996,5.824-1.996c2.086,0,4.005,0.65,5.758,1.949c1.753,1.3,3.143,3.178,4.172,5.636
			c1.028,2.458,1.543,5.394,1.543,8.806c0,3.633-0.515,6.662-1.543,9.088c-1.029,2.427-2.405,4.227-4.129,5.401
			c-1.724,1.174-3.629,1.761-5.715,1.761c-2.057,0-3.955-0.618-5.693-1.855c-1.738-1.236-3.107-3.076-4.107-5.518
			c-1-2.442-1.499-5.401-1.499-8.876C243.683,58.387,244.153,55.499,245.095,53.009z M296.138,29.738
			c1.593,0,2.969-0.555,4.129-1.667c1.158-1.111,1.738-2.654,1.738-4.626c0-2.035-0.594-3.585-1.782-4.65
			c-1.188-1.064-2.55-1.597-4.085-1.597c-1.594,0-2.992,0.587-4.194,1.761c-1.203,1.174-1.804,2.67-1.804,4.485
			c0,2.004,0.587,3.554,1.76,4.65C293.074,29.191,294.486,29.738,296.138,29.738z M296.008,87.834c1.738,0,3.172-0.658,4.302-1.973
			c1.13-1.315,1.695-3.256,1.695-5.824V42.982c0-2.285-0.565-4.07-1.695-5.354c-1.13-1.283-2.564-1.926-4.302-1.926
			s-3.151,0.642-4.237,1.926c-1.086,1.284-1.63,3.194-1.63,5.73v36.68c0,2.505,0.543,4.431,1.63,5.777
			C292.857,87.161,294.269,87.834,296.008,87.834z M319.693,87.834c1.825,0,3.295-0.681,4.411-2.043
			c1.115-1.362,1.673-3.373,1.673-6.035v-17.33c0-5.385,0.615-9.518,1.847-12.399c1.231-2.88,3.788-4.321,7.671-4.321
			c1.941,0,3.361,0.572,4.259,1.714c0.898,1.143,1.448,2.607,1.651,4.391c0.202,1.785,0.304,4.29,0.304,7.514v20.43
			c0,2.693,0.558,4.713,1.673,6.059c1.115,1.346,2.571,2.02,4.368,2.02c1.854,0,3.346-0.674,4.476-2.02
			c1.13-1.346,1.695-3.365,1.695-6.059V62.708c0-5.479,0.435-9.299,1.304-11.46c0.782-1.691,1.876-3.037,3.281-4.039
			c1.405-1.002,2.89-1.503,4.455-1.503c1.941,0,3.39,0.564,4.346,1.691c0.956,1.127,1.543,2.521,1.76,4.18
			c0.217,1.66,0.326,3.867,0.326,6.622v21.557c0,2.662,0.572,4.673,1.717,6.035c1.144,1.362,2.614,2.043,4.411,2.043
			c1.854,0,3.346-0.674,4.476-2.02c1.13-1.346,1.695-3.365,1.695-6.059V54.724c0-4.978-0.507-8.625-1.521-10.943
			c-1.159-2.567-2.912-4.539-5.259-5.918c-2.347-1.377-5.143-2.066-8.388-2.066c-2.781,0-5.317,0.634-7.605,1.902
			c-2.289,1.268-4.433,3.217-6.432,5.847c-1.391-2.599-3.158-4.539-5.302-5.824c-2.144-1.284-4.709-1.926-7.692-1.926
			c-2.868,0-5.476,0.627-7.823,1.879c-2.347,1.253-4.549,3.21-6.606,5.871v-1.221c0-2.066-0.543-3.687-1.63-4.861
			c-1.086-1.174-2.441-1.761-4.063-1.761c-1.681,0-3.035,0.627-4.063,1.879c-1.029,1.253-1.543,3.084-1.543,5.495v36.68
			c0,2.662,0.572,4.673,1.717,6.035C316.426,87.153,317.896,87.834,319.693,87.834z M400.744,29.503h23.251
			c-3.651,5.01-6.801,10.043-9.452,15.099c-2.651,5.057-4.861,9.988-6.628,14.794c-1.768,4.807-3.042,8.932-3.824,12.375
			c-0.782,3.445-1.173,6.169-1.173,8.172c0,2.599,0.536,4.564,1.608,5.894c1.072,1.33,2.491,1.996,4.259,1.996
			c1.854,0,3.339-0.619,4.455-1.855c1.115-1.237,1.977-3.452,2.586-6.646c0.261-1.377,0.565-3.365,0.913-5.965
			c0.348-2.599,0.666-4.712,0.956-6.34c0.289-1.628,0.782-3.679,1.478-6.152c1.651-5.604,3.469-10.348,5.454-14.23
			c1.984-3.882,3.911-7.131,5.78-9.745c1.869-2.614,3.534-5.002,4.998-7.162c1.463-2.16,2.195-3.898,2.195-5.213
			c0-2.16-0.623-3.71-1.869-4.65c-1.246-0.939-3.259-1.409-6.041-1.409h-28.944c-2.289,0-4.071,0.313-5.345,0.939
			c-1.275,0.627-1.912,2.02-1.912,4.18c0,2.036,0.601,3.53,1.804,4.485C396.492,29.026,398.31,29.503,400.744,29.503z"/>
	</g>
</g>
</svg>
