<?xml version="1.0" encoding="iso-8859-1"?>
<!-- Generator: Adobe Illustrator 21.0.2, SVG Export Plug-In . SVG Version: 6.00 Build 0)  -->
<svg version="1.1" id="Gbm7_x2F_b5_1_" xmlns="http://www.w3.org/2000/svg" xmlns:xlink="http://www.w3.org/1999/xlink" x="0px"
	 y="0px" viewBox="0 0 533 700" style="enable-background:new 0 0 533 700;" xml:space="preserve">
<g id="Gbm7_x2F_b5">
	<g>
		<path style="fill-rule:evenodd;clip-rule:evenodd;" d="M440,358.575V349v-8v-11.91c21.43-2.455,38.077-20.656,38.077-42.758
			c0-22.101-16.647-40.302-38.077-42.758V238v-8v-96v-15v-4.5H97v4.5v15v96v8v5.586c-21.376,2.505-37.965,20.683-37.965,42.746
			c0,22.063,16.589,40.241,37.965,42.746V341v8v105v8v103v8v101h10V573h101v101h10V573h101v101h10V573h101v101h10V573v-8V462v-8
			v-9.91c21.43-2.455,38.077-20.656,38.077-42.758C478.077,379.231,461.43,361.03,440,358.575z M208,469.716
			c-20.891,2.947-36.965,20.899-36.965,42.616c0,21.718,16.074,39.67,36.965,42.616V565H107V462h101V469.716z M208,454H107V349h101
			V454z M208,341H107v-11.619c13.768,0,53.604,0,101,0V341z M208,243.283c-47.394,0-87.229,0-101,0V238h101V243.283z M208,230H107
			v-96h101V230z M319,565H218v-9.806c21.91-1.994,39.077-20.417,39.077-42.862c0-22.444-17.167-40.868-39.077-42.862V462h101V565z
			 M319,454H218V349h101V454z M319,341H218v-11.618c32.715,0,68.292,0,101,0V341z M319,243.283c-32.708,0-68.285,0-101,0V238h101
			V243.283z M319,230H218v-96h101V230z M430,565H329V462h101V565z M430,358.589c-21.376,2.506-37.965,20.681-37.965,42.743
			c0,22.063,16.589,40.238,37.965,42.744V454H329V349h101V358.589z M430,341H329v-11.618c47.472,0,87.342,0,101,0V341z M430,243.283
			c-13.658,0-53.528,0-101,0V238h101V243.283z M430,230H329v-96h101V230z M88.555,78.3c2.839,3.1,6.272,5.464,10.3,7.092
			c4.027,1.628,8.489,2.442,13.385,2.442c4.201,0,8.083-0.517,11.647-1.55c3.564-1.033,7.272-2.677,11.126-4.931
			c1.332-0.782,2.426-1.597,3.281-2.442c0.854-0.845,1.441-1.792,1.76-2.841c0.319-1.049,0.478-2.45,0.478-4.203V58.669
			c0-2.379-0.384-4.164-1.152-5.354c-0.768-1.19-1.775-1.956-3.02-2.301c-1.246-0.344-2.767-0.517-4.563-0.517h-14.646
			c-1.768,0-3.166,0.501-4.194,1.503c-1.029,1.002-1.543,2.271-1.543,3.804c0,1.879,0.615,3.21,1.847,3.992
			c1.231,0.783,3.049,1.174,5.454,1.174h9.996v11.178c-2.694,1.566-5.353,2.771-7.975,3.616c-2.622,0.845-5.426,1.268-8.409,1.268
			c-6.143,0-10.93-2.176-14.363-6.528c-3.433-4.352-5.15-10.567-5.15-18.645c0-3.726,0.441-7.123,1.326-10.191
			c0.883-3.068,2.158-5.659,3.824-7.773c1.666-2.113,3.672-3.726,6.019-4.837c2.347-1.111,5.012-1.667,7.996-1.667
			c2.897,0,5.28,0.47,7.149,1.409s3.353,2.098,4.455,3.475c1.101,1.378,2.448,3.413,4.042,6.105
			c0.579,0.845,1.296,1.503,2.151,1.973c0.854,0.47,1.745,0.704,2.673,0.704c1.68,0,3.122-0.618,4.324-1.855
			c1.202-1.237,1.804-2.731,1.804-4.485c0-1.628-0.522-3.491-1.565-5.589c-1.043-2.097-2.593-4.086-4.65-5.965
			c-2.057-1.879-4.737-3.436-8.04-4.673c-3.303-1.237-7.099-1.855-11.386-1.855c-5.215,0-9.88,0.822-13.994,2.466
			c-4.114,1.644-7.605,4.016-10.474,7.115c-2.868,3.1-5.041,6.873-6.519,11.319c-1.478,4.446-2.216,9.346-2.216,14.7
			c0,5.448,0.76,10.379,2.282,14.794C83.536,71.443,85.716,75.201,88.555,78.3z M157.264,87.834c1.651,0,3.013-0.619,4.085-1.855
			c1.072-1.237,1.608-3.06,1.608-5.471V79.24c1.304,1.628,2.354,2.849,3.151,3.663c0.797,0.815,1.76,1.605,2.89,2.372
			c1.13,0.768,2.499,1.385,4.107,1.855c1.608,0.47,3.325,0.705,5.15,0.705c2.984,0,5.715-0.65,8.192-1.949
			c2.477-1.299,4.585-3.139,6.323-5.518c1.738-2.379,3.064-5.19,3.977-8.43c0.913-3.241,1.369-6.802,1.369-10.685
			c0-5.26-0.819-9.808-2.456-13.643c-1.637-3.835-3.94-6.763-6.91-8.782c-2.97-2.02-6.425-3.029-10.365-3.029
			c-3.419,0-6.287,0.666-8.605,1.996c-2.318,1.331-4.592,3.249-6.823,5.753V23.961c0-2.348-0.493-4.156-1.478-5.424
			c-0.985-1.268-2.39-1.902-4.216-1.902c-1.738,0-3.093,0.666-4.063,1.996c-0.971,1.331-1.456,3.296-1.456,5.894v55.983
			c0,2.411,0.5,4.235,1.499,5.471S155.584,87.834,157.264,87.834z M165.044,53.056c1.014-2.52,2.405-4.446,4.172-5.777
			c1.767-1.33,3.781-1.996,6.041-1.996c2.201,0,4.129,0.666,5.78,1.996c1.651,1.331,2.926,3.217,3.824,5.659
			c0.898,2.442,1.347,5.354,1.347,8.736c0,5.229-1.08,9.245-3.238,12.047c-2.159,2.802-4.73,4.203-7.714,4.203
			c-3.506,0-6.338-1.369-8.496-4.109c-2.159-2.739-3.238-6.661-3.238-11.765C163.523,58.575,164.029,55.577,165.044,53.056z
			 M213.066,87.834c1.825,0,3.295-0.681,4.411-2.043c1.115-1.362,1.673-3.373,1.673-6.035v-17.33c0-5.385,0.615-9.518,1.847-12.399
			c1.231-2.88,3.788-4.321,7.671-4.321c1.941,0,3.361,0.572,4.259,1.714c0.898,1.143,1.448,2.607,1.651,4.391
			c0.202,1.785,0.304,4.29,0.304,7.514v20.43c0,2.693,0.557,4.713,1.673,6.059c1.115,1.346,2.571,2.02,4.368,2.02
			c1.854,0,3.346-0.674,4.476-2.02c1.13-1.346,1.695-3.365,1.695-6.059V62.708c0-5.479,0.435-9.299,1.304-11.46
			c0.782-1.691,1.876-3.037,3.281-4.039c1.405-1.002,2.89-1.503,4.455-1.503c1.941,0,3.39,0.564,4.346,1.691
			c0.956,1.127,1.543,2.521,1.76,4.18c0.217,1.66,0.326,3.867,0.326,6.622v21.557c0,2.662,0.572,4.673,1.717,6.035
			c1.144,1.362,2.614,2.043,4.411,2.043c1.854,0,3.346-0.674,4.476-2.02c1.13-1.346,1.695-3.365,1.695-6.059V54.724
			c0-4.978-0.507-8.625-1.521-10.943c-1.159-2.567-2.912-4.539-5.259-5.918c-2.347-1.377-5.143-2.066-8.388-2.066
			c-2.781,0-5.317,0.634-7.605,1.902c-2.289,1.268-4.433,3.217-6.432,5.847c-1.391-2.599-3.158-4.539-5.302-5.824
			c-2.144-1.284-4.708-1.926-7.692-1.926c-2.868,0-5.476,0.627-7.823,1.879c-2.347,1.253-4.549,3.21-6.606,5.871v-1.221
			c0-2.066-0.543-3.687-1.63-4.861c-1.086-1.174-2.441-1.761-4.063-1.761c-1.681,0-3.035,0.627-4.063,1.879
			c-1.029,1.253-1.543,3.084-1.543,5.495v36.68c0,2.662,0.572,4.673,1.717,6.035C209.799,87.153,211.269,87.834,213.066,87.834z
			 M294.117,29.503h23.251c-3.651,5.01-6.801,10.043-9.452,15.099c-2.651,5.057-4.861,9.988-6.628,14.794
			c-1.768,4.807-3.042,8.932-3.824,12.375c-0.782,3.445-1.173,6.169-1.173,8.172c0,2.599,0.536,4.564,1.608,5.894
			c1.071,1.33,2.491,1.996,4.259,1.996c1.854,0,3.339-0.619,4.455-1.855c1.115-1.237,1.977-3.452,2.586-6.646
			c0.261-1.377,0.565-3.365,0.913-5.965c0.348-2.599,0.666-4.712,0.956-6.34c0.289-1.628,0.782-3.679,1.478-6.152
			c1.651-5.604,3.469-10.348,5.454-14.23c1.984-3.882,3.911-7.131,5.78-9.745c1.869-2.614,3.534-5.002,4.998-7.162
			c1.463-2.16,2.195-3.898,2.195-5.213c0-2.16-0.623-3.71-1.869-4.65c-1.246-0.939-3.259-1.409-6.041-1.409h-28.944
			c-2.289,0-4.071,0.313-5.346,0.939c-1.275,0.627-1.912,2.02-1.912,4.18c0,2.036,0.601,3.53,1.804,4.485
			C289.865,29.026,291.684,29.503,294.117,29.503z M338.75,87.834c1.188,0,2.093-0.29,2.716-0.869
			c0.623-0.579,1.086-1.385,1.391-2.419c0.304-1.033,0.659-2.442,1.065-4.227l12.169-54.151c0.608-2.567,0.913-4.336,0.913-5.307
			c0-1.315-0.384-2.348-1.152-3.1c-0.768-0.751-1.876-1.127-3.325-1.127c-1.681,0-2.811,0.533-3.39,1.597
			c-0.58,1.065-1.188,3.037-1.825,5.918L335.186,78.3c-0.58,2.881-0.869,4.681-0.869,5.401
			C334.317,86.457,335.794,87.834,338.75,87.834z M369.519,87.834c1.651,0,3.013-0.619,4.085-1.855
			c1.071-1.237,1.608-3.06,1.608-5.471V79.24c1.304,1.628,2.354,2.849,3.151,3.663c0.797,0.815,1.76,1.605,2.89,2.372
			c1.13,0.768,2.499,1.385,4.107,1.855c1.608,0.47,3.325,0.705,5.15,0.705c2.984,0,5.715-0.65,8.192-1.949
			c2.477-1.299,4.585-3.139,6.323-5.518c1.738-2.379,3.064-5.19,3.976-8.43c0.913-3.241,1.369-6.802,1.369-10.685
			c0-5.26-0.819-9.808-2.455-13.643c-1.637-3.835-3.941-6.763-6.91-8.782c-2.97-2.02-6.425-3.029-10.365-3.029
			c-3.419,0-6.287,0.666-8.605,1.996c-2.318,1.331-4.592,3.249-6.823,5.753V23.961c0-2.348-0.493-4.156-1.478-5.424
			c-0.985-1.268-2.39-1.902-4.216-1.902c-1.738,0-3.093,0.666-4.063,1.996c-0.971,1.331-1.456,3.296-1.456,5.894v55.983
			c0,2.411,0.5,4.235,1.499,5.471S367.838,87.834,369.519,87.834z M377.298,53.056c1.014-2.52,2.405-4.446,4.172-5.777
			c1.767-1.33,3.781-1.996,6.041-1.996c2.201,0,4.129,0.666,5.78,1.996c1.651,1.331,2.926,3.217,3.824,5.659
			c0.898,2.442,1.347,5.354,1.347,8.736c0,5.229-1.08,9.245-3.238,12.047c-2.159,2.802-4.73,4.203-7.714,4.203
			c-3.506,0-6.338-1.369-8.496-4.109c-2.159-2.739-3.238-6.661-3.238-11.765C375.777,58.575,376.283,55.577,377.298,53.056z
			 M427.385,84.734c3.23,2.066,7.438,3.1,12.625,3.1c4.635,0,8.728-1.096,12.277-3.288c3.549-2.191,6.265-5.15,8.149-8.876
			c1.883-3.726,2.825-7.859,2.825-12.399c0-3.13-0.521-6.058-1.565-8.782s-2.477-5.08-4.302-7.068
			c-1.825-1.988-3.948-3.546-6.367-4.673c-2.419-1.127-5.02-1.691-7.801-1.691c-3.477,0-7.273,1.19-11.386,3.569l2.477-15.217
			h20.643c2.144,0,3.766-0.5,4.867-1.503c1.101-1.002,1.651-2.317,1.651-3.945c0-3.726-2.26-5.589-6.78-5.589h-22.946
			c-2.492,0-4.288,0.611-5.389,1.832c-1.101,1.221-1.854,3.178-2.26,5.871l-3.651,22.496c-0.319,1.973-0.478,3.037-0.478,3.194
			c0,1.409,0.55,2.67,1.651,3.781c1.101,1.112,2.361,1.667,3.781,1.667c1.304,0,2.962-0.822,4.976-2.466
			c2.013-1.644,3.556-2.794,4.628-3.452c1.072-0.657,2.853-0.986,5.345-0.986c2.028,0,3.868,0.525,5.519,1.573
			c1.651,1.049,2.97,2.638,3.955,4.767c0.985,2.13,1.478,4.697,1.478,7.702c0,2.787-0.456,5.276-1.369,7.467
			c-0.913,2.192-2.21,3.914-3.89,5.166c-1.681,1.253-3.636,1.879-5.867,1.879c-2.434,0-4.636-0.775-6.606-2.325
			c-1.971-1.55-3.535-3.718-4.694-6.505c-1.188-3.037-2.999-4.556-5.432-4.556c-1.42,0-2.601,0.548-3.542,1.644
			c-0.942,1.096-1.412,2.254-1.412,3.475c0,2.004,0.674,4.344,2.021,7.021S424.154,82.668,427.385,84.734z"/>
	</g>
</g>
</svg>
