<?xml version="1.0" encoding="iso-8859-1"?>
<!-- Generator: Adobe Illustrator 21.0.2, SVG Export Plug-In . SVG Version: 6.00 Build 0)  -->
<svg version="1.1" id="Abm7_x2F_b5_1_" xmlns="http://www.w3.org/2000/svg" xmlns:xlink="http://www.w3.org/1999/xlink" x="0px"
	 y="0px" viewBox="0 0 533 700" style="enable-background:new 0 0 533 700;" xml:space="preserve">
<g id="Abm7_x2F_b5">
	<g>
		<path style="fill-rule:evenodd;clip-rule:evenodd;" d="M440,245.575V238v-8v-96v-15v-4.5H97v4.5v15v5.589
			c-21.376,2.506-37.965,20.681-37.965,42.743c0,22.063,16.589,40.238,37.965,42.744V230v8v103v8v105v8v103v8v101h10V573h101v101h10
			V573h101v101h10V573h101v101h10V573v-8V462v-8V349v-8v-9.91c21.43-2.455,38.077-20.656,38.077-42.758
			C478.077,266.231,461.43,248.03,440,245.575z M208,565H107V462h101V565z M208,454H107V349h101V454z M208,245.716
			c-20.891,2.947-36.965,20.899-36.965,42.616c0,21.718,16.074,39.67,36.965,42.616V341H107V238h101V245.716z M208,230H107v-4.91
			c21.43-2.455,38.077-20.656,38.077-42.758c0-22.101-16.647-40.302-38.077-42.758V134h101V230z M319,565H218V462h101V565z M319,454
			H218V349h101V454z M319,245.589c-21.376,2.506-37.965,20.681-37.965,42.743c0,22.063,16.589,40.238,37.965,42.744V341H218v-9.806
			c21.91-1.994,39.077-20.417,39.077-42.862c0-22.444-17.167-40.868-39.077-42.862V238h101V245.589z M319,230H218v-96h101V230z
			 M430,565H329V462h101V565z M430,454H329V349h101V454z M430,245.589c-21.376,2.506-37.965,20.681-37.965,42.743
			c0,22.063,16.589,40.238,37.965,42.744V341H329v-9.91c21.43-2.455,38.077-20.656,38.077-42.758
			c0-22.101-16.647-40.302-38.077-42.758V238h101V245.589z M430,230H329v-96h101V230z M87.187,87.834
			c1.912,0,3.288-0.603,4.129-1.808c0.84-1.205,1.854-3.53,3.042-6.974l3.042-8.829h25.902l3.042,8.642
			c0.405,1.065,0.891,2.294,1.456,3.687c0.565,1.394,1.093,2.427,1.586,3.1c0.492,0.674,1.101,1.205,1.825,1.597
			c0.724,0.391,1.593,0.587,2.608,0.587c1.738,0,3.223-0.666,4.455-1.996c1.231-1.33,1.847-2.794,1.847-4.391
			c0-1.534-0.652-3.992-1.956-7.374L121.52,29.644c-0.782-2.223-1.427-3.999-1.934-5.331c-0.507-1.33-1.13-2.575-1.869-3.734
			c-0.739-1.158-1.71-2.105-2.912-2.841c-1.203-0.735-2.702-1.104-4.498-1.104c-1.768,0-3.253,0.368-4.455,1.104
			c-1.203,0.736-2.173,1.699-2.912,2.888c-0.739,1.19-1.434,2.685-2.086,4.485c-0.652,1.801-1.21,3.343-1.673,4.626L82.885,74.449
			c-0.667,1.785-1.145,3.178-1.434,4.18c-0.29,1.002-0.435,1.973-0.435,2.912c0,1.628,0.623,3.084,1.869,4.368
			C84.13,87.192,85.564,87.834,87.187,87.834z M110.22,31.335l9.604,28.414H100.79L110.22,31.335z M154.027,87.834
			c1.651,0,3.013-0.619,4.085-1.855c1.071-1.237,1.608-3.06,1.608-5.471V79.24c1.304,1.628,2.354,2.849,3.151,3.663
			c0.797,0.815,1.76,1.605,2.89,2.372c1.13,0.768,2.499,1.385,4.107,1.855c1.608,0.47,3.325,0.705,5.15,0.705
			c2.984,0,5.715-0.65,8.192-1.949c2.477-1.299,4.585-3.139,6.323-5.518c1.738-2.379,3.064-5.19,3.977-8.43
			c0.913-3.241,1.369-6.802,1.369-10.685c0-5.26-0.819-9.808-2.455-13.643c-1.637-3.835-3.94-6.763-6.91-8.782
			c-2.97-2.02-6.425-3.029-10.365-3.029c-3.419,0-6.287,0.666-8.605,1.996c-2.318,1.331-4.592,3.249-6.823,5.753V23.961
			c0-2.348-0.493-4.156-1.478-5.424c-0.985-1.268-2.39-1.902-4.216-1.902c-1.738,0-3.093,0.666-4.063,1.996
			c-0.971,1.331-1.456,3.296-1.456,5.894v55.983c0,2.411,0.5,4.235,1.499,5.471S152.347,87.834,154.027,87.834z M161.806,53.056
			c1.014-2.52,2.405-4.446,4.172-5.777c1.767-1.33,3.781-1.996,6.041-1.996c2.201,0,4.129,0.666,5.78,1.996
			c1.651,1.331,2.926,3.217,3.824,5.659c0.898,2.442,1.347,5.354,1.347,8.736c0,5.229-1.08,9.245-3.238,12.047
			c-2.159,2.802-4.73,4.203-7.714,4.203c-3.506,0-6.338-1.369-8.496-4.109c-2.159-2.739-3.238-6.661-3.238-11.765
			C160.285,58.575,160.792,55.577,161.806,53.056z M209.829,87.834c1.825,0,3.295-0.681,4.411-2.043
			c1.115-1.362,1.673-3.373,1.673-6.035v-17.33c0-5.385,0.615-9.518,1.847-12.399c1.231-2.88,3.788-4.321,7.671-4.321
			c1.941,0,3.361,0.572,4.259,1.714c0.898,1.143,1.448,2.607,1.651,4.391c0.202,1.785,0.304,4.29,0.304,7.514v20.43
			c0,2.693,0.557,4.713,1.673,6.059c1.115,1.346,2.571,2.02,4.368,2.02c1.854,0,3.346-0.674,4.476-2.02
			c1.13-1.346,1.695-3.365,1.695-6.059V62.708c0-5.479,0.435-9.299,1.304-11.46c0.782-1.691,1.876-3.037,3.281-4.039
			c1.405-1.002,2.89-1.503,4.455-1.503c1.941,0,3.39,0.564,4.346,1.691c0.956,1.127,1.543,2.521,1.76,4.18
			c0.217,1.66,0.326,3.867,0.326,6.622v21.557c0,2.662,0.572,4.673,1.717,6.035c1.144,1.362,2.614,2.043,4.411,2.043
			c1.854,0,3.346-0.674,4.476-2.02c1.13-1.346,1.695-3.365,1.695-6.059V54.724c0-4.978-0.507-8.625-1.521-10.943
			c-1.159-2.567-2.912-4.539-5.259-5.918c-2.347-1.377-5.143-2.066-8.388-2.066c-2.781,0-5.317,0.634-7.605,1.902
			c-2.289,1.268-4.433,3.217-6.432,5.847c-1.391-2.599-3.158-4.539-5.302-5.824c-2.144-1.284-4.709-1.926-7.692-1.926
			c-2.868,0-5.476,0.627-7.823,1.879c-2.347,1.253-4.549,3.21-6.606,5.871v-1.221c0-2.066-0.543-3.687-1.63-4.861
			s-2.441-1.761-4.063-1.761c-1.681,0-3.035,0.627-4.063,1.879c-1.029,1.253-1.543,3.084-1.543,5.495v36.68
			c0,2.662,0.572,4.673,1.717,6.035C206.562,87.153,208.032,87.834,209.829,87.834z M290.88,29.503h23.251
			c-3.651,5.01-6.801,10.043-9.452,15.099c-2.651,5.057-4.861,9.988-6.628,14.794c-1.768,4.807-3.042,8.932-3.824,12.375
			c-0.782,3.445-1.173,6.169-1.173,8.172c0,2.599,0.536,4.564,1.608,5.894c1.072,1.33,2.491,1.996,4.259,1.996
			c1.854,0,3.339-0.619,4.455-1.855c1.115-1.237,1.977-3.452,2.586-6.646c0.261-1.377,0.565-3.365,0.913-5.965
			c0.348-2.599,0.666-4.712,0.956-6.34c0.289-1.628,0.782-3.679,1.478-6.152c1.651-5.604,3.469-10.348,5.454-14.23
			c1.984-3.882,3.911-7.131,5.78-9.745c1.869-2.614,3.534-5.002,4.998-7.162c1.463-2.16,2.195-3.898,2.195-5.213
			c0-2.16-0.623-3.71-1.869-4.65c-1.246-0.939-3.259-1.409-6.041-1.409H290.88c-2.289,0-4.071,0.313-5.345,0.939
			c-1.275,0.627-1.912,2.02-1.912,4.18c0,2.036,0.601,3.53,1.804,4.485C286.628,29.026,288.446,29.503,290.88,29.503z
			 M335.513,87.834c1.188,0,2.093-0.29,2.716-0.869c0.623-0.579,1.086-1.385,1.391-2.419c0.304-1.033,0.659-2.442,1.065-4.227
			l12.169-54.151c0.608-2.567,0.913-4.336,0.913-5.307c0-1.315-0.384-2.348-1.152-3.1c-0.768-0.751-1.876-1.127-3.325-1.127
			c-1.681,0-2.811,0.533-3.39,1.597c-0.58,1.065-1.188,3.037-1.825,5.918L331.949,78.3c-0.58,2.881-0.869,4.681-0.869,5.401
			C331.08,86.457,332.557,87.834,335.513,87.834z M366.282,87.834c1.651,0,3.013-0.619,4.085-1.855
			c1.072-1.237,1.608-3.06,1.608-5.471V79.24c1.304,1.628,2.354,2.849,3.151,3.663c0.797,0.815,1.76,1.605,2.89,2.372
			c1.13,0.768,2.499,1.385,4.107,1.855c1.608,0.47,3.325,0.705,5.15,0.705c2.984,0,5.715-0.65,8.192-1.949
			c2.477-1.299,4.585-3.139,6.323-5.518c1.738-2.379,3.064-5.19,3.977-8.43c0.913-3.241,1.369-6.802,1.369-10.685
			c0-5.26-0.819-9.808-2.455-13.643c-1.637-3.835-3.94-6.763-6.91-8.782c-2.97-2.02-6.425-3.029-10.365-3.029
			c-3.419,0-6.287,0.666-8.605,1.996c-2.318,1.331-4.592,3.249-6.823,5.753V23.961c0-2.348-0.493-4.156-1.478-5.424
			c-0.985-1.268-2.39-1.902-4.216-1.902c-1.738,0-3.093,0.666-4.063,1.996c-0.971,1.331-1.456,3.296-1.456,5.894v55.983
			c0,2.411,0.5,4.235,1.499,5.471C363.261,87.216,364.601,87.834,366.282,87.834z M374.061,53.056
			c1.014-2.52,2.405-4.446,4.172-5.777c1.767-1.33,3.781-1.996,6.041-1.996c2.201,0,4.129,0.666,5.78,1.996
			c1.651,1.331,2.926,3.217,3.824,5.659c0.898,2.442,1.347,5.354,1.347,8.736c0,5.229-1.08,9.245-3.238,12.047
			c-2.159,2.802-4.73,4.203-7.714,4.203c-3.506,0-6.338-1.369-8.496-4.109c-2.159-2.739-3.238-6.661-3.238-11.765
			C372.54,58.575,373.046,55.577,374.061,53.056z M424.147,84.734c3.23,2.066,7.438,3.1,12.625,3.1
			c4.635,0,8.728-1.096,12.277-3.288c3.549-2.191,6.265-5.15,8.149-8.876c1.883-3.726,2.825-7.859,2.825-12.399
			c0-3.13-0.522-6.058-1.565-8.782s-2.477-5.08-4.302-7.068c-1.825-1.988-3.948-3.546-6.367-4.673
			c-2.419-1.127-5.02-1.691-7.801-1.691c-3.477,0-7.273,1.19-11.386,3.569l2.477-15.217h20.643c2.144,0,3.766-0.5,4.867-1.503
			c1.101-1.002,1.651-2.317,1.651-3.945c0-3.726-2.26-5.589-6.78-5.589h-22.946c-2.492,0-4.288,0.611-5.389,1.832
			c-1.101,1.221-1.854,3.178-2.26,5.871l-3.651,22.496c-0.319,1.973-0.478,3.037-0.478,3.194c0,1.409,0.55,2.67,1.651,3.781
			c1.101,1.112,2.361,1.667,3.781,1.667c1.304,0,2.962-0.822,4.976-2.466c2.013-1.644,3.556-2.794,4.628-3.452
			c1.072-0.657,2.853-0.986,5.345-0.986c2.028,0,3.868,0.525,5.519,1.573c1.651,1.049,2.969,2.638,3.955,4.767
			c0.985,2.13,1.478,4.697,1.478,7.702c0,2.787-0.456,5.276-1.369,7.467c-0.913,2.192-2.21,3.914-3.89,5.166
			c-1.681,1.253-3.636,1.879-5.867,1.879c-2.434,0-4.636-0.775-6.606-2.325c-1.971-1.55-3.535-3.718-4.694-6.505
			c-1.188-3.037-2.999-4.556-5.432-4.556c-1.42,0-2.601,0.548-3.542,1.644c-0.942,1.096-1.412,2.254-1.412,3.475
			c0,2.004,0.674,4.344,2.021,7.021C418.628,80.296,420.916,82.668,424.147,84.734z"/>
	</g>
</g>
</svg>
