<?xml version="1.0" encoding="iso-8859-1"?>
<!-- Generator: Adobe Illustrator 21.0.2, SVG Export Plug-In . SVG Version: 6.00 Build 0)  -->
<svg version="1.1" id="Bm_1_" xmlns="http://www.w3.org/2000/svg" xmlns:xlink="http://www.w3.org/1999/xlink" x="0px" y="0px"
	 viewBox="0 0 533 700" style="enable-background:new 0 0 533 700;" xml:space="preserve">
<g id="Bm">
	<g>
		<path style="fill-rule:evenodd;clip-rule:evenodd;" d="M440,243.575V238v-8v-96v-15v-4.5H97v4.5v15v96v8v103v8v105v8v6.589
			c-21.376,2.506-37.965,20.681-37.965,42.743c0,22.063,16.589,40.238,37.965,42.744V565v8v101h10V573h101v101h10V573h101v101h10
			V573h101v101h10V573v-8V462v-8V349v-8v-11.91c21.43-2.455,38.077-20.656,38.077-42.758C478.077,264.231,461.43,246.03,440,243.575
			z M208,565H107v-10.91c21.43-2.455,38.077-20.656,38.077-42.758c0-22.101-16.647-40.302-38.077-42.758V462h101V565z M208,454H107
			V349h101V454z M208,243.716c-20.891,2.947-36.965,20.899-36.965,42.616c0,21.718,16.074,39.67,36.965,42.616V341H107V238h101
			V243.716z M208,230H107v-96h101V230z M319,565H218V462h101V565z M319,454H218V349h101V454z M319,243.589
			c-21.376,2.506-37.965,20.681-37.965,42.743c0,22.063,16.589,40.238,37.965,42.744V341H218v-11.806
			c21.91-1.994,39.077-20.417,39.077-42.862c0-22.444-17.167-40.868-39.077-42.862V238h101V243.589z M319,230H218v-96h101V230z
			 M430,565H329V462h101V565z M430,454H329V349h101V454z M430,243.589c-21.376,2.506-37.965,20.681-37.965,42.743
			c0,22.063,16.589,40.238,37.965,42.744V341H329v-11.91c21.43-2.455,38.077-20.656,38.077-42.758
			c0-22.101-16.647-40.302-38.077-42.758V238h101V243.589z M430,230H329v-96h101V230z M214.326,86.66h19.47
			c3.361,0,6.302-0.18,8.822-0.54c2.521-0.36,4.751-0.978,6.693-1.855c3.1-1.471,5.563-3.749,7.388-6.833
			c1.825-3.084,2.738-6.552,2.738-10.403c0-8.328-4.187-13.932-12.56-16.814c6.374-3.194,9.561-8.234,9.561-15.123
			c0-2.003-0.304-3.905-0.913-5.706c-0.608-1.8-1.493-3.444-2.651-4.931c-1.159-1.487-2.492-2.716-3.998-3.687
			c-1.768-1.158-3.767-1.941-5.997-2.348c-2.231-0.406-4.867-0.611-7.91-0.611h-20.643c-2.753,0-4.745,0.666-5.976,1.996
			c-1.232,1.331-1.847,3.515-1.847,6.552v51.756c0,2.975,0.601,5.143,1.804,6.505C209.509,85.979,211.516,86.66,214.326,86.66z
			 M219.411,28.282h10.474c4.694,0,8.185,0.572,10.474,1.714c2.288,1.143,3.433,3.452,3.433,6.927c0,1.628-0.363,3.1-1.086,4.415
			c-0.928,1.848-2.267,3.1-4.02,3.757c-1.753,0.658-4.237,0.986-7.453,0.986h-11.821V28.282z M219.411,56.086h13.429
			c4.491,0,7.866,0.783,10.126,2.348c2.26,1.566,3.39,4.086,3.39,7.561c0,6.795-4.361,10.191-13.081,10.191h-13.864V56.086z
			 M275.212,87.834c1.825,0,3.295-0.681,4.411-2.043c1.115-1.362,1.673-3.373,1.673-6.035v-17.33c0-5.385,0.615-9.518,1.847-12.399
			c1.231-2.88,3.788-4.321,7.671-4.321c1.941,0,3.361,0.572,4.259,1.714c0.898,1.143,1.448,2.607,1.651,4.391
			c0.202,1.785,0.304,4.29,0.304,7.514v20.43c0,2.693,0.557,4.713,1.673,6.059c1.115,1.346,2.571,2.02,4.368,2.02
			c1.854,0,3.346-0.674,4.476-2.02c1.13-1.346,1.695-3.365,1.695-6.059V62.708c0-5.479,0.435-9.299,1.304-11.46
			c0.782-1.691,1.876-3.037,3.281-4.039c1.405-1.002,2.89-1.503,4.455-1.503c1.941,0,3.39,0.564,4.346,1.691
			c0.956,1.127,1.543,2.521,1.76,4.18c0.217,1.66,0.326,3.867,0.326,6.622v21.557c0,2.662,0.572,4.673,1.717,6.035
			c1.144,1.362,2.614,2.043,4.411,2.043c1.854,0,3.346-0.674,4.476-2.02c1.13-1.346,1.695-3.365,1.695-6.059V54.724
			c0-4.978-0.507-8.625-1.521-10.943c-1.159-2.567-2.912-4.539-5.259-5.918c-2.347-1.377-5.143-2.066-8.388-2.066
			c-2.781,0-5.317,0.634-7.605,1.902c-2.289,1.268-4.433,3.217-6.432,5.847c-1.391-2.599-3.158-4.539-5.302-5.824
			c-2.144-1.284-4.709-1.926-7.692-1.926c-2.868,0-5.476,0.627-7.823,1.879c-2.347,1.253-4.549,3.21-6.606,5.871v-1.221
			c0-2.066-0.543-3.687-1.63-4.861c-1.086-1.174-2.441-1.761-4.063-1.761c-1.681,0-3.035,0.627-4.063,1.879
			c-1.029,1.253-1.543,3.084-1.543,5.495v36.68c0,2.662,0.572,4.673,1.717,6.035C271.945,87.153,273.416,87.834,275.212,87.834z"/>
	</g>
</g>
</svg>
