<?xml version="1.0" encoding="iso-8859-1"?>
<!-- Generator: Adobe Illustrator 21.0.2, SVG Export Plug-In . SVG Version: 6.00 Build 0)  -->
<svg version="1.1" id="Bsus4_1_" xmlns="http://www.w3.org/2000/svg" xmlns:xlink="http://www.w3.org/1999/xlink" x="0px" y="0px"
	 viewBox="0 0 533 700" style="enable-background:new 0 0 533 700;" xml:space="preserve">
<g id="Bsus4">
	<g>
		<path style="fill-rule:evenodd;clip-rule:evenodd;" d="M440,245.575V238v-8v-96v-15v-4.5H97v4.5v15v96v8v103v8v105v8v7.589
			c-21.376,2.506-37.965,20.681-37.965,42.743c0,22.063,16.589,40.238,37.965,42.744V565v8v101h10V573h101v101h10V573h101v101h10
			V573h101v101h10V573v-8V462v-8V349v-8v-9.91c21.43-2.455,38.077-20.656,38.077-42.758C478.077,266.231,461.43,248.03,440,245.575z
			 M208,469.716c-20.891,2.947-36.965,20.899-36.965,42.616c0,21.718,16.074,39.67,36.965,42.616V565H107v-9.91
			c21.43-2.455,38.077-20.656,38.077-42.758c0-22.101-16.647-40.302-38.077-42.758V462h101V469.716z M208,454H107V349h101V454z
			 M208,341H107V238h101V341z M208,230H107v-96h101V230z M319,565H218v-9.806c21.91-1.994,39.077-20.417,39.077-42.862
			c0-22.444-17.167-40.868-39.077-42.862V462h101V565z M319,454H218V349h101V454z M319,245.589
			c-21.376,2.506-37.965,20.681-37.965,42.743c0,22.063,16.589,40.238,37.965,42.744V341H218V238h101V245.589z M319,230H218v-96h101
			V230z M430,565H329V462h101V565z M430,454H329V349h101V454z M430,245.589c-21.376,2.506-37.965,20.681-37.965,42.743
			c0,22.063,16.589,40.238,37.965,42.744V341H329v-9.91c21.43-2.455,38.077-20.656,38.077-42.758
			c0-22.101-16.647-40.302-38.077-42.758V238h101V245.589z M430,230H329v-96h101V230z M152.136,86.66h19.47
			c3.361,0,6.302-0.18,8.822-0.54c2.521-0.36,4.751-0.978,6.693-1.855c3.1-1.471,5.563-3.749,7.388-6.833
			c1.825-3.084,2.738-6.552,2.738-10.403c0-8.328-4.187-13.932-12.56-16.814c6.374-3.194,9.561-8.234,9.561-15.123
			c0-2.003-0.304-3.905-0.913-5.706c-0.608-1.8-1.493-3.444-2.651-4.931c-1.159-1.487-2.492-2.716-3.998-3.687
			c-1.768-1.158-3.767-1.941-5.997-2.348c-2.231-0.406-4.867-0.611-7.91-0.611h-20.643c-2.753,0-4.745,0.666-5.976,1.996
			c-1.232,1.331-1.847,3.515-1.847,6.552v51.756c0,2.975,0.601,5.143,1.804,6.505C147.319,85.979,149.326,86.66,152.136,86.66z
			 M157.221,28.282h10.474c4.694,0,8.185,0.572,10.474,1.714c2.288,1.143,3.433,3.452,3.433,6.927c0,1.628-0.363,3.1-1.086,4.415
			c-0.928,1.848-2.267,3.1-4.02,3.757c-1.753,0.658-4.237,0.986-7.453,0.986h-11.821V28.282z M157.221,56.086h13.429
			c4.491,0,7.866,0.783,10.126,2.348c2.26,1.566,3.39,4.086,3.39,7.561c0,6.795-4.361,10.191-13.081,10.191h-13.864V56.086z
			 M231.949,77.807c-1.521,1.143-3.47,1.714-5.845,1.714c-2.927,0-5.237-0.564-6.932-1.691c-1.695-1.127-3.151-2.833-4.368-5.119
			c-0.608-1.19-1.246-2.113-1.912-2.771c-0.667-0.657-1.623-0.986-2.868-0.986c-1.42,0-2.593,0.501-3.52,1.503
			c-0.928,1.002-1.391,2.207-1.391,3.616c0,2.13,0.724,4.25,2.173,6.364c1.448,2.113,3.694,3.875,6.736,5.284
			s6.693,2.113,10.952,2.113c4.461,0,8.25-0.65,11.365-1.949c3.114-1.299,5.468-3.209,7.062-5.73c1.593-2.52,2.39-5.549,2.39-9.088
			c0-2.348-0.602-4.438-1.804-6.27c-1.203-1.832-2.97-3.42-5.302-4.767c-2.333-1.346-5.339-2.505-9.018-3.475
			c-3.101-0.814-5.534-1.503-7.301-2.066c-1.768-0.564-3.173-1.275-4.216-2.137c-1.043-0.861-1.565-1.965-1.565-3.311
			c0-1.471,0.71-2.701,2.13-3.687c1.419-0.986,3.201-1.479,5.345-1.479c2.086,0,3.737,0.376,4.954,1.127
			c1.217,0.751,2.274,1.754,3.172,3.006c1.101,1.503,2.079,2.63,2.933,3.381c0.854,0.751,1.891,1.127,3.107,1.127
			c1.68,0,2.977-0.47,3.89-1.409c0.913-0.939,1.369-2.144,1.369-3.616c0-1.346-0.428-2.724-1.282-4.133
			c-0.855-1.409-2.101-2.692-3.737-3.851c-1.637-1.158-3.68-2.082-6.128-2.771c-2.449-0.688-5.208-1.033-8.279-1.033
			c-3.911,0-7.251,0.681-10.017,2.043c-2.767,1.362-4.861,3.186-6.28,5.471c-1.42,2.286-2.13,4.713-2.13,7.28
			c0,2.881,0.767,5.307,2.303,7.28c1.535,1.973,3.585,3.562,6.149,4.767c2.564,1.206,5.889,2.356,9.974,3.452
			c3.621,0.939,6.221,1.926,7.801,2.959c1.579,1.033,2.369,2.677,2.369,4.931C234.231,75.358,233.47,76.664,231.949,77.807z
			 M262.979,85.815c2.274,1.284,4.846,1.926,7.714,1.926c2.375,0,4.491-0.321,6.345-0.963c1.854-0.641,3.564-1.62,5.128-2.935
			s3.056-2.943,4.476-4.884v1.644c0,2.286,0.528,4.062,1.586,5.331c1.057,1.268,2.397,1.902,4.02,1.902
			c1.622,0,2.948-0.611,3.977-1.832c1.028-1.221,1.543-3.053,1.543-5.495v-37.15c0-2.567-0.536-4.485-1.608-5.753
			c-1.072-1.268-2.492-1.902-4.259-1.902c-1.768,0-3.202,0.642-4.302,1.926c-1.101,1.284-1.651,3.194-1.651,5.73v15.593
			c0,6.137-0.333,10.114-1,11.929c-0.811,2.066-2.101,3.742-3.868,5.025c-1.768,1.284-3.651,1.926-5.65,1.926
			c-2.058,0-3.687-0.571-4.889-1.714c-1.203-1.143-2.036-2.724-2.499-4.743c-0.464-2.02-0.695-4.516-0.695-7.491V43.358
			c0-2.536-0.551-4.445-1.651-5.73c-1.101-1.283-2.55-1.926-4.346-1.926c-1.768,0-3.187,0.634-4.259,1.902
			c-1.072,1.268-1.608,3.186-1.608,5.753v25.408c0,5.104,0.739,9.017,2.216,11.741C258.944,82.762,260.704,84.531,262.979,85.815z
			 M333.948,77.807c-1.521,1.143-3.47,1.714-5.845,1.714c-2.927,0-5.237-0.564-6.932-1.691c-1.695-1.127-3.151-2.833-4.368-5.119
			c-0.608-1.19-1.246-2.113-1.912-2.771c-0.667-0.657-1.623-0.986-2.868-0.986c-1.42,0-2.593,0.501-3.52,1.503
			c-0.928,1.002-1.391,2.207-1.391,3.616c0,2.13,0.724,4.25,2.173,6.364c1.448,2.113,3.694,3.875,6.736,5.284
			s6.693,2.113,10.952,2.113c4.461,0,8.25-0.65,11.365-1.949c3.114-1.299,5.468-3.209,7.062-5.73c1.593-2.52,2.39-5.549,2.39-9.088
			c0-2.348-0.602-4.438-1.804-6.27c-1.203-1.832-2.97-3.42-5.302-4.767c-2.333-1.346-5.339-2.505-9.018-3.475
			c-3.101-0.814-5.534-1.503-7.301-2.066c-1.768-0.564-3.173-1.275-4.216-2.137c-1.043-0.861-1.565-1.965-1.565-3.311
			c0-1.471,0.71-2.701,2.13-3.687c1.419-0.986,3.201-1.479,5.345-1.479c2.086,0,3.737,0.376,4.954,1.127
			c1.217,0.751,2.274,1.754,3.172,3.006c1.101,1.503,2.079,2.63,2.934,3.381c0.854,0.751,1.89,1.127,3.107,1.127
			c1.68,0,2.977-0.47,3.89-1.409c0.913-0.939,1.369-2.144,1.369-3.616c0-1.346-0.428-2.724-1.282-4.133
			c-0.855-1.409-2.101-2.692-3.737-3.851c-1.637-1.158-3.68-2.082-6.128-2.771c-2.449-0.688-5.208-1.033-8.279-1.033
			c-3.911,0-7.251,0.681-10.017,2.043c-2.767,1.362-4.861,3.186-6.28,5.471c-1.42,2.286-2.13,4.713-2.13,7.28
			c0,2.881,0.767,5.307,2.303,7.28c1.535,1.973,3.585,3.562,6.149,4.767c2.564,1.206,5.889,2.356,9.974,3.452
			c3.621,0.939,6.221,1.926,7.801,2.959c1.579,1.033,2.369,2.677,2.369,4.931C336.229,75.358,335.469,76.664,333.948,77.807z
			 M361.044,71.96h21.817v8.736c0,2.348,0.5,4.126,1.499,5.331c1,1.205,2.31,1.808,3.933,1.808c1.651,0,2.969-0.587,3.955-1.761
			c0.985-1.174,1.478-2.966,1.478-5.378V71.96h2.651c2.201,0,3.853-0.415,4.954-1.245c1.101-0.829,1.651-2.152,1.651-3.969
			c0-2.223-0.674-3.663-2.021-4.321s-3.137-0.986-5.367-0.986h-1.869V25.089c0-5.448-2.202-8.172-6.606-8.172
			c-1.362,0-2.528,0.493-3.498,1.479c-0.971,0.986-2.21,2.576-3.716,4.767l-23.033,33.298c-0.638,0.909-1.173,1.675-1.608,2.301
			c-0.435,0.627-0.855,1.276-1.26,1.949c-0.406,0.674-0.71,1.315-0.913,1.926c-0.203,0.611-0.304,1.214-0.304,1.808
			c0,2.317,0.688,4.149,2.064,5.495C356.227,71.287,358.292,71.96,361.044,71.96z M382.861,34.153V61.44h-18.688L382.861,34.153z"/>
	</g>
</g>
</svg>
