<?xml version="1.0" encoding="iso-8859-1"?>
<!-- Generator: Adobe Illustrator 21.0.2, SVG Export Plug-In . SVG Version: 6.00 Build 0)  -->
<svg version="1.1" id="D7_1_" xmlns="http://www.w3.org/2000/svg" xmlns:xlink="http://www.w3.org/1999/xlink" x="0px" y="0px"
	 viewBox="0 0 533 700" style="enable-background:new 0 0 533 700;" xml:space="preserve">
<g id="D7">
	<g>
		<path style="fill-rule:evenodd;clip-rule:evenodd;" d="M97,114.5v4.5v15v96v8v7.589c-21.376,2.506-37.965,20.681-37.965,42.743
			c0,22.063,16.589,40.238,37.965,42.744V341v8v105v8v103v8v101h10V573h101v101h10V573h101v101h10V573h101v101h10V573v-8V462v-8V349
			v-8V238v-8v-96v-15v-4.5H97z M208,565H107V462h101V565z M208,454H107V349h101V454z M208,341H107v-9.91
			c21.43-2.455,38.077-20.656,38.077-42.758c0-22.101-16.647-40.302-38.077-42.758V238h101V341z M208,230H107v-96h101V230z M319,565
			H218V462h101V565z M319,454H218V349h101V454z M319,245.589c-21.376,2.506-37.965,20.681-37.965,42.743
			c0,22.063,16.589,40.238,37.965,42.744V341H218V238h101V245.589z M319,230H218v-96h101V230z M430,565H329V462h101V565z M430,454
			H329V349h101V454z M430,341H329v-9.91c21.43-2.455,38.077-20.656,38.077-42.758c0-22.101-16.647-40.302-38.077-42.758V238h101V341
			z M430,230H329v-96h101V230z M221.54,85.509c1.188,0.768,2.955,1.151,5.302,1.151h16.819c2.926,0,5.555-0.203,7.888-0.611
			c2.332-0.406,4.512-1.111,6.541-2.113c2.028-1.002,3.896-2.332,5.606-3.992c2.173-2.16,3.955-4.61,5.345-7.35
			c1.391-2.739,2.419-5.816,3.086-9.229c0.666-3.412,1-7.186,1-11.319c0-12.524-3.318-21.854-9.952-27.991
			c-2.55-2.411-5.389-4.054-8.518-4.931c-3.129-0.876-6.882-1.315-11.256-1.315h-16.819c-2.781,0-4.795,0.674-6.041,2.02
			c-1.246,1.347-1.869,3.522-1.869,6.528v50.488c0,2.224,0.181,4.032,0.543,5.425C219.577,83.662,220.352,84.742,221.54,85.509z
			 M231.579,28.846h8.518c3.94,0,7.301,0.462,10.083,1.385c2.781,0.924,5.121,3.076,7.019,6.458
			c1.897,3.381,2.847,8.47,2.847,15.264c0,9.644-2.159,16.438-6.475,20.383c-0.956,0.909-2.086,1.613-3.39,2.113
			c-1.304,0.501-2.564,0.815-3.781,0.939c-1.217,0.125-2.898,0.188-5.041,0.188h-9.778V28.846z M291.379,29.503h23.251
			c-3.651,5.01-6.801,10.043-9.452,15.099c-2.651,5.057-4.861,9.988-6.628,14.794c-1.768,4.807-3.042,8.932-3.824,12.375
			c-0.782,3.445-1.173,6.169-1.173,8.172c0,2.599,0.536,4.564,1.608,5.894c1.072,1.33,2.491,1.996,4.259,1.996
			c1.854,0,3.339-0.619,4.455-1.855c1.115-1.237,1.977-3.452,2.586-6.646c0.261-1.377,0.565-3.365,0.913-5.965
			c0.348-2.599,0.666-4.712,0.956-6.34c0.289-1.628,0.782-3.679,1.478-6.152c1.651-5.604,3.469-10.348,5.454-14.23
			c1.984-3.882,3.911-7.131,5.78-9.745c1.869-2.614,3.534-5.002,4.998-7.162c1.463-2.16,2.195-3.898,2.195-5.213
			c0-2.16-0.623-3.71-1.869-4.65c-1.246-0.939-3.259-1.409-6.041-1.409h-28.944c-2.289,0-4.071,0.313-5.346,0.939
			c-1.275,0.627-1.912,2.02-1.912,4.18c0,2.036,0.601,3.53,1.804,4.485C287.127,29.026,288.945,29.503,291.379,29.503z"/>
	</g>
</g>
</svg>
