<?xml version="1.0" encoding="iso-8859-1"?>
<!-- Generator: Adobe Illustrator 21.0.2, SVG Export Plug-In . SVG Version: 6.00 Build 0)  -->
<svg version="1.1" id="E_1_" xmlns="http://www.w3.org/2000/svg" xmlns:xlink="http://www.w3.org/1999/xlink" x="0px" y="0px"
	 viewBox="0 0 533 700" style="enable-background:new 0 0 533 700;" xml:space="preserve">
<g id="E">
	<g>
		<path style="fill-rule:evenodd;clip-rule:evenodd;" d="M256.199,86.66h35.072c2.028,0,3.556-0.509,4.585-1.526
			c1.028-1.017,1.543-2.34,1.543-3.969c0-1.691-0.515-3.045-1.543-4.063c-1.029-1.017-2.557-1.526-4.585-1.526h-30.074V55.992
			h26.771c1.999,0,3.477-0.493,4.433-1.479c0.956-0.986,1.434-2.262,1.434-3.828c0-1.565-0.486-2.825-1.456-3.781
			c-0.971-0.955-2.441-1.432-4.411-1.432h-26.771V28.564h29.074c2.057,0,3.585-0.493,4.585-1.479c1-0.986,1.499-2.293,1.499-3.922
			c0-1.597-0.5-2.888-1.499-3.875c-1-0.986-2.528-1.479-4.585-1.479h-34.072c-1.825,0-3.325,0.29-4.498,0.869
			c-1.173,0.58-2.036,1.503-2.586,2.771c-0.551,1.268-0.826,2.904-0.826,4.908v51.756c0,3.006,0.615,5.182,1.847,6.528
			C251.367,85.987,253.388,86.66,256.199,86.66z M440,243.575V238v-8v-96v-15v-4.5H97v4.5v15v96v8v103v8v105v8v9.589
			c-21.376,2.506-37.965,20.681-37.965,42.743c0,22.063,16.589,40.238,37.965,42.744V565v8v101h10V573h101v101h10V573h101v101h10
			V573h101v101h10V573v-8V462v-8V349v-8v-11.91c21.43-2.455,38.077-20.656,38.077-42.758C478.077,264.231,461.43,246.03,440,243.575
			z M208,471.716c-20.891,2.947-36.965,20.899-36.965,42.616c0,21.718,16.074,39.67,36.965,42.616V565H107v-7.91
			c21.43-2.455,38.077-20.656,38.077-42.758c0-22.101-16.647-40.302-38.077-42.758V462h101V471.716z M208,454H107V349h101V454z
			 M208,341H107V238h101V341z M208,230H107v-96h101V230z M319,471.589c-21.376,2.506-37.965,20.681-37.965,42.743
			c0,22.063,16.589,40.238,37.965,42.744V565H218v-7.806c21.91-1.994,39.077-20.417,39.077-42.862
			c0-22.444-17.167-40.868-39.077-42.862V462h101V471.589z M319,454H218V349h101V454z M319,341H218V238h101V341z M319,230H218v-96
			h101V230z M430,565H329v-7.91c21.43-2.455,38.077-20.656,38.077-42.758c0-22.101-16.647-40.302-38.077-42.758V462h101V565z
			 M430,454H329V349h101V454z M430,243.589c-21.376,2.506-37.965,20.681-37.965,42.743c0,22.063,16.589,40.238,37.965,42.744V341
			H329V238h101V243.589z M430,230H329v-96h101V230z"/>
	</g>
</g>
</svg>
