<?xml version="1.0" encoding="iso-8859-1"?>
<!-- Generator: Adobe Illustrator 21.0.2, SVG Export Plug-In . SVG Version: 6.00 Build 0)  -->
<svg version="1.1" id="E7_1_" xmlns="http://www.w3.org/2000/svg" xmlns:xlink="http://www.w3.org/1999/xlink" x="0px" y="0px"
	 viewBox="0 0 533 700" style="enable-background:new 0 0 533 700;" xml:space="preserve">
<g id="E7">
	<g>
		<path style="fill-rule:evenodd;clip-rule:evenodd;" d="M440,244.575V238v-8v-96v-15v-4.5H97v4.5v15v96v8v103v8v105v8v103v8v101h10
			V573h101v101h10V573h101v101h10V573h101v101h10V573v-8V462v-8V349v-8v-10.91c21.43-2.455,38.077-20.656,38.077-42.758
			C478.077,265.231,461.43,247.03,440,244.575z M208,565H107V462h101V565z M208,454H107V349h101V454z M208,244.716
			c-20.891,2.947-36.965,20.899-36.965,42.616c0,21.718,16.074,39.67,36.965,42.616V341H107V238h101V244.716z M208,230H107v-96h101
			V230z M319,565H218V462h101V565z M319,454H218V349h101V454z M319,341H218v-10.806c21.91-1.994,39.077-20.417,39.077-42.862
			c0-22.444-17.167-40.867-39.077-42.862V238h101V341z M319,230H218v-96h101V230z M430,565H329V462h101V565z M430,454H329V349h101
			V454z M430,244.589c-21.376,2.506-37.965,20.681-37.965,42.743c0,22.063,16.589,40.238,37.965,42.744V341H329V238h101V244.589z
			 M430,230H329v-96h101V230z M229.755,86.66h35.072c2.028,0,3.556-0.509,4.585-1.526c1.028-1.017,1.543-2.34,1.543-3.969
			c0-1.691-0.515-3.045-1.543-4.063c-1.029-1.017-2.557-1.526-4.585-1.526h-30.074V55.992h26.771c1.999,0,3.477-0.493,4.433-1.479
			c0.956-0.986,1.434-2.262,1.434-3.828c0-1.565-0.486-2.825-1.456-3.781c-0.971-0.955-2.441-1.432-4.411-1.432h-26.771V28.564
			h29.074c2.057,0,3.585-0.493,4.585-1.479s1.499-2.293,1.499-3.922c0-1.597-0.5-2.888-1.499-3.875s-2.528-1.479-4.585-1.479
			h-34.072c-1.825,0-3.325,0.29-4.498,0.869c-1.173,0.58-2.036,1.503-2.586,2.771c-0.551,1.268-0.826,2.904-0.826,4.908v51.756
			c0,3.006,0.615,5.182,1.847,6.528C224.923,85.987,226.944,86.66,229.755,86.66z M288.12,29.503h23.251
			c-3.651,5.01-6.801,10.043-9.452,15.099c-2.651,5.057-4.861,9.988-6.628,14.794c-1.768,4.807-3.042,8.932-3.824,12.375
			c-0.782,3.445-1.173,6.169-1.173,8.172c0,2.599,0.536,4.564,1.608,5.894c1.071,1.33,2.491,1.996,4.259,1.996
			c1.854,0,3.339-0.619,4.455-1.855c1.115-1.237,1.977-3.452,2.586-6.646c0.261-1.377,0.565-3.365,0.913-5.965
			c0.348-2.599,0.666-4.712,0.956-6.34c0.289-1.628,0.782-3.679,1.478-6.152c1.651-5.604,3.469-10.348,5.454-14.23
			c1.984-3.882,3.911-7.131,5.78-9.745c1.869-2.614,3.534-5.002,4.998-7.162c1.463-2.16,2.195-3.898,2.195-5.213
			c0-2.16-0.623-3.71-1.869-4.65c-1.246-0.939-3.259-1.409-6.041-1.409H288.12c-2.289,0-4.071,0.313-5.345,0.939
			c-1.275,0.627-1.912,2.02-1.912,4.18c0,2.036,0.601,3.53,1.804,4.485C283.868,29.026,285.686,29.503,288.12,29.503z"/>
	</g>
</g>
</svg>
