<?xml version="1.0" encoding="iso-8859-1"?>
<!-- Generator: Adobe Illustrator 21.0.2, SVG Export Plug-In . SVG Version: 6.00 Build 0)  -->
<svg version="1.1" id="E7sus4_1_" xmlns="http://www.w3.org/2000/svg" xmlns:xlink="http://www.w3.org/1999/xlink" x="0px" y="0px"
	 viewBox="0 0 533 700" style="enable-background:new 0 0 533 700;" xml:space="preserve">
<g id="E7sus4">
	<g>
		<path style="fill-rule:evenodd;clip-rule:evenodd;" d="M440,357.575V349v-8V238v-8v-96v-15v-4.5H97v4.5v15v96v8v6.589
			c-21.376,2.506-37.965,20.681-37.965,42.743c0,22.063,16.589,40.238,37.965,42.744V341v8v105v8v103v8v101h10V573h101v101h10V573
			h101v101h10V573h101v101h10V573v-8V462v-8v-10.91c21.43-2.455,38.077-20.656,38.077-42.758
			C478.077,378.231,461.43,360.03,440,357.575z M208,565H107V462h101V565z M208,454H107V349h101V454z M208,244.716
			c-20.891,2.947-36.965,20.899-36.965,42.616c0,21.718,16.074,39.67,36.965,42.616V341H107v-10.91
			c21.43-2.455,38.077-20.656,38.077-42.758c0-22.101-16.647-40.302-38.077-42.758V238h101V244.716z M208,230H107v-96h101V230z
			 M319,565H218V462h101V565z M319,357.589c-21.376,2.506-37.965,20.681-37.965,42.743c0,22.063,16.589,40.238,37.965,42.744V454
			H218V349h101V357.589z M319,341H218v-10.806c21.91-1.994,39.077-20.417,39.077-42.862c0-22.444-17.167-40.868-39.077-42.862V238
			h101V341z M319,230H218v-96h101V230z M430,565H329V462h101V565z M430,357.589c-21.376,2.506-37.965,20.681-37.965,42.743
			c0,22.063,16.589,40.238,37.965,42.744V454H329v-10.91c21.43-2.455,38.077-20.656,38.077-42.758
			c0-22.101-16.647-40.302-38.077-42.758V349h101V357.589z M430,341H329V238h101V341z M430,230H329v-96h101V230z M128.19,86.66
			h35.072c2.028,0,3.556-0.509,4.585-1.526c1.028-1.017,1.543-2.34,1.543-3.969c0-1.691-0.515-3.045-1.543-4.063
			c-1.029-1.017-2.557-1.526-4.585-1.526h-30.074V55.992h26.771c1.999,0,3.477-0.493,4.433-1.479
			c0.956-0.986,1.434-2.262,1.434-3.828c0-1.565-0.486-2.825-1.456-3.781c-0.971-0.955-2.441-1.432-4.411-1.432h-26.771V28.564
			h29.074c2.057,0,3.585-0.493,4.585-1.479s1.499-2.293,1.499-3.922c0-1.597-0.5-2.888-1.499-3.875s-2.528-1.479-4.585-1.479H128.19
			c-1.825,0-3.325,0.29-4.498,0.869c-1.173,0.58-2.036,1.503-2.586,2.771c-0.551,1.268-0.826,2.904-0.826,4.908v51.756
			c0,3.006,0.615,5.182,1.847,6.528C123.359,85.987,125.38,86.66,128.19,86.66z M186.556,29.503h23.251
			c-3.651,5.01-6.801,10.043-9.452,15.099c-2.651,5.057-4.861,9.988-6.628,14.794c-1.768,4.807-3.042,8.932-3.824,12.375
			c-0.782,3.445-1.173,6.169-1.173,8.172c0,2.599,0.536,4.564,1.608,5.894c1.071,1.33,2.491,1.996,4.259,1.996
			c1.854,0,3.339-0.619,4.455-1.855c1.115-1.237,1.977-3.452,2.586-6.646c0.261-1.377,0.565-3.365,0.913-5.965
			c0.348-2.599,0.666-4.712,0.956-6.34c0.289-1.628,0.782-3.679,1.478-6.152c1.651-5.604,3.469-10.348,5.454-14.23
			c1.984-3.882,3.911-7.131,5.78-9.745c1.869-2.614,3.534-5.002,4.998-7.162c1.463-2.16,2.195-3.898,2.195-5.213
			c0-2.16-0.623-3.71-1.869-4.65c-1.246-0.939-3.259-1.409-6.041-1.409h-28.944c-2.289,0-4.071,0.313-5.345,0.939
			c-1.275,0.627-1.912,2.02-1.912,4.18c0,2.036,0.601,3.53,1.804,4.485C182.304,29.026,184.122,29.503,186.556,29.503z
			 M256.069,77.807c-1.521,1.143-3.47,1.714-5.845,1.714c-2.927,0-5.237-0.564-6.932-1.691c-1.695-1.127-3.151-2.833-4.368-5.119
			c-0.608-1.19-1.246-2.113-1.912-2.771c-0.667-0.657-1.623-0.986-2.868-0.986c-1.42,0-2.593,0.501-3.52,1.503
			c-0.928,1.002-1.391,2.207-1.391,3.616c0,2.13,0.724,4.25,2.173,6.364c1.448,2.113,3.694,3.875,6.736,5.284
			s6.693,2.113,10.952,2.113c4.461,0,8.25-0.65,11.365-1.949c3.114-1.299,5.468-3.209,7.062-5.73c1.593-2.52,2.39-5.549,2.39-9.088
			c0-2.348-0.602-4.438-1.804-6.27c-1.203-1.832-2.97-3.42-5.302-4.767c-2.333-1.346-5.339-2.505-9.018-3.475
			c-3.101-0.814-5.534-1.503-7.301-2.066c-1.768-0.564-3.173-1.275-4.216-2.137c-1.043-0.861-1.565-1.965-1.565-3.311
			c0-1.471,0.71-2.701,2.13-3.687c1.419-0.986,3.201-1.479,5.345-1.479c2.086,0,3.737,0.376,4.954,1.127
			c1.217,0.751,2.274,1.754,3.172,3.006c1.101,1.503,2.079,2.63,2.933,3.381c0.854,0.751,1.891,1.127,3.107,1.127
			c1.68,0,2.977-0.47,3.89-1.409c0.913-0.939,1.369-2.144,1.369-3.616c0-1.346-0.428-2.724-1.282-4.133
			c-0.855-1.409-2.101-2.692-3.737-3.851c-1.637-1.158-3.68-2.082-6.128-2.771c-2.449-0.688-5.208-1.033-8.279-1.033
			c-3.911,0-7.251,0.681-10.017,2.043c-2.767,1.362-4.861,3.186-6.28,5.471c-1.42,2.286-2.13,4.713-2.13,7.28
			c0,2.881,0.767,5.307,2.303,7.28c1.535,1.973,3.585,3.562,6.149,4.767c2.564,1.206,5.889,2.356,9.974,3.452
			c3.621,0.939,6.221,1.926,7.801,2.959c1.579,1.033,2.369,2.677,2.369,4.931C258.351,75.358,257.59,76.664,256.069,77.807z
			 M287.099,85.815c2.274,1.284,4.846,1.926,7.714,1.926c2.375,0,4.491-0.321,6.345-0.963c1.854-0.641,3.564-1.62,5.128-2.935
			s3.056-2.943,4.476-4.884v1.644c0,2.286,0.528,4.062,1.586,5.331c1.057,1.268,2.397,1.902,4.02,1.902
			c1.622,0,2.948-0.611,3.977-1.832c1.028-1.221,1.543-3.053,1.543-5.495v-37.15c0-2.567-0.536-4.485-1.608-5.753
			c-1.072-1.268-2.492-1.902-4.259-1.902c-1.768,0-3.202,0.642-4.302,1.926c-1.101,1.284-1.651,3.194-1.651,5.73v15.593
			c0,6.137-0.333,10.114-1,11.929c-0.811,2.066-2.101,3.742-3.868,5.025c-1.768,1.284-3.651,1.926-5.65,1.926
			c-2.058,0-3.687-0.571-4.889-1.714c-1.203-1.143-2.036-2.724-2.499-4.743c-0.464-2.02-0.695-4.516-0.695-7.491V43.358
			c0-2.536-0.551-4.445-1.651-5.73c-1.101-1.283-2.55-1.926-4.346-1.926c-1.768,0-3.187,0.634-4.259,1.902
			c-1.072,1.268-1.608,3.186-1.608,5.753v25.408c0,5.104,0.739,9.017,2.216,11.741C283.064,82.762,284.824,84.531,287.099,85.815z
			 M358.068,77.807c-1.521,1.143-3.47,1.714-5.845,1.714c-2.927,0-5.237-0.564-6.932-1.691c-1.695-1.127-3.151-2.833-4.368-5.119
			c-0.608-1.19-1.246-2.113-1.912-2.771c-0.667-0.657-1.623-0.986-2.868-0.986c-1.42,0-2.593,0.501-3.52,1.503
			c-0.928,1.002-1.391,2.207-1.391,3.616c0,2.13,0.724,4.25,2.173,6.364c1.448,2.113,3.694,3.875,6.736,5.284
			c3.042,1.409,6.693,2.113,10.952,2.113c4.461,0,8.25-0.65,11.365-1.949c3.114-1.299,5.468-3.209,7.062-5.73
			c1.593-2.52,2.39-5.549,2.39-9.088c0-2.348-0.602-4.438-1.804-6.27c-1.203-1.832-2.97-3.42-5.302-4.767
			c-2.333-1.346-5.339-2.505-9.018-3.475c-3.101-0.814-5.534-1.503-7.301-2.066c-1.768-0.564-3.173-1.275-4.216-2.137
			c-1.043-0.861-1.565-1.965-1.565-3.311c0-1.471,0.71-2.701,2.13-3.687c1.419-0.986,3.201-1.479,5.345-1.479
			c2.086,0,3.737,0.376,4.954,1.127c1.217,0.751,2.274,1.754,3.172,3.006c1.101,1.503,2.079,2.63,2.934,3.381
			c0.854,0.751,1.89,1.127,3.107,1.127c1.68,0,2.977-0.47,3.89-1.409c0.913-0.939,1.369-2.144,1.369-3.616
			c0-1.346-0.428-2.724-1.282-4.133c-0.855-1.409-2.101-2.692-3.737-3.851c-1.637-1.158-3.68-2.082-6.128-2.771
			c-2.449-0.688-5.208-1.033-8.279-1.033c-3.911,0-7.251,0.681-10.017,2.043c-2.767,1.362-4.861,3.186-6.28,5.471
			c-1.42,2.286-2.13,4.713-2.13,7.28c0,2.881,0.767,5.307,2.303,7.28c1.535,1.973,3.585,3.562,6.149,4.767
			c2.564,1.206,5.889,2.356,9.974,3.452c3.621,0.939,6.221,1.926,7.801,2.959c1.579,1.033,2.369,2.677,2.369,4.931
			C360.349,75.358,359.589,76.664,358.068,77.807z M385.164,71.96h21.817v8.736c0,2.348,0.5,4.126,1.499,5.331
			c1,1.205,2.31,1.808,3.933,1.808c1.651,0,2.969-0.587,3.955-1.761c0.985-1.174,1.478-2.966,1.478-5.378V71.96h2.651
			c2.201,0,3.853-0.415,4.954-1.245c1.101-0.829,1.651-2.152,1.651-3.969c0-2.223-0.674-3.663-2.021-4.321s-3.137-0.986-5.367-0.986
			h-1.869V25.089c0-5.448-2.202-8.172-6.606-8.172c-1.362,0-2.528,0.493-3.498,1.479c-0.971,0.986-2.21,2.576-3.716,4.767
			l-23.033,33.298c-0.638,0.909-1.173,1.675-1.608,2.301c-0.435,0.627-0.855,1.276-1.26,1.949c-0.406,0.674-0.71,1.315-0.913,1.926
			c-0.203,0.611-0.304,1.214-0.304,1.808c0,2.317,0.688,4.149,2.064,5.495C380.347,71.287,382.411,71.96,385.164,71.96z
			 M406.981,34.153V61.44h-18.687L406.981,34.153z"/>
	</g>
</g>
</svg>
