<?xml version="1.0" encoding="iso-8859-1"?>
<!-- Generator: Adobe Illustrator 21.0.2, SVG Export Plug-In . SVG Version: 6.00 Build 0)  -->
<svg version="1.1" id="Ebm7_1_" xmlns="http://www.w3.org/2000/svg" xmlns:xlink="http://www.w3.org/1999/xlink" x="0px" y="0px"
	 viewBox="0 0 533 700" style="enable-background:new 0 0 533 700;" xml:space="preserve">
<g id="Ebm7">
	<g>
		<path style="fill-rule:evenodd;clip-rule:evenodd;" d="M440,469.575V462v-8V349v-8V238v-8v-96v-15v-4.5H97v4.5v15v96v8v103v8
			v10.589c-21.376,2.506-37.965,20.681-37.965,42.743c0,22.063,16.589,40.238,37.965,42.744V454v8v103v8v101h10V573h101v101h10V573
			h101v101h10V573h101v101h10V573v-8v-9.91c21.43-2.455,38.077-20.656,38.077-42.758C478.077,490.231,461.43,472.03,440,469.575z
			 M208,565H107V462h101V565z M208,359.716c-20.891,2.947-36.965,20.899-36.965,42.616c0,21.718,16.074,39.67,36.965,42.616V454H107
			v-8.91c21.43-2.455,38.077-20.656,38.077-42.758c0-22.101-16.647-40.302-38.077-42.758V349h101V359.716z M208,341H107V238h101V341
			z M208,230H107v-96h101V230z M319,565H218V462h101V565z M319,454H218v-8.806c21.91-1.994,39.077-20.417,39.077-42.862
			c0-22.444-17.167-40.868-39.077-42.862V349h101V454z M319,244.589c-21.376,2.506-37.965,20.681-37.965,42.743
			c0,22.063,16.589,40.238,37.965,42.744V341H218V238h101V244.589z M319,230H218v-96h101V230z M430,469.589
			c-21.376,2.506-37.965,20.681-37.965,42.743c0,22.063,16.589,40.238,37.965,42.744V565H329V462h101V469.589z M430,454H329V349h101
			V454z M430,341H329v-10.91c21.43-2.455,38.077-20.656,38.077-42.758c0-22.101-16.647-40.302-38.077-42.758V238h101V341z M430,230
			H329v-96h101V230z M162.567,86.66h35.072c2.028,0,3.556-0.509,4.585-1.526c1.028-1.017,1.543-2.34,1.543-3.969
			c0-1.691-0.515-3.045-1.543-4.063c-1.029-1.017-2.557-1.526-4.585-1.526h-30.074V55.992h26.771c1.999,0,3.477-0.493,4.433-1.479
			c0.956-0.986,1.434-2.262,1.434-3.828c0-1.565-0.486-2.825-1.456-3.781c-0.971-0.955-2.441-1.432-4.411-1.432h-26.771V28.564
			h29.074c2.057,0,3.585-0.493,4.585-1.479s1.499-2.293,1.499-3.922c0-1.597-0.5-2.888-1.499-3.875s-2.528-1.479-4.585-1.479
			h-34.072c-1.825,0-3.325,0.29-4.498,0.869c-1.173,0.58-2.036,1.503-2.586,2.771c-0.551,1.268-0.826,2.904-0.826,4.908v51.756
			c0,3.006,0.615,5.182,1.847,6.528C157.736,85.987,159.756,86.66,162.567,86.66z M218.456,87.834c1.651,0,3.013-0.619,4.085-1.855
			c1.072-1.237,1.608-3.06,1.608-5.471V79.24c1.304,1.628,2.354,2.849,3.151,3.663c0.797,0.815,1.76,1.605,2.89,2.372
			c1.13,0.768,2.499,1.385,4.107,1.855c1.608,0.47,3.325,0.705,5.15,0.705c2.984,0,5.715-0.65,8.192-1.949
			c2.477-1.299,4.585-3.139,6.323-5.518c1.738-2.379,3.064-5.19,3.977-8.43c0.913-3.241,1.369-6.802,1.369-10.685
			c0-5.26-0.819-9.808-2.455-13.643c-1.637-3.835-3.941-6.763-6.91-8.782c-2.97-2.02-6.425-3.029-10.365-3.029
			c-3.419,0-6.287,0.666-8.605,1.996c-2.318,1.331-4.592,3.249-6.823,5.753V23.961c0-2.348-0.493-4.156-1.478-5.424
			c-0.985-1.268-2.39-1.902-4.216-1.902c-1.738,0-3.093,0.666-4.063,1.996c-0.971,1.331-1.456,3.296-1.456,5.894v55.983
			c0,2.411,0.5,4.235,1.499,5.471C215.435,87.216,216.775,87.834,218.456,87.834z M226.235,53.056
			c1.014-2.52,2.404-4.446,4.172-5.777c1.767-1.33,3.781-1.996,6.041-1.996c2.201,0,4.129,0.666,5.78,1.996
			c1.651,1.331,2.926,3.217,3.824,5.659c0.898,2.442,1.347,5.354,1.347,8.736c0,5.229-1.08,9.245-3.238,12.047
			c-2.159,2.802-4.73,4.203-7.714,4.203c-3.506,0-6.338-1.369-8.496-4.109c-2.159-2.739-3.238-6.661-3.238-11.765
			C224.714,58.575,225.22,55.577,226.235,53.056z M274.257,87.834c1.825,0,3.295-0.681,4.411-2.043
			c1.115-1.362,1.673-3.373,1.673-6.035v-17.33c0-5.385,0.615-9.518,1.847-12.399c1.231-2.88,3.788-4.321,7.671-4.321
			c1.941,0,3.361,0.572,4.259,1.714c0.898,1.143,1.448,2.607,1.651,4.391c0.202,1.785,0.304,4.29,0.304,7.514v20.43
			c0,2.693,0.557,4.713,1.673,6.059c1.115,1.346,2.571,2.02,4.368,2.02c1.854,0,3.346-0.674,4.476-2.02
			c1.13-1.346,1.695-3.365,1.695-6.059V62.708c0-5.479,0.435-9.299,1.304-11.46c0.782-1.691,1.876-3.037,3.281-4.039
			c1.405-1.002,2.89-1.503,4.455-1.503c1.941,0,3.39,0.564,4.346,1.691c0.956,1.127,1.543,2.521,1.76,4.18
			c0.217,1.66,0.326,3.867,0.326,6.622v21.557c0,2.662,0.572,4.673,1.717,6.035c1.144,1.362,2.614,2.043,4.411,2.043
			c1.854,0,3.346-0.674,4.476-2.02c1.13-1.346,1.695-3.365,1.695-6.059V54.724c0-4.978-0.507-8.625-1.521-10.943
			c-1.159-2.567-2.912-4.539-5.259-5.918c-2.347-1.377-5.143-2.066-8.388-2.066c-2.781,0-5.317,0.634-7.605,1.902
			c-2.289,1.268-4.433,3.217-6.432,5.847c-1.391-2.599-3.158-4.539-5.302-5.824c-2.144-1.284-4.709-1.926-7.692-1.926
			c-2.868,0-5.476,0.627-7.823,1.879c-2.347,1.253-4.549,3.21-6.606,5.871v-1.221c0-2.066-0.543-3.687-1.63-4.861
			s-2.441-1.761-4.063-1.761c-1.681,0-3.035,0.627-4.063,1.879c-1.029,1.253-1.543,3.084-1.543,5.495v36.68
			c0,2.662,0.572,4.673,1.717,6.035C270.99,87.153,272.46,87.834,274.257,87.834z M355.308,29.503h23.251
			c-3.651,5.01-6.801,10.043-9.452,15.099c-2.651,5.057-4.861,9.988-6.628,14.794c-1.768,4.807-3.042,8.932-3.824,12.375
			c-0.782,3.445-1.173,6.169-1.173,8.172c0,2.599,0.536,4.564,1.608,5.894c1.072,1.33,2.491,1.996,4.259,1.996
			c1.854,0,3.339-0.619,4.455-1.855c1.115-1.237,1.977-3.452,2.586-6.646c0.261-1.377,0.565-3.365,0.913-5.965
			c0.348-2.599,0.666-4.712,0.956-6.34c0.289-1.628,0.782-3.679,1.478-6.152c1.651-5.604,3.469-10.348,5.454-14.23
			c1.984-3.882,3.911-7.131,5.78-9.745c1.869-2.614,3.534-5.002,4.998-7.162c1.463-2.16,2.195-3.898,2.195-5.213
			c0-2.16-0.623-3.71-1.869-4.65c-1.246-0.939-3.259-1.409-6.041-1.409h-28.944c-2.289,0-4.071,0.313-5.345,0.939
			c-1.275,0.627-1.912,2.02-1.912,4.18c0,2.036,0.601,3.53,1.804,4.485C351.056,29.026,352.875,29.503,355.308,29.503z"/>
	</g>
</g>
</svg>
