<?xml version="1.0" encoding="iso-8859-1"?>
<!-- Generator: Adobe Illustrator 21.0.2, SVG Export Plug-In . SVG Version: 6.00 Build 0)  -->
<svg version="1.1" id="Gbsus2_1_" xmlns="http://www.w3.org/2000/svg" xmlns:xlink="http://www.w3.org/1999/xlink" x="0px" y="0px"
	 viewBox="0 0 533 700" style="enable-background:new 0 0 533 700;" xml:space="preserve">
<g id="Gbsus2">
	<g>
		<path style="fill-rule:evenodd;clip-rule:evenodd;" d="M440,469.575V462v-8V349v-8V238v-8v-4.91
			c21.43-2.455,38.077-20.656,38.077-42.758c0-22.101-16.647-40.302-38.077-42.758V134v-15v-4.5H97v4.5v15v5.586
			c-21.376,2.505-37.965,20.683-37.965,42.746c0,22.063,16.589,40.241,37.965,42.746V230v8v103v8v105v8v103v8v101h10V573h101v101h10
			V573h101v101h10V573h101v101h10V573v-8v-9.91c21.43-2.455,38.077-20.656,38.077-42.758C478.077,490.231,461.43,472.03,440,469.575
			z M208,565H107V462h101V565z M208,454H107V349h101V454z M208,341H107V238h101V341z M208,230H107v-4.619c13.768,0,53.604,0,101,0
			V230z M208,139.283c-47.394,0-87.229,0-101,0V134h101V139.283z M319,565H218V462h101V565z M319,454H218V349h101V454z M319,245.589
			c-21.376,2.506-37.965,20.681-37.965,42.743c0,22.063,16.589,40.238,37.965,42.744V341H218V238h101V245.589z M319,230H218v-4.618
			c32.715,0,68.292,0,101,0V230z M319,139.283c-32.708,0-68.285,0-101,0V134h101V139.283z M430,469.589
			c-21.376,2.506-37.965,20.681-37.965,42.743c0,22.063,16.589,40.238,37.965,42.744V565H329V462h101V469.589z M430,454H329V349h101
			V454z M430,341H329v-9.91c21.43-2.455,38.077-20.656,38.077-42.758c0-22.101-16.647-40.302-38.077-42.758V238h101V341z M430,230
			H329v-4.618c47.472,0,87.342,0,101,0V230z M430,139.283c-13.658,0-53.528,0-101,0V134h101V139.283z M119.564,78.3
			c2.839,3.1,6.272,5.464,10.3,7.092c4.027,1.628,8.489,2.442,13.385,2.442c4.201,0,8.083-0.517,11.647-1.55
			c3.564-1.033,7.272-2.677,11.126-4.931c1.332-0.782,2.426-1.597,3.281-2.442c0.854-0.845,1.441-1.792,1.76-2.841
			c0.319-1.049,0.478-2.45,0.478-4.203V58.669c0-2.379-0.384-4.164-1.152-5.354c-0.768-1.19-1.775-1.956-3.02-2.301
			c-1.246-0.344-2.767-0.517-4.563-0.517H148.16c-1.768,0-3.166,0.501-4.194,1.503c-1.029,1.002-1.543,2.271-1.543,3.804
			c0,1.879,0.615,3.21,1.847,3.992c1.231,0.783,3.049,1.174,5.454,1.174h9.996v11.178c-2.694,1.566-5.353,2.771-7.975,3.616
			c-2.622,0.845-5.426,1.268-8.409,1.268c-6.143,0-10.93-2.176-14.363-6.528c-3.433-4.352-5.15-10.567-5.15-18.645
			c0-3.726,0.441-7.123,1.326-10.191c0.883-3.068,2.158-5.659,3.824-7.773c1.666-2.113,3.672-3.726,6.019-4.837
			c2.347-1.111,5.012-1.667,7.996-1.667c2.897,0,5.28,0.47,7.149,1.409c1.869,0.939,3.353,2.098,4.455,3.475
			c1.101,1.378,2.448,3.413,4.042,6.105c0.579,0.845,1.296,1.503,2.151,1.973c0.854,0.47,1.745,0.704,2.673,0.704
			c1.68,0,3.122-0.618,4.324-1.855c1.202-1.237,1.804-2.731,1.804-4.485c0-1.628-0.521-3.491-1.565-5.589
			c-1.043-2.097-2.593-4.086-4.65-5.965c-2.057-1.879-4.737-3.436-8.04-4.673c-3.303-1.237-7.099-1.855-11.386-1.855
			c-5.215,0-9.88,0.822-13.994,2.466c-4.114,1.644-7.605,4.016-10.474,7.115c-2.868,3.1-5.041,6.873-6.519,11.319
			c-1.478,4.446-2.216,9.346-2.216,14.7c0,5.448,0.761,10.379,2.282,14.794S116.724,75.201,119.564,78.3z M188.273,87.834
			c1.651,0,3.013-0.619,4.085-1.855c1.072-1.237,1.608-3.06,1.608-5.471V79.24c1.304,1.628,2.354,2.849,3.151,3.663
			c0.797,0.815,1.76,1.605,2.89,2.372c1.13,0.768,2.499,1.385,4.107,1.855c1.608,0.47,3.325,0.705,5.15,0.705
			c2.984,0,5.715-0.65,8.192-1.949c2.477-1.299,4.585-3.139,6.323-5.518c1.738-2.379,3.064-5.19,3.977-8.43
			c0.913-3.241,1.369-6.802,1.369-10.685c0-5.26-0.819-9.808-2.456-13.643c-1.637-3.835-3.94-6.763-6.91-8.782
			c-2.97-2.02-6.425-3.029-10.365-3.029c-3.419,0-6.287,0.666-8.605,1.996c-2.318,1.331-4.592,3.249-6.823,5.753V23.961
			c0-2.348-0.493-4.156-1.478-5.424c-0.985-1.268-2.39-1.902-4.216-1.902c-1.738,0-3.093,0.666-4.063,1.996
			c-0.971,1.331-1.456,3.296-1.456,5.894v55.983c0,2.411,0.5,4.235,1.499,5.471C185.252,87.216,186.592,87.834,188.273,87.834z
			 M196.052,53.056c1.014-2.52,2.405-4.446,4.172-5.777c1.767-1.33,3.781-1.996,6.041-1.996c2.201,0,4.129,0.666,5.78,1.996
			c1.651,1.331,2.926,3.217,3.824,5.659c0.898,2.442,1.347,5.354,1.347,8.736c0,5.229-1.08,9.245-3.238,12.047
			c-2.159,2.802-4.73,4.203-7.714,4.203c-3.506,0-6.338-1.369-8.496-4.109c-2.159-2.739-3.238-6.661-3.238-11.765
			C194.531,58.575,195.037,55.577,196.052,53.056z M263.001,77.807c-1.521,1.143-3.47,1.714-5.845,1.714
			c-2.927,0-5.237-0.564-6.932-1.691c-1.695-1.127-3.151-2.833-4.368-5.119c-0.608-1.19-1.246-2.113-1.912-2.771
			c-0.667-0.657-1.623-0.986-2.868-0.986c-1.42,0-2.593,0.501-3.52,1.503c-0.928,1.002-1.391,2.207-1.391,3.616
			c0,2.13,0.724,4.25,2.173,6.364c1.448,2.113,3.694,3.875,6.736,5.284c3.042,1.409,6.693,2.113,10.952,2.113
			c4.461,0,8.25-0.65,11.365-1.949c3.114-1.299,5.468-3.209,7.062-5.73c1.593-2.52,2.39-5.549,2.39-9.088
			c0-2.348-0.602-4.438-1.804-6.27c-1.203-1.832-2.97-3.42-5.302-4.767c-2.333-1.346-5.339-2.505-9.018-3.475
			c-3.101-0.814-5.534-1.503-7.301-2.066c-1.768-0.564-3.172-1.275-4.216-2.137c-1.043-0.861-1.565-1.965-1.565-3.311
			c0-1.471,0.71-2.701,2.13-3.687c1.419-0.986,3.201-1.479,5.345-1.479c2.086,0,3.737,0.376,4.954,1.127
			c1.217,0.751,2.274,1.754,3.173,3.006c1.101,1.503,2.079,2.63,2.933,3.381c0.854,0.751,1.891,1.127,3.107,1.127
			c1.68,0,2.977-0.47,3.89-1.409c0.913-0.939,1.369-2.144,1.369-3.616c0-1.346-0.428-2.724-1.282-4.133
			c-0.855-1.409-2.101-2.692-3.737-3.851c-1.637-1.158-3.68-2.082-6.128-2.771c-2.449-0.688-5.208-1.033-8.279-1.033
			c-3.911,0-7.251,0.681-10.017,2.043c-2.767,1.362-4.861,3.186-6.28,5.471c-1.42,2.286-2.13,4.713-2.13,7.28
			c0,2.881,0.767,5.307,2.303,7.28c1.535,1.973,3.585,3.562,6.149,4.767c2.564,1.206,5.889,2.356,9.974,3.452
			c3.621,0.939,6.221,1.926,7.801,2.959c1.579,1.033,2.369,2.677,2.369,4.931C265.282,75.358,264.522,76.664,263.001,77.807z
			 M294.03,85.815c2.274,1.284,4.846,1.926,7.714,1.926c2.375,0,4.491-0.321,6.345-0.963c1.854-0.641,3.564-1.62,5.128-2.935
			c1.565-1.315,3.056-2.943,4.476-4.884v1.644c0,2.286,0.528,4.062,1.586,5.331c1.057,1.268,2.397,1.902,4.02,1.902
			c1.622,0,2.948-0.611,3.977-1.832c1.028-1.221,1.543-3.053,1.543-5.495v-37.15c0-2.567-0.536-4.485-1.608-5.753
			c-1.072-1.268-2.492-1.902-4.259-1.902c-1.768,0-3.202,0.642-4.302,1.926c-1.101,1.284-1.651,3.194-1.651,5.73v15.593
			c0,6.137-0.333,10.114-1,11.929c-0.811,2.066-2.101,3.742-3.868,5.025c-1.768,1.284-3.651,1.926-5.65,1.926
			c-2.057,0-3.687-0.571-4.889-1.714c-1.203-1.143-2.036-2.724-2.499-4.743c-0.464-2.02-0.695-4.516-0.695-7.491V43.358
			c0-2.536-0.551-4.445-1.651-5.73c-1.101-1.283-2.55-1.926-4.346-1.926c-1.768,0-3.187,0.634-4.259,1.902
			c-1.072,1.268-1.608,3.186-1.608,5.753v25.408c0,5.104,0.739,9.017,2.216,11.741C289.995,82.762,291.756,84.531,294.03,85.815z
			 M364.999,77.807c-1.521,1.143-3.47,1.714-5.845,1.714c-2.927,0-5.237-0.564-6.932-1.691c-1.695-1.127-3.151-2.833-4.368-5.119
			c-0.608-1.19-1.246-2.113-1.912-2.771c-0.667-0.657-1.623-0.986-2.868-0.986c-1.42,0-2.593,0.501-3.52,1.503
			c-0.928,1.002-1.391,2.207-1.391,3.616c0,2.13,0.724,4.25,2.173,6.364c1.448,2.113,3.694,3.875,6.736,5.284
			c3.042,1.409,6.693,2.113,10.952,2.113c4.461,0,8.25-0.65,11.365-1.949c3.114-1.299,5.468-3.209,7.062-5.73
			c1.593-2.52,2.39-5.549,2.39-9.088c0-2.348-0.602-4.438-1.804-6.27c-1.203-1.832-2.97-3.42-5.302-4.767
			c-2.333-1.346-5.339-2.505-9.018-3.475c-3.101-0.814-5.534-1.503-7.301-2.066c-1.768-0.564-3.172-1.275-4.216-2.137
			c-1.043-0.861-1.565-1.965-1.565-3.311c0-1.471,0.71-2.701,2.13-3.687c1.419-0.986,3.201-1.479,5.346-1.479
			c2.086,0,3.737,0.376,4.954,1.127c1.217,0.751,2.274,1.754,3.173,3.006c1.101,1.503,2.079,2.63,2.933,3.381
			c0.854,0.751,1.891,1.127,3.107,1.127c1.68,0,2.977-0.47,3.89-1.409c0.913-0.939,1.369-2.144,1.369-3.616
			c0-1.346-0.428-2.724-1.282-4.133c-0.855-1.409-2.101-2.692-3.737-3.851c-1.637-1.158-3.68-2.082-6.128-2.771
			c-2.449-0.688-5.208-1.033-8.279-1.033c-3.911,0-7.251,0.681-10.017,2.043c-2.767,1.362-4.861,3.186-6.28,5.471
			c-1.42,2.286-2.13,4.713-2.13,7.28c0,2.881,0.767,5.307,2.303,7.28c1.535,1.973,3.585,3.562,6.149,4.767
			c2.564,1.206,5.889,2.356,9.974,3.452c3.621,0.939,6.221,1.926,7.801,2.959c1.579,1.033,2.369,2.677,2.369,4.931
			C367.281,75.358,366.52,76.664,364.999,77.807z M414.412,48.595c-1.579,1.832-3.557,3.656-5.932,5.471
			c-1.333,0.971-3.549,2.998-6.649,6.082c-3.101,3.084-6.577,6.786-10.43,11.107c-0.928,1.065-1.782,2.529-2.564,4.391
			c-0.782,1.863-1.173,3.358-1.173,4.485c0,1.754,0.608,3.28,1.825,4.579c1.217,1.3,2.912,1.949,5.085,1.949h31.986
			c1.912,0,3.339-0.532,4.281-1.597c0.941-1.064,1.412-2.364,1.412-3.898c0-1.722-0.594-3.084-1.782-4.086
			c-1.188-1.002-2.912-1.503-5.172-1.503h-22.686c0.724-1.19,1.434-2.207,2.13-3.053c1.622-2.129,4.613-5.119,8.974-8.97
			c4.36-3.851,7.467-6.676,9.322-8.477c1.854-1.8,3.672-4.289,5.454-7.468c1.782-3.177,2.673-6.708,2.673-10.591
			c0-2.473-0.428-4.861-1.282-7.162c-0.855-2.301-2.05-4.328-3.585-6.082c-1.536-1.753-3.318-3.13-5.346-4.133
			c-3.129-1.503-6.91-2.254-11.343-2.254c-3.68,0-6.888,0.587-9.626,1.761c-2.738,1.174-4.998,2.717-6.78,4.626
			c-1.782,1.91-3.122,4.039-4.02,6.387c-0.898,2.348-1.347,4.603-1.347,6.763c0,1.785,0.478,3.194,1.434,4.227
			c0.956,1.033,2.158,1.55,3.607,1.55c1.651,0,2.904-0.564,3.759-1.691c0.854-1.127,1.622-2.739,2.303-4.837
			c0.68-2.097,1.166-3.381,1.456-3.851c2.173-3.6,5.157-5.401,8.953-5.401c1.796,0,3.455,0.439,4.976,1.315
			c1.521,0.877,2.723,2.106,3.607,3.687c0.883,1.581,1.326,3.374,1.326,5.378c0,1.848-0.413,3.734-1.239,5.659
			C417.194,44.884,415.991,46.763,414.412,48.595z"/>
	</g>
</g>
</svg>
