<?xml version="1.0" encoding="utf-8"?>
<!-- Generator: Adobe Illustrator 21.0.2, SVG Export Plug-In . SVG Version: 6.00 Build 0)  -->
<svg version="1.1" id="Gmaj7_1_" xmlns="http://www.w3.org/2000/svg" xmlns:xlink="http://www.w3.org/1999/xlink" x="0px" y="0px"
	 viewBox="0 0 533 700" style="enable-background:new 0 0 533 700;" xml:space="preserve">
<style type="text/css">
	.st0{fill-rule:evenodd;clip-rule:evenodd;}
</style>
<g id="Gmaj7">
	<g>
		<path class="st0" d="M440,246.6V238v-8v-96v-15v-4.5H97v4.5v15v96v8v103v8v105v8v103v8v101h10V573h101v101h10V573h101v101h10V573
			h101v101h10V573v-8V462v-8V349v-8v-8.9c21.4-2.5,38.1-20.7,38.1-42.8C478.1,267.2,461.4,249,440,246.6z M208,565H107V462h101V565z
			 M208,454H107V349h101V454z M208,246.7c-20.9,2.9-37,20.9-37,42.6c0,21.7,16.1,39.7,37,42.6v9.1H107V238h101V246.7z M208,230H107
			v-96h101V230z M319,565H218V462h101V565z M319,454H218V349h101V454z M319,246.6c-21.4,2.5-38,20.7-38,42.7
			c0,22.1,16.6,40.2,38,42.7v8.9H218v-8.8c21.9-2,39.1-20.4,39.1-42.9c0-22.4-17.2-40.9-39.1-42.9V238h101V246.6z M319,230H218v-96
			h101V230z M430,565H329V462h101V565z M430,454H329V349h101V454z M430,246.6c-21.4,2.5-38,20.7-38,42.7c0,22.1,16.6,40.2,38,42.7
			v8.9H329v-8.9c21.4-2.5,38.1-20.7,38.1-42.8c0-22.1-16.6-40.3-38.1-42.8V238h101V246.6z M430,230H329v-96h101V230z M144.6,78.3
			c2.8,3.1,6.3,5.5,10.3,7.1c4,1.6,8.5,2.4,13.4,2.4c4.2,0,8.1-0.5,11.6-1.5c3.6-1,7.3-2.7,11.1-4.9c1.3-0.8,2.4-1.6,3.3-2.4
			c0.9-0.8,1.4-1.8,1.8-2.8c0.3-1,0.5-2.4,0.5-4.2V58.7c0-2.4-0.4-4.2-1.2-5.4c-0.8-1.2-1.8-2-3-2.3c-1.2-0.3-2.8-0.5-4.6-0.5h-14.6
			c-1.8,0-3.2,0.5-4.2,1.5c-1,1-1.5,2.3-1.5,3.8c0,1.9,0.6,3.2,1.8,4c1.2,0.8,3,1.2,5.5,1.2h10v11.2c-2.7,1.6-5.4,2.8-8,3.6
			c-2.6,0.8-5.4,1.3-8.4,1.3c-6.1,0-10.9-2.2-14.4-6.5c-3.4-4.4-5.1-10.6-5.1-18.6c0-3.7,0.4-7.1,1.3-10.2c0.9-3.1,2.2-5.7,3.8-7.8
			c1.7-2.1,3.7-3.7,6-4.8c2.3-1.1,5-1.7,8-1.7c2.9,0,5.3,0.5,7.1,1.4c1.9,0.9,3.4,2.1,4.5,3.5c1.1,1.4,2.4,3.4,4,6.1
			c0.6,0.8,1.3,1.5,2.2,2c0.9,0.5,1.7,0.7,2.7,0.7c1.7,0,3.1-0.6,4.3-1.9c1.2-1.2,1.8-2.7,1.8-4.5c0-1.6-0.5-3.5-1.6-5.6
			c-1-2.1-2.6-4.1-4.7-6c-2.1-1.9-4.7-3.4-8-4.7c-3.3-1.2-7.1-1.9-11.4-1.9c-5.2,0-9.9,0.8-14,2.5c-4.1,1.6-7.6,4-10.5,7.1
			c-2.9,3.1-5,6.9-6.5,11.3c-1.5,4.4-2.2,9.3-2.2,14.7c0,5.4,0.8,10.4,2.3,14.8S141.8,75.2,144.6,78.3z M213.5,87.8
			c1.8,0,3.3-0.7,4.4-2c1.1-1.4,1.7-3.4,1.7-6V62.4c0-5.4,0.6-9.5,1.8-12.4c1.2-2.9,3.8-4.3,7.7-4.3c1.9,0,3.4,0.6,4.3,1.7
			c0.9,1.1,1.4,2.6,1.7,4.4c0.2,1.8,0.3,4.3,0.3,7.5v20.4c0,2.7,0.6,4.7,1.7,6.1c1.1,1.3,2.6,2,4.4,2c1.9,0,3.3-0.7,4.5-2
			c1.1-1.3,1.7-3.4,1.7-6.1v-17c0-5.5,0.4-9.3,1.3-11.5c0.8-1.7,1.9-3,3.3-4c1.4-1,2.9-1.5,4.5-1.5c1.9,0,3.4,0.6,4.3,1.7
			c1,1.1,1.5,2.5,1.8,4.2c0.2,1.7,0.3,3.9,0.3,6.6v21.6c0,2.7,0.6,4.7,1.7,6c1.1,1.4,2.6,2,4.4,2c1.9,0,3.3-0.7,4.5-2
			c1.1-1.3,1.7-3.4,1.7-6.1v-25c0-5-0.5-8.6-1.5-10.9c-1.2-2.6-2.9-4.5-5.3-5.9c-2.3-1.4-5.1-2.1-8.4-2.1c-2.8,0-5.3,0.6-7.6,1.9
			c-2.3,1.3-4.4,3.2-6.4,5.8c-1.4-2.6-3.2-4.5-5.3-5.8c-2.1-1.3-4.7-1.9-7.7-1.9c-2.9,0-5.5,0.6-7.8,1.9c-2.3,1.3-4.5,3.2-6.6,5.9
			v-1.2c0-2.1-0.5-3.7-1.6-4.9c-1.1-1.2-2.4-1.8-4.1-1.8c-1.7,0-3,0.6-4.1,1.9c-1,1.3-1.5,3.1-1.5,5.5v36.7c0,2.7,0.6,4.7,1.7,6
			C210.2,87.2,211.7,87.8,213.5,87.8z M301.4,58.2c-3,0.7-4.9,1.1-5.6,1.3c-3.6,0.8-6.4,2.5-8.5,5c-2.1,2.5-3.1,5.5-3.1,9
			c0,2.6,0.6,5,1.9,7.2c1.2,2.2,3,4,5.3,5.3c2.3,1.3,5,1.9,8,1.9c3.3,0,6.3-0.6,9-1.8c2.7-1.2,5.5-3,8.3-5.4
			c1.3,2.3,2.6,4.1,3.8,5.4c1.2,1.2,2.4,1.9,3.6,1.9c1.4,0,2.7-0.5,3.9-1.6c1.1-1.1,1.7-2.3,1.7-3.6c0-0.8-0.4-2.4-1.1-5
			c-0.7-2.6-1.1-5.1-1.1-7.5c0-2.6,0.1-4.9,0.1-7c0-2.1,0-4.6,0-7.7c0-4.8-0.6-8.6-1.8-11.5c-1.2-2.9-3.3-5-6.3-6.3
			c-3-1.3-7.1-2-12.3-2c-4.7,0-8.6,0.7-11.7,2.1c-3.1,1.4-5.4,3.1-6.9,5.3c-1.5,2.1-2.2,4.3-2.2,6.6c0,1.4,0.5,2.6,1.5,3.5
			c1,0.9,2.1,1.4,3.5,1.4c1.5,0,2.4-0.3,2.9-0.9c0.4-0.6,1.2-1.8,2.3-3.6c1.1-1.8,2.4-3.2,3.9-4.1c1.5-0.9,3.8-1.4,6.8-1.4
			c3.5,0,5.8,0.8,6.9,2.4c1.1,1.6,1.7,4.1,1.9,7.4c-2.5,0.8-4.8,1.4-6.9,2C307,56.9,304.4,57.5,301.4,58.2z M316,63.9
			c0,4.4-0.5,7.6-1.6,9.6c-0.9,1.8-2.4,3.2-4.4,4.3c-2,1.1-4.2,1.7-6.5,1.7c-2.2,0-4-0.7-5.3-2c-1.4-1.4-2-3-2-5
			c0-1.9,0.6-3.3,1.7-4.4c1.2-1,2.4-1.8,3.7-2.1c1.3-0.4,3.6-0.9,6.9-1.7c3.3-0.8,5.8-1.5,7.6-2.2V63.9z M345.8,29.7
			c1.6,0,3-0.6,4.1-1.7c1.2-1.1,1.7-2.7,1.7-4.6c0-2-0.6-3.6-1.8-4.6c-1.2-1.1-2.5-1.6-4.1-1.6c-1.6,0-3,0.6-4.2,1.8
			c-1.2,1.2-1.8,2.7-1.8,4.5c0,2,0.6,3.6,1.8,4.6C342.7,29.2,344.1,29.7,345.8,29.7z M327.1,100.6c0,2,0.9,3.6,2.8,4.6
			c1.9,1.1,4.6,1.6,8.2,1.6c6.4,0,10.6-2.7,12.6-8.2c0.3-0.9,0.6-2.3,0.8-4.3c0.2-2,0.3-4.5,0.3-7.6V43.4c0-2.6-0.5-4.5-1.6-5.8
			c-1.1-1.3-2.5-1.9-4.2-1.9c-1.8,0-3.2,0.6-4.3,1.9c-1.1,1.3-1.7,3.2-1.7,5.7v43.2c0,3.5-0.3,5.9-0.8,7.2c-0.5,1.3-1.6,2-3.2,2
			c-0.3,0-0.8,0-1.6-0.1c-0.8-0.1-1.3-0.1-1.7-0.2c-0.4,0-0.7-0.1-0.8-0.1c-1.4,0-2.5,0.5-3.3,1.4
			C327.5,97.9,327.1,99.1,327.1,100.6z M371.6,29.5h23.3c-3.7,5-6.8,10-9.5,15.1c-2.7,5.1-4.9,10-6.6,14.8c-1.8,4.8-3,8.9-3.8,12.4
			c-0.8,3.4-1.2,6.2-1.2,8.2c0,2.6,0.5,4.6,1.6,5.9c1.1,1.3,2.5,2,4.3,2c1.9,0,3.3-0.6,4.5-1.9c1.1-1.2,2-3.5,2.6-6.6
			c0.3-1.4,0.6-3.4,0.9-6c0.3-2.6,0.7-4.7,1-6.3c0.3-1.6,0.8-3.7,1.5-6.2c1.7-5.6,3.5-10.3,5.5-14.2c2-3.9,3.9-7.1,5.8-9.7
			c1.9-2.6,3.5-5,5-7.2c1.5-2.2,2.2-3.9,2.2-5.2c0-2.2-0.6-3.7-1.9-4.6c-1.2-0.9-3.3-1.4-6-1.4h-28.9c-2.3,0-4.1,0.3-5.3,0.9
			c-1.3,0.6-1.9,2-1.9,4.2c0,2,0.6,3.5,1.8,4.5C367.3,29,369.1,29.5,371.6,29.5z"/>
	</g>
</g>
</svg>
