<?xml version="1.0" encoding="iso-8859-1"?>
<!-- Generator: Adobe Illustrator 21.0.2, SVG Export Plug-In . SVG Version: 6.00 Build 0)  -->
<svg version="1.1" id="Am_1_" xmlns="http://www.w3.org/2000/svg" xmlns:xlink="http://www.w3.org/1999/xlink" x="0px" y="0px"
	 viewBox="0 0 533 700" style="enable-background:new 0 0 533 700;" xml:space="preserve">
<g id="Am">
	<g>
		<path style="fill-rule:evenodd;clip-rule:evenodd;" d="M97,114.5v4.5v15v96v8v7.589c-21.376,2.506-37.965,20.681-37.965,42.743
			c0,22.063,16.589,40.238,37.965,42.744V341v8v105v8v103v8v101h10V573h101v101h10V573h101v101h10V573h101v101h10V573v-8V462v-8V349
			v-8V238v-8v-96v-15v-4.5H97z M208,565H107V462h101V565z M208,454H107V349h101V454z M208,341H107v-9.91
			c21.43-2.455,38.077-20.656,38.077-42.758c0-22.101-16.647-40.302-38.077-42.758V238h101V341z M208,230H107v-96h101V230z M319,565
			H218V462h101V565z M319,454H218V349h101V454z M319,341H218V238h101V341z M319,230H218v-96h101V230z M430,565H329V462h101V565z
			 M430,454H329V349h101V454z M430,341H329V238h101V341z M430,230H329v-96h101V230z M208.198,87.834
			c1.912,0,3.288-0.603,4.129-1.808c0.84-1.205,1.854-3.53,3.042-6.974l3.042-8.829h25.902l3.042,8.642
			c0.405,1.065,0.891,2.294,1.456,3.687c0.565,1.394,1.093,2.427,1.586,3.1c0.492,0.674,1.101,1.205,1.825,1.597
			c0.724,0.391,1.593,0.587,2.608,0.587c1.738,0,3.223-0.666,4.455-1.996c1.231-1.33,1.847-2.794,1.847-4.391
			c0-1.534-0.652-3.992-1.956-7.374l-16.645-44.429c-0.782-2.223-1.427-3.999-1.934-5.331c-0.507-1.33-1.13-2.575-1.869-3.734
			c-0.739-1.158-1.71-2.105-2.912-2.841c-1.203-0.735-2.702-1.104-4.498-1.104c-1.768,0-3.253,0.368-4.455,1.104
			c-1.203,0.736-2.173,1.699-2.912,2.888c-0.739,1.19-1.434,2.685-2.086,4.485c-0.652,1.801-1.21,3.343-1.673,4.626l-16.297,44.711
			c-0.667,1.785-1.145,3.178-1.434,4.18c-0.29,1.002-0.435,1.973-0.435,2.912c0,1.628,0.623,3.084,1.869,4.368
			C205.141,87.192,206.575,87.834,208.198,87.834z M231.232,31.335l9.604,28.414h-19.035L231.232,31.335z M275.212,87.834
			c1.825,0,3.295-0.681,4.411-2.043c1.115-1.362,1.673-3.373,1.673-6.035v-17.33c0-5.385,0.615-9.518,1.847-12.399
			c1.231-2.88,3.788-4.321,7.671-4.321c1.941,0,3.361,0.572,4.259,1.714c0.898,1.143,1.448,2.607,1.651,4.391
			c0.202,1.785,0.304,4.29,0.304,7.514v20.43c0,2.693,0.557,4.713,1.673,6.059c1.115,1.346,2.571,2.02,4.368,2.02
			c1.854,0,3.346-0.674,4.476-2.02c1.13-1.346,1.695-3.365,1.695-6.059V62.708c0-5.479,0.435-9.299,1.304-11.46
			c0.782-1.691,1.876-3.037,3.281-4.039c1.405-1.002,2.89-1.503,4.455-1.503c1.941,0,3.39,0.564,4.346,1.691
			c0.956,1.127,1.543,2.521,1.76,4.18c0.217,1.66,0.326,3.867,0.326,6.622v21.557c0,2.662,0.572,4.673,1.717,6.035
			c1.144,1.362,2.614,2.043,4.411,2.043c1.854,0,3.346-0.674,4.476-2.02c1.13-1.346,1.695-3.365,1.695-6.059V54.724
			c0-4.978-0.507-8.625-1.521-10.943c-1.159-2.567-2.912-4.539-5.259-5.918c-2.347-1.377-5.143-2.066-8.388-2.066
			c-2.781,0-5.317,0.634-7.605,1.902c-2.289,1.268-4.433,3.217-6.432,5.847c-1.391-2.599-3.158-4.539-5.302-5.824
			c-2.144-1.284-4.709-1.926-7.692-1.926c-2.868,0-5.476,0.627-7.823,1.879c-2.347,1.253-4.549,3.21-6.606,5.871v-1.221
			c0-2.066-0.543-3.687-1.63-4.861c-1.086-1.174-2.441-1.761-4.063-1.761c-1.681,0-3.035,0.627-4.063,1.879
			c-1.029,1.253-1.543,3.084-1.543,5.495v36.68c0,2.662,0.572,4.673,1.717,6.035C271.945,87.153,273.416,87.834,275.212,87.834z"/>
	</g>
</g>
</svg>
