<?xml version="1.0" encoding="iso-8859-1"?>
<!-- Generator: Adobe Illustrator 21.0.2, SVG Export Plug-In . SVG Version: 6.00 Build 0)  -->
<svg version="1.1" id="B_1_" xmlns="http://www.w3.org/2000/svg" xmlns:xlink="http://www.w3.org/1999/xlink" x="0px" y="0px"
	 viewBox="0 0 533 700" style="enable-background:new 0 0 533 700;" xml:space="preserve">
<g id="B">
	<g>
		<path style="fill-rule:evenodd;clip-rule:evenodd;" d="M253.7,86.66h19.47c3.361,0,6.302-0.18,8.822-0.54
			c2.521-0.36,4.751-0.978,6.693-1.855c3.1-1.471,5.563-3.749,7.388-6.833c1.825-3.084,2.738-6.552,2.738-10.403
			c0-8.328-4.187-13.932-12.56-16.814c6.374-3.194,9.561-8.234,9.561-15.123c0-2.003-0.304-3.905-0.913-5.706
			c-0.608-1.8-1.493-3.444-2.651-4.931c-1.159-1.487-2.492-2.716-3.998-3.687c-1.768-1.158-3.767-1.941-5.997-2.348
			c-2.231-0.406-4.867-0.611-7.91-0.611H253.7c-2.753,0-4.745,0.666-5.976,1.996c-1.232,1.331-1.847,3.515-1.847,6.552v51.756
			c0,2.975,0.601,5.143,1.804,6.505C248.883,85.979,250.89,86.66,253.7,86.66z M258.785,28.282h10.474
			c4.694,0,8.185,0.572,10.474,1.714c2.288,1.143,3.433,3.452,3.433,6.927c0,1.628-0.363,3.1-1.086,4.415
			c-0.928,1.848-2.267,3.1-4.02,3.757c-1.753,0.658-4.237,0.986-7.453,0.986h-11.821V28.282z M258.785,56.086h13.429
			c4.491,0,7.866,0.783,10.126,2.348c2.26,1.566,3.39,4.086,3.39,7.561c0,6.795-4.361,10.191-13.081,10.191h-13.863V56.086z
			 M440,245.575V238v-8v-96v-15v-4.5H97v4.5v15v96v8v103v8v105v8v6.589c-21.376,2.506-37.965,20.681-37.965,42.743
			c0,22.063,16.589,40.238,37.965,42.744V565v8v101h10V573h101v101h10V573h101v101h10V573h101v101h10V573v-8V462v-8V349v-8v-9.91
			c21.43-2.455,38.077-20.656,38.077-42.758C478.077,266.231,461.43,248.03,440,245.575z M208,565H107v-10.91
			c21.43-2.455,38.077-20.656,38.077-42.758c0-22.101-16.647-40.302-38.077-42.758V462h101V565z M208,356.716
			c-20.891,2.947-36.965,20.899-36.965,42.616c0,21.718,16.074,39.67,36.965,42.616V454H107V349h101V356.716z M208,341H107V238h101
			V341z M208,230H107v-96h101V230z M319,565H218V462h101V565z M319,454H218v-11.806c21.91-1.994,39.077-20.417,39.077-42.862
			c0-22.444-17.167-40.868-39.077-42.862V349h101V454z M319,245.589c-21.376,2.506-37.965,20.681-37.965,42.743
			c0,22.063,16.589,40.238,37.965,42.744V341H218V238h101V245.589z M319,230H218v-96h101V230z M430,565H329V462h101V565z M430,454
			H329V349h101V454z M430,245.589c-21.376,2.506-37.965,20.681-37.965,42.743c0,22.063,16.589,40.238,37.965,42.744V341H329v-9.91
			c21.43-2.455,38.077-20.656,38.077-42.758c0-22.101-16.647-40.302-38.077-42.758V238h101V245.589z M430,230H329v-96h101V230z"/>
	</g>
</g>
</svg>
