<?xml version="1.0" encoding="iso-8859-1"?>
<!-- Generator: Adobe Illustrator 21.0.2, SVG Export Plug-In . SVG Version: 6.00 Build 0)  -->
<svg version="1.1" id="B7sus4_1_" xmlns="http://www.w3.org/2000/svg" xmlns:xlink="http://www.w3.org/1999/xlink" x="0px" y="0px"
	 viewBox="0 0 533 700" style="enable-background:new 0 0 533 700;" xml:space="preserve">
<g id="B7sus4">
	<g>
		<path style="fill-rule:evenodd;clip-rule:evenodd;" d="M440,139.575V134v-15v-4.5H97v4.5v15v5.586
			c-0.183,0.021-0.365,0.048-0.547,0.072c-0.348,0.045-0.699,0.084-1.045,0.138c-0.365,0.057-0.724,0.128-1.086,0.194
			c-0.343,0.062-0.688,0.118-1.028,0.188c-0.358,0.074-0.711,0.163-1.066,0.246c-0.337,0.079-0.677,0.151-1.011,0.238
			c-0.351,0.091-0.696,0.197-1.043,0.296c-0.331,0.095-0.666,0.184-0.994,0.287c-0.343,0.107-0.679,0.229-1.018,0.345
			c-0.326,0.111-0.654,0.216-0.977,0.335c-0.334,0.123-0.661,0.26-0.991,0.391c-0.32,0.127-0.642,0.248-0.958,0.382
			c-0.326,0.139-0.644,0.291-0.966,0.437c-0.312,0.142-0.627,0.278-0.935,0.427c-0.317,0.154-0.627,0.321-0.94,0.482
			c-0.303,0.156-0.61,0.307-0.909,0.47c-0.312,0.171-0.617,0.354-0.924,0.532c-0.291,0.168-0.585,0.331-0.872,0.505
			c-0.305,0.186-0.601,0.385-0.901,0.578c-0.28,0.181-0.565,0.356-0.84,0.543c-0.293,0.198-0.576,0.409-0.863,0.614
			c-0.273,0.195-0.551,0.385-0.82,0.587c-0.283,0.212-0.556,0.436-0.834,0.656c-0.262,0.207-0.529,0.409-0.786,0.622
			c-0.276,0.228-0.541,0.468-0.811,0.703c-0.249,0.217-0.502,0.428-0.746,0.65c-0.263,0.239-0.515,0.49-0.771,0.736
			c-0.24,0.23-0.485,0.455-0.72,0.69c-0.253,0.253-0.494,0.518-0.741,0.777c-0.226,0.239-0.458,0.472-0.679,0.716
			c-0.244,0.269-0.475,0.548-0.712,0.823c-0.212,0.246-0.43,0.488-0.637,0.739c-0.228,0.277-0.444,0.564-0.665,0.847
			c-0.203,0.26-0.412,0.514-0.609,0.779c-0.213,0.285-0.413,0.58-0.619,0.871c-0.193,0.272-0.391,0.539-0.577,0.816
			c-0.201,0.298-0.389,0.606-0.583,0.91c-0.178,0.278-0.361,0.552-0.533,0.835c-0.188,0.309-0.361,0.628-0.541,0.942
			c-0.164,0.286-0.334,0.569-0.492,0.859c-0.172,0.317-0.33,0.643-0.494,0.964c-0.151,0.297-0.309,0.589-0.454,0.889
			c-0.158,0.328-0.301,0.665-0.451,0.998c-0.136,0.302-0.279,0.601-0.408,0.907c-0.144,0.341-0.272,0.689-0.408,1.034
			c-0.12,0.306-0.247,0.608-0.36,0.918c-0.129,0.353-0.242,0.714-0.362,1.072c-0.104,0.309-0.215,0.614-0.312,0.926
			c-0.114,0.368-0.212,0.744-0.317,1.116c-0.086,0.308-0.181,0.612-0.261,0.923c-0.098,0.383-0.18,0.773-0.268,1.16
			c-0.07,0.307-0.148,0.611-0.212,0.92c-0.081,0.395-0.144,0.797-0.214,1.196c-0.054,0.307-0.117,0.612-0.164,0.921
			c-0.062,0.409-0.106,0.823-0.157,1.235c-0.038,0.306-0.085,0.608-0.116,0.916c-0.049,0.482-0.078,0.969-0.111,1.455
			c-0.016,0.243-0.043,0.483-0.055,0.727c-0.037,0.733-0.056,1.47-0.056,2.212c0,0.742,0.019,1.479,0.056,2.211
			c0.014,0.285,0.044,0.565,0.064,0.849c0.031,0.446,0.057,0.893,0.101,1.335c0.031,0.302,0.077,0.598,0.114,0.898
			c0.051,0.418,0.096,0.839,0.159,1.253c0.046,0.304,0.108,0.603,0.161,0.905c0.071,0.405,0.135,0.812,0.216,1.212
			c0.061,0.299,0.137,0.592,0.204,0.889c0.09,0.398,0.174,0.798,0.275,1.191c0.078,0.306,0.172,0.605,0.257,0.908
			c0.106,0.378,0.205,0.758,0.321,1.132c0.096,0.31,0.208,0.614,0.311,0.922c0.12,0.359,0.234,0.721,0.364,1.076
			c0.112,0.306,0.238,0.605,0.356,0.907c0.137,0.349,0.267,0.701,0.412,1.045c0.126,0.298,0.265,0.588,0.398,0.883
			c0.153,0.341,0.3,0.686,0.462,1.022c0.139,0.29,0.292,0.572,0.438,0.858c0.169,0.333,0.332,0.669,0.51,0.996
			c0.155,0.286,0.323,0.564,0.484,0.846c0.182,0.318,0.358,0.641,0.548,0.954c0.171,0.282,0.355,0.556,0.532,0.834
			c0.194,0.304,0.383,0.612,0.584,0.911c0.182,0.27,0.375,0.53,0.563,0.796c0.211,0.298,0.416,0.6,0.634,0.892
			c0.194,0.26,0.399,0.51,0.599,0.766c0.224,0.287,0.443,0.578,0.674,0.859c0.207,0.251,0.425,0.493,0.637,0.739
			c0.237,0.275,0.469,0.554,0.712,0.823c0.217,0.239,0.444,0.468,0.666,0.702c0.251,0.265,0.497,0.534,0.755,0.793
			c0.227,0.227,0.463,0.444,0.695,0.666c0.265,0.254,0.525,0.512,0.796,0.759c0.238,0.217,0.485,0.422,0.727,0.634
			c0.276,0.24,0.547,0.485,0.829,0.719c0.251,0.208,0.512,0.405,0.768,0.607c0.284,0.224,0.564,0.454,0.853,0.671
			c0.262,0.197,0.534,0.382,0.801,0.573c0.293,0.21,0.583,0.425,0.881,0.627c0.274,0.185,0.556,0.359,0.833,0.538
			c0.302,0.195,0.6,0.395,0.907,0.582c0.284,0.173,0.575,0.334,0.863,0.5c0.311,0.18,0.618,0.365,0.934,0.537
			c0.293,0.16,0.594,0.307,0.891,0.46c0.319,0.165,0.636,0.335,0.96,0.492c0.301,0.146,0.608,0.278,0.913,0.417
			c0.329,0.15,0.655,0.305,0.989,0.447c0.308,0.131,0.622,0.249,0.934,0.372c0.338,0.134,0.673,0.274,1.015,0.4
			c0.316,0.116,0.638,0.219,0.957,0.328c0.345,0.118,0.688,0.242,1.038,0.351c0.324,0.102,0.655,0.189,0.982,0.283
			c0.351,0.101,0.699,0.207,1.054,0.299c0.332,0.086,0.67,0.158,1.005,0.237c0.357,0.084,0.712,0.173,1.072,0.248
			c0.336,0.07,0.678,0.125,1.017,0.186c0.365,0.067,0.729,0.139,1.097,0.196c0.343,0.053,0.691,0.091,1.037,0.137
			c0.184,0.024,0.367,0.051,0.552,0.073V230v8v103v8v105v8v103v8v101h10V573h101v101h10V573h101v101h10V573h101v101h10V573v-8V462
			v-8V349v-8V238v-8v-4.91c21.43-2.455,38.077-20.656,38.077-42.758C478.077,160.231,461.43,142.03,440,139.575z M208,565H107V462
			h101V565z M208,357.716c-20.891,2.947-36.965,20.899-36.965,42.616c0,21.718,16.074,39.67,36.965,42.616V454H107V349h101V357.716z
			 M208,341H107V238h101V341z M208,230H107v-4.619c13.768,0,53.604,0,101,0V230z M208,139.283c-47.394,0-87.229,0-101,0V134h101
			V139.283z M319,565H218V462h101V565z M319,454H218v-10.806c21.91-1.994,39.077-20.417,39.077-42.862
			c0-22.444-17.167-40.868-39.077-42.862V349h101V454z M319,341H218V238h101V341z M319,230H218v-4.618c32.715,0,68.292,0,101,0V230z
			 M319,139.283c-32.708,0-68.285,0-101,0V134h101V139.283z M430,565H329V462h101V565z M430,454H329V349h101V454z M430,341H329V238
			h101V341z M430,230H329v-4.618c47.472,0,87.342,0,101,0V230z M430,139.283c-13.658,0-53.528,0-101,0V134h101V139.283z
			 M125.692,86.66h19.47c3.361,0,6.302-0.18,8.822-0.54c2.521-0.36,4.751-0.978,6.693-1.855c3.1-1.471,5.563-3.749,7.388-6.833
			c1.825-3.084,2.738-6.552,2.738-10.403c0-8.328-4.187-13.932-12.56-16.814c6.374-3.194,9.561-8.234,9.561-15.123
			c0-2.003-0.304-3.905-0.913-5.706c-0.608-1.8-1.493-3.444-2.651-4.931c-1.159-1.487-2.492-2.716-3.998-3.687
			c-1.768-1.158-3.767-1.941-5.997-2.348c-2.231-0.406-4.867-0.611-7.91-0.611h-20.643c-2.753,0-4.745,0.666-5.976,1.996
			c-1.232,1.331-1.847,3.515-1.847,6.552v51.756c0,2.975,0.601,5.143,1.804,6.505C120.875,85.979,122.881,86.66,125.692,86.66z
			 M130.777,28.282h10.474c4.694,0,8.185,0.572,10.474,1.714c2.288,1.143,3.433,3.452,3.433,6.927c0,1.628-0.363,3.1-1.086,4.415
			c-0.928,1.848-2.267,3.1-4.02,3.757c-1.753,0.658-4.237,0.986-7.453,0.986h-11.821V28.282z M130.777,56.086h13.429
			c4.491,0,7.866,0.783,10.126,2.348c2.26,1.566,3.39,4.086,3.39,7.561c0,6.795-4.361,10.191-13.081,10.191h-13.863V56.086z
			 M188.882,29.503h23.251c-3.651,5.01-6.801,10.043-9.452,15.099c-2.651,5.057-4.861,9.988-6.628,14.794
			c-1.768,4.807-3.042,8.932-3.824,12.375c-0.782,3.445-1.173,6.169-1.173,8.172c0,2.599,0.536,4.564,1.608,5.894
			c1.071,1.33,2.491,1.996,4.259,1.996c1.854,0,3.339-0.619,4.455-1.855c1.115-1.237,1.977-3.452,2.586-6.646
			c0.261-1.377,0.565-3.365,0.913-5.965c0.348-2.599,0.666-4.712,0.956-6.34c0.289-1.628,0.782-3.679,1.478-6.152
			c1.651-5.604,3.469-10.348,5.454-14.23c1.984-3.882,3.911-7.131,5.78-9.745c1.869-2.614,3.534-5.002,4.998-7.162
			c1.463-2.16,2.195-3.898,2.195-5.213c0-2.16-0.623-3.71-1.869-4.65c-1.246-0.939-3.259-1.409-6.041-1.409h-28.944
			c-2.289,0-4.071,0.313-5.346,0.939c-1.275,0.627-1.912,2.02-1.912,4.18c0,2.036,0.601,3.53,1.804,4.485
			C184.629,29.026,186.448,29.503,188.882,29.503z M258.394,77.807c-1.521,1.143-3.47,1.714-5.845,1.714
			c-2.927,0-5.237-0.564-6.932-1.691c-1.695-1.127-3.151-2.833-4.368-5.119c-0.608-1.19-1.246-2.113-1.912-2.771
			c-0.667-0.657-1.623-0.986-2.868-0.986c-1.42,0-2.593,0.501-3.52,1.503c-0.928,1.002-1.391,2.207-1.391,3.616
			c0,2.13,0.724,4.25,2.173,6.364c1.448,2.113,3.694,3.875,6.736,5.284s6.693,2.113,10.952,2.113c4.461,0,8.25-0.65,11.365-1.949
			c3.114-1.299,5.468-3.209,7.062-5.73c1.593-2.52,2.39-5.549,2.39-9.088c0-2.348-0.602-4.438-1.804-6.27
			c-1.203-1.832-2.97-3.42-5.302-4.767c-2.333-1.346-5.339-2.505-9.018-3.475c-3.101-0.814-5.534-1.503-7.301-2.066
			c-1.768-0.564-3.173-1.275-4.216-2.137c-1.043-0.861-1.565-1.965-1.565-3.311c0-1.471,0.71-2.701,2.13-3.687
			c1.419-0.986,3.201-1.479,5.345-1.479c2.086,0,3.737,0.376,4.954,1.127c1.217,0.751,2.274,1.754,3.172,3.006
			c1.101,1.503,2.079,2.63,2.934,3.381c0.854,0.751,1.89,1.127,3.107,1.127c1.68,0,2.977-0.47,3.89-1.409
			c0.913-0.939,1.369-2.144,1.369-3.616c0-1.346-0.428-2.724-1.282-4.133c-0.855-1.409-2.101-2.692-3.737-3.851
			c-1.637-1.158-3.68-2.082-6.128-2.771c-2.449-0.688-5.208-1.033-8.279-1.033c-3.911,0-7.251,0.681-10.017,2.043
			c-2.767,1.362-4.861,3.186-6.28,5.471c-1.42,2.286-2.129,4.713-2.129,7.28c0,2.881,0.767,5.307,2.303,7.28
			c1.535,1.973,3.585,3.562,6.149,4.767c2.564,1.206,5.889,2.356,9.974,3.452c3.621,0.939,6.221,1.926,7.801,2.959
			c1.579,1.033,2.369,2.677,2.369,4.931C260.676,75.358,259.916,76.664,258.394,77.807z M289.424,85.815
			c2.274,1.284,4.846,1.926,7.714,1.926c2.375,0,4.491-0.321,6.345-0.963c1.854-0.641,3.564-1.62,5.128-2.935
			s3.056-2.943,4.476-4.884v1.644c0,2.286,0.528,4.062,1.586,5.331c1.057,1.268,2.397,1.902,4.02,1.902
			c1.622,0,2.948-0.611,3.977-1.832c1.028-1.221,1.543-3.053,1.543-5.495v-37.15c0-2.567-0.536-4.485-1.608-5.753
			c-1.072-1.268-2.492-1.902-4.259-1.902c-1.768,0-3.202,0.642-4.302,1.926c-1.101,1.284-1.651,3.194-1.651,5.73v15.593
			c0,6.137-0.333,10.114-1,11.929c-0.811,2.066-2.101,3.742-3.868,5.025c-1.768,1.284-3.651,1.926-5.65,1.926
			c-2.058,0-3.687-0.571-4.889-1.714c-1.203-1.143-2.036-2.724-2.499-4.743c-0.464-2.02-0.695-4.516-0.695-7.491V43.358
			c0-2.536-0.551-4.445-1.651-5.73c-1.101-1.283-2.55-1.926-4.346-1.926c-1.768,0-3.187,0.634-4.259,1.902
			c-1.072,1.268-1.608,3.186-1.608,5.753v25.408c0,5.104,0.739,9.017,2.216,11.741C285.389,82.762,287.15,84.531,289.424,85.815z
			 M360.393,77.807c-1.521,1.143-3.47,1.714-5.845,1.714c-2.927,0-5.237-0.564-6.932-1.691c-1.695-1.127-3.151-2.833-4.368-5.119
			c-0.608-1.19-1.246-2.113-1.912-2.771c-0.667-0.657-1.623-0.986-2.868-0.986c-1.42,0-2.593,0.501-3.52,1.503
			c-0.928,1.002-1.391,2.207-1.391,3.616c0,2.13,0.724,4.25,2.173,6.364c1.448,2.113,3.694,3.875,6.736,5.284
			c3.042,1.409,6.693,2.113,10.952,2.113c4.461,0,8.25-0.65,11.365-1.949c3.114-1.299,5.468-3.209,7.062-5.73
			c1.593-2.52,2.39-5.549,2.39-9.088c0-2.348-0.602-4.438-1.804-6.27c-1.203-1.832-2.97-3.42-5.302-4.767
			c-2.333-1.346-5.339-2.505-9.018-3.475c-3.101-0.814-5.534-1.503-7.301-2.066c-1.768-0.564-3.173-1.275-4.216-2.137
			c-1.043-0.861-1.565-1.965-1.565-3.311c0-1.471,0.71-2.701,2.13-3.687c1.419-0.986,3.201-1.479,5.345-1.479
			c2.086,0,3.737,0.376,4.954,1.127c1.217,0.751,2.274,1.754,3.172,3.006c1.101,1.503,2.079,2.63,2.934,3.381
			c0.854,0.751,1.89,1.127,3.107,1.127c1.68,0,2.977-0.47,3.89-1.409c0.913-0.939,1.369-2.144,1.369-3.616
			c0-1.346-0.428-2.724-1.282-4.133c-0.855-1.409-2.101-2.692-3.737-3.851c-1.637-1.158-3.68-2.082-6.128-2.771
			c-2.449-0.688-5.208-1.033-8.279-1.033c-3.911,0-7.251,0.681-10.017,2.043c-2.767,1.362-4.861,3.186-6.28,5.471
			c-1.42,2.286-2.129,4.713-2.129,7.28c0,2.881,0.767,5.307,2.303,7.28c1.535,1.973,3.585,3.562,6.149,4.767
			c2.564,1.206,5.889,2.356,9.974,3.452c3.621,0.939,6.221,1.926,7.801,2.959c1.579,1.033,2.369,2.677,2.369,4.931
			C362.675,75.358,361.914,76.664,360.393,77.807z M387.49,71.96h21.817v8.736c0,2.348,0.5,4.126,1.499,5.331
			c1,1.205,2.31,1.808,3.933,1.808c1.651,0,2.969-0.587,3.955-1.761c0.985-1.174,1.478-2.966,1.478-5.378V71.96h2.651
			c2.201,0,3.853-0.415,4.954-1.245c1.101-0.829,1.651-2.152,1.651-3.969c0-2.223-0.674-3.663-2.021-4.321s-3.137-0.986-5.367-0.986
			h-1.869V25.089c0-5.448-2.202-8.172-6.606-8.172c-1.362,0-2.528,0.493-3.498,1.479c-0.971,0.986-2.21,2.576-3.716,4.767
			l-23.033,33.298c-0.638,0.909-1.173,1.675-1.608,2.301c-0.435,0.627-0.855,1.276-1.26,1.949c-0.406,0.674-0.71,1.315-0.913,1.926
			c-0.203,0.611-0.304,1.214-0.304,1.808c0,2.317,0.688,4.149,2.064,5.495C382.673,71.287,384.737,71.96,387.49,71.96z
			 M409.306,34.153V61.44h-18.687L409.306,34.153z"/>
	</g>
</g>
</svg>
