<?xml version="1.0" encoding="iso-8859-1"?>
<!-- Generator: Adobe Illustrator 21.0.2, SVG Export Plug-In . SVG Version: 6.00 Build 0)  -->
<svg version="1.1" id="Bbdim7_1_" xmlns="http://www.w3.org/2000/svg" xmlns:xlink="http://www.w3.org/1999/xlink" x="0px" y="0px"
	 viewBox="0 0 533 700" style="enable-background:new 0 0 533 700;" xml:space="preserve">
<g id="Bbdim7">
	<g>
		<path style="fill-rule:evenodd;clip-rule:evenodd;" d="M440,139.575V134v-15v-4.5H97v4.5v15v96v8v103v8v105v8v103v8v101h10V573
			h101v101h10V573h101v101h10V573h101v101h10V573v-8V462v-8V349v-8V238v-8v-4.91c21.43-2.455,38.077-20.656,38.077-42.758
			C478.077,160.231,461.43,142.03,440,139.575z M208,565H107V462h101V565z M208,454H107V349h101V454z M208,341H107V238h101V341z
			 M208,139.716c-20.891,2.947-36.965,20.899-36.965,42.616c0,21.718,16.074,39.67,36.965,42.616V230H107v-96h101V139.716z M319,565
			H218V462h101V565z M319,454H218V349h101V454z M319,341H218V238h101V341z M319,230H218v-4.806
			c21.91-1.994,39.077-20.417,39.077-42.862c0-22.444-17.167-40.868-39.077-42.862V134h101V230z M430,565H329V462h101V565z M430,454
			H329V349h101V454z M430,341H329V238h101V341z M430,139.589c-21.376,2.506-37.965,20.681-37.965,42.743
			c0,22.063,16.589,40.238,37.965,42.744V230H329v-96h101V139.589z M120.194,86.66h19.47c3.361,0,6.302-0.18,8.822-0.54
			c2.521-0.36,4.751-0.978,6.693-1.855c3.1-1.471,5.563-3.749,7.388-6.833c1.825-3.084,2.738-6.552,2.738-10.403
			c0-8.328-4.187-13.932-12.56-16.814c6.374-3.194,9.561-8.234,9.561-15.123c0-2.003-0.304-3.905-0.913-5.706
			c-0.608-1.8-1.493-3.444-2.651-4.931c-1.159-1.487-2.492-2.716-3.998-3.687c-1.768-1.158-3.767-1.941-5.997-2.348
			c-2.231-0.406-4.867-0.611-7.91-0.611h-20.643c-2.753,0-4.745,0.666-5.976,1.996c-1.232,1.331-1.847,3.515-1.847,6.552v51.756
			c0,2.975,0.601,5.143,1.804,6.505C115.377,85.979,117.384,86.66,120.194,86.66z M125.279,28.282h10.474
			c4.694,0,8.185,0.572,10.474,1.714c2.288,1.143,3.433,3.452,3.433,6.927c0,1.628-0.363,3.1-1.086,4.415
			c-0.928,1.848-2.267,3.1-4.02,3.757c-1.753,0.658-4.237,0.986-7.453,0.986h-11.821V28.282z M125.279,56.086h13.429
			c4.491,0,7.866,0.783,10.126,2.348c2.26,1.566,3.39,4.086,3.39,7.561c0,6.795-4.361,10.191-13.081,10.191h-13.863V56.086z
			 M180.907,87.834c1.651,0,3.013-0.619,4.085-1.855c1.072-1.237,1.608-3.06,1.608-5.471V79.24c1.304,1.628,2.354,2.849,3.151,3.663
			c0.797,0.815,1.76,1.605,2.89,2.372c1.13,0.768,2.499,1.385,4.107,1.855c1.608,0.47,3.325,0.705,5.15,0.705
			c2.984,0,5.715-0.65,8.192-1.949c2.477-1.299,4.585-3.139,6.323-5.518c1.738-2.379,3.064-5.19,3.977-8.43
			s1.369-6.802,1.369-10.685c0-5.26-0.819-9.808-2.455-13.643c-1.637-3.835-3.94-6.763-6.91-8.782
			c-2.97-2.02-6.425-3.029-10.365-3.029c-3.419,0-6.287,0.666-8.605,1.996c-2.318,1.331-4.592,3.249-6.823,5.753V23.961
			c0-2.348-0.493-4.156-1.478-5.424c-0.985-1.268-2.39-1.902-4.216-1.902c-1.738,0-3.093,0.666-4.063,1.996
			c-0.971,1.331-1.456,3.296-1.456,5.894v55.983c0,2.411,0.5,4.235,1.499,5.471C177.886,87.216,179.226,87.834,180.907,87.834z
			 M188.686,53.056c1.014-2.52,2.404-4.446,4.172-5.777c1.767-1.33,3.781-1.996,6.041-1.996c2.201,0,4.129,0.666,5.78,1.996
			c1.651,1.331,2.926,3.217,3.824,5.659c0.898,2.442,1.347,5.354,1.347,8.736c0,5.229-1.08,9.245-3.238,12.047
			c-2.159,2.802-4.73,4.203-7.714,4.203c-3.506,0-6.338-1.369-8.496-4.109c-2.159-2.739-3.238-6.661-3.238-11.765
			C187.165,58.575,187.671,55.577,188.686,53.056z M233.927,80.32c1.767,2.411,3.86,4.267,6.28,5.565
			c2.419,1.299,5.048,1.949,7.888,1.949c2.144,0,4.121-0.321,5.932-0.963c1.81-0.641,3.491-1.581,5.041-2.818
			c1.55-1.237,3.122-2.841,4.715-4.814v1.268c0,2.348,0.528,4.156,1.586,5.424c1.057,1.268,2.397,1.902,4.02,1.902
			c1.651,0,2.999-0.611,4.042-1.832c1.043-1.221,1.565-3.053,1.565-5.495V23.961c0-2.411-0.486-4.234-1.456-5.471
			c-0.971-1.237-2.354-1.855-4.15-1.855c-1.797,0-3.18,0.674-4.15,2.02c-0.971,1.347-1.456,3.335-1.456,5.965v18.927
			c-2.231-2.63-4.52-4.579-6.867-5.847c-2.347-1.268-5.23-1.902-8.648-1.902c-5.91,0-10.677,2.239-14.298,6.716
			c-3.622,4.478-5.432,10.724-5.432,18.739c0,3.789,0.456,7.311,1.369,10.567C230.819,75.076,232.159,77.909,233.927,80.32z
			 M241.858,53.009c0.941-2.489,2.267-4.399,3.976-5.73c1.709-1.33,3.651-1.996,5.824-1.996c2.086,0,4.005,0.65,5.758,1.949
			c1.753,1.3,3.143,3.178,4.172,5.636c1.028,2.458,1.543,5.394,1.543,8.806c0,3.633-0.515,6.662-1.543,9.088
			c-1.029,2.427-2.405,4.227-4.129,5.401c-1.724,1.174-3.629,1.761-5.715,1.761c-2.057,0-3.955-0.618-5.693-1.855
			c-1.738-1.236-3.107-3.076-4.107-5.518c-1-2.442-1.499-5.401-1.499-8.876C240.446,58.387,240.916,55.499,241.858,53.009z
			 M292.901,29.738c1.593,0,2.969-0.555,4.129-1.667c1.158-1.111,1.738-2.654,1.738-4.626c0-2.035-0.594-3.585-1.782-4.65
			c-1.188-1.064-2.55-1.597-4.085-1.597c-1.594,0-2.992,0.587-4.194,1.761c-1.203,1.174-1.804,2.67-1.804,4.485
			c0,2.004,0.587,3.554,1.76,4.65C289.837,29.191,291.249,29.738,292.901,29.738z M292.77,87.834c1.738,0,3.173-0.658,4.302-1.973
			c1.13-1.315,1.695-3.256,1.695-5.824V42.982c0-2.285-0.565-4.07-1.695-5.354c-1.13-1.283-2.564-1.926-4.302-1.926
			c-1.738,0-3.151,0.642-4.237,1.926c-1.086,1.284-1.63,3.194-1.63,5.73v36.68c0,2.505,0.543,4.431,1.63,5.777
			C289.62,87.161,291.032,87.834,292.77,87.834z M316.456,87.834c1.825,0,3.295-0.681,4.411-2.043
			c1.115-1.362,1.673-3.373,1.673-6.035v-17.33c0-5.385,0.615-9.518,1.847-12.399c1.231-2.88,3.788-4.321,7.671-4.321
			c1.941,0,3.361,0.572,4.259,1.714c0.898,1.143,1.448,2.607,1.651,4.391c0.202,1.785,0.304,4.29,0.304,7.514v20.43
			c0,2.693,0.557,4.713,1.673,6.059c1.115,1.346,2.571,2.02,4.368,2.02c1.854,0,3.346-0.674,4.476-2.02
			c1.13-1.346,1.695-3.365,1.695-6.059V62.708c0-5.479,0.435-9.299,1.304-11.46c0.782-1.691,1.876-3.037,3.281-4.039
			c1.405-1.002,2.89-1.503,4.455-1.503c1.941,0,3.39,0.564,4.346,1.691c0.956,1.127,1.543,2.521,1.76,4.18
			c0.217,1.66,0.326,3.867,0.326,6.622v21.557c0,2.662,0.572,4.673,1.717,6.035c1.144,1.362,2.614,2.043,4.411,2.043
			c1.854,0,3.346-0.674,4.476-2.02c1.13-1.346,1.695-3.365,1.695-6.059V54.724c0-4.978-0.507-8.625-1.521-10.943
			c-1.159-2.567-2.912-4.539-5.259-5.918c-2.347-1.377-5.143-2.066-8.388-2.066c-2.781,0-5.317,0.634-7.605,1.902
			c-2.289,1.268-4.433,3.217-6.432,5.847c-1.391-2.599-3.158-4.539-5.302-5.824c-2.144-1.284-4.709-1.926-7.692-1.926
			c-2.868,0-5.476,0.627-7.823,1.879c-2.347,1.253-4.549,3.21-6.606,5.871v-1.221c0-2.066-0.543-3.687-1.63-4.861
			s-2.441-1.761-4.063-1.761c-1.681,0-3.035,0.627-4.063,1.879c-1.029,1.253-1.543,3.084-1.543,5.495v36.68
			c0,2.662,0.572,4.673,1.717,6.035C313.189,87.153,314.659,87.834,316.456,87.834z M397.507,29.503h23.251
			c-3.651,5.01-6.801,10.043-9.452,15.099c-2.651,5.057-4.861,9.988-6.628,14.794c-1.768,4.807-3.042,8.932-3.824,12.375
			c-0.782,3.445-1.173,6.169-1.173,8.172c0,2.599,0.536,4.564,1.608,5.894c1.072,1.33,2.491,1.996,4.259,1.996
			c1.854,0,3.339-0.619,4.455-1.855c1.115-1.237,1.977-3.452,2.586-6.646c0.261-1.377,0.565-3.365,0.913-5.965
			c0.348-2.599,0.666-4.712,0.956-6.34c0.289-1.628,0.782-3.679,1.478-6.152c1.651-5.604,3.469-10.348,5.454-14.23
			c1.984-3.882,3.911-7.131,5.78-9.745c1.869-2.614,3.534-5.002,4.998-7.162c1.463-2.16,2.195-3.898,2.195-5.213
			c0-2.16-0.623-3.71-1.869-4.65c-1.246-0.939-3.259-1.409-6.041-1.409h-28.944c-2.289,0-4.071,0.313-5.345,0.939
			c-1.275,0.627-1.912,2.02-1.912,4.18c0,2.036,0.601,3.53,1.804,4.485C393.255,29.026,395.073,29.503,397.507,29.503z"/>
	</g>
</g>
</svg>
