<?xml version="1.0" encoding="iso-8859-1"?>
<!-- Generator: Adobe Illustrator 21.0.2, SVG Export Plug-In . SVG Version: 6.00 Build 0)  -->
<svg version="1.1" id="Bdim_1_" xmlns="http://www.w3.org/2000/svg" xmlns:xlink="http://www.w3.org/1999/xlink" x="0px" y="0px"
	 viewBox="0 0 533 700" style="enable-background:new 0 0 533 700;" xml:space="preserve">
<g id="Bdim">
	<g>
		<path style="fill-rule:evenodd;clip-rule:evenodd;" d="M440,246.575V238v-8v-96v-15v-4.5H97v4.5v15v96v8v103v8v105v8v7.589
			c-21.376,2.506-37.965,20.681-37.965,42.743c0,22.063,16.589,40.238,37.965,42.744V565v8v101h10V573h101v101h10V573h101v101h10
			V573h101v101h10V573v-8V462v-8V349v-8v-8.91c21.43-2.455,38.077-20.656,38.077-42.758C478.077,267.231,461.43,249.03,440,246.575z
			 M208,565H107v-9.91c21.43-2.455,38.077-20.656,38.077-42.758c0-22.101-16.647-40.302-38.077-42.758V462h101V565z M208,454H107
			V349h101V454z M208,246.716c-20.891,2.947-36.965,20.899-36.965,42.616c0,21.718,16.074,39.67,36.965,42.616V341H107V238h101
			V246.716z M208,230H107v-96h101V230z M319,565H218V462h101V565z M319,454H218V349h101V454z M319,341H218v-8.806
			c21.91-1.994,39.077-20.417,39.077-42.862c0-22.444-17.167-40.868-39.077-42.862V238h101V341z M319,139.589
			c-21.376,2.506-37.965,20.681-37.965,42.743c0,22.063,16.589,40.238,37.965,42.744V230H218v-96h101V139.589z M430,565H329V462h101
			V565z M430,454H329V349h101V454z M430,246.589c-21.376,2.506-37.965,20.681-37.965,42.743c0,22.063,16.589,40.238,37.965,42.744
			V341H329V238h101V246.589z M430,230H329v-4.91c21.43-2.455,38.077-20.656,38.077-42.758c0-22.101-16.647-40.302-38.077-42.758V134
			h101V230z M174.453,86.66h19.47c3.361,0,6.302-0.18,8.822-0.54c2.521-0.36,4.751-0.978,6.693-1.855
			c3.1-1.471,5.563-3.749,7.388-6.833c1.825-3.084,2.738-6.552,2.738-10.403c0-8.328-4.187-13.932-12.56-16.814
			c6.374-3.194,9.561-8.234,9.561-15.123c0-2.003-0.304-3.905-0.913-5.706c-0.608-1.8-1.493-3.444-2.651-4.931
			c-1.159-1.487-2.492-2.716-3.998-3.687c-1.768-1.158-3.767-1.941-5.997-2.348c-2.231-0.406-4.867-0.611-7.91-0.611h-20.643
			c-2.753,0-4.745,0.666-5.976,1.996c-1.232,1.331-1.847,3.515-1.847,6.552v51.756c0,2.975,0.601,5.143,1.804,6.505
			C169.636,85.979,171.642,86.66,174.453,86.66z M179.538,28.282h10.474c4.694,0,8.185,0.572,10.474,1.714
			c2.288,1.143,3.433,3.452,3.433,6.927c0,1.628-0.363,3.1-1.086,4.415c-0.928,1.848-2.267,3.1-4.02,3.757
			c-1.753,0.658-4.237,0.986-7.453,0.986h-11.821V28.282z M179.538,56.086h13.429c4.491,0,7.866,0.783,10.126,2.348
			c2.26,1.566,3.39,4.086,3.39,7.561c0,6.795-4.361,10.191-13.081,10.191h-13.864V56.086z M232.558,80.32
			c1.767,2.411,3.86,4.267,6.28,5.565c2.419,1.299,5.048,1.949,7.888,1.949c2.144,0,4.121-0.321,5.932-0.963
			c1.81-0.641,3.491-1.581,5.041-2.818c1.55-1.237,3.122-2.841,4.715-4.814v1.268c0,2.348,0.528,4.156,1.586,5.424
			c1.057,1.268,2.397,1.902,4.02,1.902c1.651,0,2.999-0.611,4.042-1.832c1.043-1.221,1.565-3.053,1.565-5.495V23.961
			c0-2.411-0.486-4.234-1.456-5.471c-0.971-1.237-2.354-1.855-4.15-1.855c-1.797,0-3.18,0.674-4.15,2.02
			c-0.971,1.347-1.456,3.335-1.456,5.965v18.927c-2.231-2.63-4.52-4.579-6.867-5.847c-2.347-1.268-5.23-1.902-8.648-1.902
			c-5.91,0-10.677,2.239-14.298,6.716c-3.622,4.478-5.432,10.724-5.432,18.739c0,3.789,0.456,7.311,1.369,10.567
			C229.451,75.076,230.79,77.909,232.558,80.32z M240.489,53.009c0.941-2.489,2.267-4.399,3.977-5.73
			c1.709-1.33,3.651-1.996,5.824-1.996c2.086,0,4.005,0.65,5.758,1.949c1.753,1.3,3.143,3.178,4.172,5.636
			c1.028,2.458,1.543,5.394,1.543,8.806c0,3.633-0.515,6.662-1.543,9.088c-1.029,2.427-2.405,4.227-4.129,5.401
			c-1.724,1.174-3.629,1.761-5.715,1.761c-2.057,0-3.955-0.618-5.693-1.855c-1.738-1.236-3.107-3.076-4.107-5.518
			c-1-2.442-1.499-5.401-1.499-8.876C239.077,58.387,239.547,55.499,240.489,53.009z M291.532,29.738
			c1.593,0,2.969-0.555,4.129-1.667c1.159-1.111,1.738-2.654,1.738-4.626c0-2.035-0.594-3.585-1.782-4.65
			c-1.188-1.064-2.55-1.597-4.085-1.597c-1.594,0-2.992,0.587-4.194,1.761c-1.203,1.174-1.804,2.67-1.804,4.485
			c0,2.004,0.587,3.554,1.76,4.65C288.468,29.191,289.88,29.738,291.532,29.738z M291.402,87.834c1.738,0,3.172-0.658,4.302-1.973
			c1.13-1.315,1.695-3.256,1.695-5.824V42.982c0-2.285-0.565-4.07-1.695-5.354c-1.13-1.283-2.564-1.926-4.302-1.926
			c-1.738,0-3.151,0.642-4.237,1.926c-1.086,1.284-1.63,3.194-1.63,5.73v36.68c0,2.505,0.543,4.431,1.63,5.777
			C288.251,87.161,289.663,87.834,291.402,87.834z M315.087,87.834c1.825,0,3.295-0.681,4.411-2.043
			c1.115-1.362,1.673-3.373,1.673-6.035v-17.33c0-5.385,0.615-9.518,1.847-12.399c1.231-2.88,3.788-4.321,7.671-4.321
			c1.941,0,3.361,0.572,4.259,1.714c0.898,1.143,1.448,2.607,1.651,4.391c0.202,1.785,0.304,4.29,0.304,7.514v20.43
			c0,2.693,0.557,4.713,1.673,6.059c1.115,1.346,2.571,2.02,4.368,2.02c1.854,0,3.346-0.674,4.476-2.02
			c1.13-1.346,1.695-3.365,1.695-6.059V62.708c0-5.479,0.435-9.299,1.304-11.46c0.782-1.691,1.876-3.037,3.281-4.039
			c1.405-1.002,2.89-1.503,4.455-1.503c1.941,0,3.39,0.564,4.346,1.691c0.956,1.127,1.543,2.521,1.76,4.18
			c0.217,1.66,0.326,3.867,0.326,6.622v21.557c0,2.662,0.572,4.673,1.717,6.035c1.144,1.362,2.614,2.043,4.411,2.043
			c1.854,0,3.346-0.674,4.476-2.02c1.13-1.346,1.695-3.365,1.695-6.059V54.724c0-4.978-0.507-8.625-1.521-10.943
			c-1.159-2.567-2.912-4.539-5.259-5.918c-2.347-1.377-5.143-2.066-8.388-2.066c-2.781,0-5.317,0.634-7.605,1.902
			c-2.289,1.268-4.433,3.217-6.432,5.847c-1.391-2.599-3.158-4.539-5.302-5.824c-2.144-1.284-4.709-1.926-7.692-1.926
			c-2.868,0-5.476,0.627-7.823,1.879c-2.347,1.253-4.549,3.21-6.606,5.871v-1.221c0-2.066-0.543-3.687-1.63-4.861
			s-2.441-1.761-4.063-1.761c-1.681,0-3.035,0.627-4.063,1.879c-1.029,1.253-1.543,3.084-1.543,5.495v36.68
			c0,2.662,0.572,4.673,1.717,6.035C311.82,87.153,313.29,87.834,315.087,87.834z"/>
	</g>
</g>
</svg>
