<?xml version="1.0" encoding="iso-8859-1"?>
<!-- Generator: Adobe Illustrator 21.0.2, SVG Export Plug-In . SVG Version: 6.00 Build 0)  -->
<svg version="1.1" id="C7_1_" xmlns="http://www.w3.org/2000/svg" xmlns:xlink="http://www.w3.org/1999/xlink" x="0px" y="0px"
	 viewBox="0 0 533 700" style="enable-background:new 0 0 533 700;" xml:space="preserve">
<g id="C7">
	<g>
		<path style="fill-rule:evenodd;clip-rule:evenodd;" d="M440,137.575V134v-15v-4.5H97v4.5v15v96v8v103v8v105v8v103v8v101h10V573
			h101v101h10V573h101v101h10V573h101v101h10V573v-8V462v-8V349v-8V238v-8v-6.91c21.43-2.455,38.077-20.656,38.077-42.758
			C478.077,158.231,461.43,140.03,440,137.575z M208,565H107V462h101V565z M208,454H107V349h101V454z M208,341H107V238h101V341z
			 M208,230H107v-96h101V230z M319,565H218V462h101V565z M319,454H218V349h101V454z M319,341H218V238h101V341z M319,230H218v-96h101
			V230z M430,565H329V462h101V565z M430,454H329V349h101V454z M430,341H329V238h101V341z M430,137.589
			c-21.376,2.506-37.965,20.681-37.965,42.743c0,22.063,16.589,40.238,37.965,42.744V230H329v-96h101V137.589z M219.628,70.574
			c1.188,2.677,2.622,5.096,4.302,7.256c1.883,2.38,3.947,4.297,6.193,5.753c2.245,1.456,4.744,2.529,7.497,3.217
			c2.752,0.688,5.809,1.033,9.17,1.033c4.433,0,8.315-0.768,11.647-2.301c3.331-1.534,6.069-3.53,8.214-5.988
			c2.144-2.458,3.716-4.962,4.715-7.514c1-2.552,1.499-4.923,1.499-7.115c0-1.722-0.551-3.162-1.651-4.321
			c-1.101-1.158-2.419-1.738-3.955-1.738c-1.797,0-3.101,0.572-3.911,1.714c-0.812,1.143-1.493,2.623-2.043,4.438
			c-1.304,3.851-3.238,6.771-5.802,8.759c-2.564,1.989-5.701,2.982-9.409,2.982c-3.419,0-6.403-0.876-8.953-2.63
			c-2.55-1.753-4.52-4.407-5.91-7.961c-1.391-3.553-2.086-8.008-2.086-13.362c0-8.015,1.571-14.199,4.715-18.551
			c3.143-4.352,7.366-6.528,12.668-6.528c3.331,0,6.135,0.845,8.409,2.536c2.274,1.691,4.252,4.243,5.932,7.655
			c1.014,2.066,1.934,3.522,2.76,4.368c0.826,0.845,2.064,1.268,3.716,1.268c1.478,0,2.738-0.611,3.781-1.832
			s1.565-2.63,1.565-4.227c0-2.912-1.072-6.003-3.216-9.276c-2.144-3.271-5.23-6.019-9.257-8.242
			c-4.027-2.223-8.62-3.335-13.777-3.335c-4.23,0-8.214,0.815-11.951,2.442c-3.738,1.628-6.997,4-9.778,7.115
			c-2.781,3.116-4.918,6.865-6.41,11.248c-1.493,4.384-2.238,9.346-2.238,14.888c0,3.413,0.297,6.638,0.891,9.675
			C217.549,65.041,218.44,67.897,219.628,70.574z M291.379,29.503h23.251c-3.651,5.01-6.801,10.043-9.452,15.099
			c-2.651,5.057-4.861,9.988-6.628,14.794c-1.768,4.807-3.042,8.932-3.824,12.375c-0.782,3.445-1.173,6.169-1.173,8.172
			c0,2.599,0.536,4.564,1.608,5.894c1.072,1.33,2.491,1.996,4.259,1.996c1.854,0,3.339-0.619,4.455-1.855
			c1.115-1.237,1.977-3.452,2.586-6.646c0.261-1.377,0.565-3.365,0.913-5.965c0.348-2.599,0.666-4.712,0.956-6.34
			c0.289-1.628,0.782-3.679,1.478-6.152c1.651-5.604,3.469-10.348,5.454-14.23c1.984-3.882,3.911-7.131,5.78-9.745
			c1.869-2.614,3.534-5.002,4.998-7.162c1.463-2.16,2.195-3.898,2.195-5.213c0-2.16-0.623-3.71-1.869-4.65
			c-1.246-0.939-3.259-1.409-6.041-1.409h-28.944c-2.289,0-4.071,0.313-5.346,0.939c-1.275,0.627-1.912,2.02-1.912,4.18
			c0,2.036,0.601,3.53,1.804,4.485C287.127,29.026,288.945,29.503,291.379,29.503z"/>
	</g>
</g>
</svg>
