<?xml version="1.0" encoding="iso-8859-1"?>
<!-- Generator: Adobe Illustrator 21.0.2, SVG Export Plug-In . SVG Version: 6.00 Build 0)  -->
<svg version="1.1" id="Ebmaj7_1_" xmlns="http://www.w3.org/2000/svg" xmlns:xlink="http://www.w3.org/1999/xlink" x="0px" y="0px"
	 viewBox="0 0 533 700" style="enable-background:new 0 0 533 700;" xml:space="preserve">
<g id="Ebmaj7">
	<g>
		<path style="fill-rule:evenodd;clip-rule:evenodd;" d="M440,470.575V462v-8V349v-8v-7.91c21.43-2.455,38.077-20.656,38.077-42.758
			c0-22.101-16.647-40.302-38.077-42.758V238v-8v-96v-15v-4.5H97v4.5v15v96v8v9.586c-21.376,2.505-37.965,20.683-37.965,42.746
			c0,22.063,16.589,40.241,37.965,42.746V341v8v105v8v103v8v101h10V573h101v101h10V573h101v101h10V573h101v101h10V573v-8v-8.91
			c21.43-2.455,38.077-20.656,38.077-42.758C478.077,491.231,461.43,473.03,440,470.575z M208,565H107V462h101V565z M208,454H107
			V349h101V454z M208,341H107v-7.619c13.768,0,53.604,0,101,0V341z M208,247.283c-47.394,0-87.229,0-101,0V238h101V247.283z
			 M208,230H107v-96h101V230z M319,565H218V462h101V565z M319,454H218V349h101V454z M319,341H218v-7.618c32.715,0,68.292,0,101,0
			V341z M319,247.283c-32.708,0-68.285,0-101,0V238h101V247.283z M319,230H218v-96h101V230z M430,470.589
			c-21.376,2.506-37.965,20.681-37.965,42.743c0,22.063,16.589,40.238,37.965,42.744V565H329V462h101V470.589z M430,454H329V349h101
			V454z M430,341H329v-7.618c47.472,0,87.342,0,101,0V341z M430,247.283c-13.658,0-53.528,0-101,0V238h101V247.283z M430,230H329
			v-96h101V230z M124.062,86.66h35.072c2.028,0,3.556-0.509,4.585-1.526c1.028-1.017,1.543-2.34,1.543-3.969
			c0-1.691-0.515-3.045-1.543-4.063c-1.029-1.017-2.557-1.526-4.585-1.526h-30.074V55.992h26.771c1.999,0,3.477-0.493,4.433-1.479
			c0.956-0.986,1.434-2.262,1.434-3.828c0-1.565-0.486-2.825-1.456-3.781c-0.971-0.955-2.441-1.432-4.411-1.432h-26.771V28.564
			h29.074c2.057,0,3.585-0.493,4.585-1.479c1-0.986,1.499-2.293,1.499-3.922c0-1.597-0.5-2.888-1.499-3.875
			c-1-0.986-2.528-1.479-4.585-1.479h-34.072c-1.825,0-3.325,0.29-4.498,0.869c-1.173,0.58-2.036,1.503-2.586,2.771
			c-0.551,1.268-0.826,2.904-0.826,4.908v51.756c0,3.006,0.615,5.182,1.847,6.528C119.23,85.987,121.251,86.66,124.062,86.66z
			 M179.95,87.834c1.651,0,3.013-0.619,4.085-1.855c1.072-1.237,1.608-3.06,1.608-5.471V79.24c1.304,1.628,2.354,2.849,3.151,3.663
			c0.797,0.815,1.76,1.605,2.89,2.372c1.13,0.768,2.499,1.385,4.107,1.855c1.608,0.47,3.325,0.705,5.15,0.705
			c2.984,0,5.715-0.65,8.192-1.949c2.477-1.299,4.585-3.139,6.323-5.518c1.738-2.379,3.064-5.19,3.977-8.43
			s1.369-6.802,1.369-10.685c0-5.26-0.819-9.808-2.455-13.643c-1.637-3.835-3.941-6.763-6.91-8.782
			c-2.97-2.02-6.425-3.029-10.365-3.029c-3.419,0-6.287,0.666-8.605,1.996c-2.318,1.331-4.592,3.249-6.823,5.753V23.961
			c0-2.348-0.493-4.156-1.478-5.424c-0.985-1.268-2.39-1.902-4.216-1.902c-1.738,0-3.093,0.666-4.063,1.996
			c-0.971,1.331-1.456,3.296-1.456,5.894v55.983c0,2.411,0.5,4.235,1.499,5.471C176.93,87.216,178.269,87.834,179.95,87.834z
			 M187.729,53.056c1.014-2.52,2.404-4.446,4.172-5.777c1.767-1.33,3.781-1.996,6.041-1.996c2.201,0,4.129,0.666,5.78,1.996
			c1.651,1.331,2.926,3.217,3.824,5.659c0.898,2.442,1.347,5.354,1.347,8.736c0,5.229-1.08,9.245-3.238,12.047
			c-2.159,2.802-4.73,4.203-7.714,4.203c-3.506,0-6.338-1.369-8.496-4.109c-2.159-2.739-3.238-6.661-3.238-11.765
			C186.208,58.575,186.715,55.577,187.729,53.056z M235.752,87.834c1.825,0,3.295-0.681,4.411-2.043
			c1.115-1.362,1.673-3.373,1.673-6.035v-17.33c0-5.385,0.615-9.518,1.847-12.399c1.231-2.88,3.788-4.321,7.671-4.321
			c1.941,0,3.361,0.572,4.259,1.714c0.898,1.143,1.448,2.607,1.651,4.391c0.202,1.785,0.304,4.29,0.304,7.514v20.43
			c0,2.693,0.557,4.713,1.673,6.059c1.115,1.346,2.571,2.02,4.368,2.02c1.854,0,3.346-0.674,4.476-2.02
			c1.13-1.346,1.695-3.365,1.695-6.059V62.708c0-5.479,0.435-9.299,1.304-11.46c0.782-1.691,1.876-3.037,3.281-4.039
			c1.405-1.002,2.89-1.503,4.455-1.503c1.941,0,3.39,0.564,4.346,1.691c0.956,1.127,1.543,2.521,1.76,4.18
			c0.217,1.66,0.326,3.867,0.326,6.622v21.557c0,2.662,0.572,4.673,1.717,6.035c1.144,1.362,2.614,2.043,4.411,2.043
			c1.854,0,3.346-0.674,4.476-2.02c1.13-1.346,1.695-3.365,1.695-6.059V54.724c0-4.978-0.507-8.625-1.521-10.943
			c-1.159-2.567-2.912-4.539-5.259-5.918c-2.347-1.377-5.143-2.066-8.388-2.066c-2.781,0-5.317,0.634-7.605,1.902
			c-2.289,1.268-4.433,3.217-6.432,5.847c-1.391-2.599-3.158-4.539-5.302-5.824c-2.144-1.284-4.709-1.926-7.692-1.926
			c-2.868,0-5.476,0.627-7.823,1.879c-2.347,1.253-4.549,3.21-6.606,5.871v-1.221c0-2.066-0.543-3.687-1.63-4.861
			c-1.086-1.174-2.441-1.761-4.063-1.761c-1.681,0-3.035,0.627-4.063,1.879c-1.029,1.253-1.543,3.084-1.543,5.495v36.68
			c0,2.662,0.572,4.673,1.717,6.035C232.485,87.153,233.955,87.834,235.752,87.834z M323.669,58.152
			c-2.984,0.658-4.853,1.08-5.606,1.268c-3.593,0.845-6.418,2.505-8.474,4.978c-2.058,2.474-3.086,5.464-3.086,8.97
			c0,2.599,0.623,5.01,1.869,7.233c1.245,2.224,3.02,3.985,5.324,5.284c2.303,1.299,4.976,1.949,8.018,1.949
			c3.331,0,6.338-0.603,9.018-1.808c2.68-1.205,5.454-3.013,8.322-5.424c1.332,2.348,2.593,4.141,3.781,5.378
			c1.188,1.237,2.39,1.855,3.607,1.855c1.448,0,2.745-0.54,3.89-1.62c1.144-1.08,1.717-2.278,1.717-3.593
			c0-0.751-0.369-2.434-1.108-5.049c-0.739-2.614-1.108-5.127-1.108-7.538c0.029-2.567,0.05-4.9,0.065-6.998
			c0.014-2.097,0.022-4.65,0.022-7.655c0-4.759-0.616-8.578-1.847-11.46c-1.232-2.88-3.34-4.986-6.323-6.317
			c-2.984-1.33-7.084-1.996-12.299-1.996c-4.665,0-8.561,0.689-11.69,2.066c-3.129,1.378-5.432,3.131-6.91,5.26
			c-1.478,2.13-2.216,4.321-2.216,6.575c0,1.44,0.485,2.623,1.456,3.546c0.97,0.924,2.122,1.385,3.455,1.385
			c1.478,0,2.44-0.289,2.89-0.869c0.449-0.579,1.217-1.777,2.303-3.593c1.086-1.815,2.39-3.177,3.911-4.086
			c1.521-0.908,3.788-1.362,6.801-1.362c3.505,0,5.816,0.791,6.932,2.372c1.115,1.581,1.745,4.062,1.89,7.444
			c-2.492,0.783-4.802,1.449-6.932,1.996C329.211,56.892,326.653,57.495,323.669,58.152z M338.272,63.882
			c0,4.446-0.536,7.64-1.608,9.581c-0.928,1.754-2.383,3.186-4.368,4.297c-1.985,1.112-4.15,1.667-6.497,1.667
			c-2.202,0-3.984-0.681-5.345-2.043c-1.362-1.362-2.043-3.013-2.043-4.955c0-1.879,0.579-3.342,1.738-4.391
			c1.158-1.049,2.375-1.753,3.651-2.113c1.275-0.36,3.57-0.923,6.888-1.691c3.317-0.767,5.845-1.495,7.584-2.184V63.882z
			 M368.041,29.738c1.593,0,2.969-0.555,4.129-1.667c1.158-1.111,1.738-2.654,1.738-4.626c0-2.035-0.594-3.585-1.782-4.65
			c-1.188-1.064-2.55-1.597-4.085-1.597c-1.594,0-2.992,0.587-4.194,1.761c-1.203,1.174-1.804,2.67-1.804,4.485
			c0,2.004,0.587,3.554,1.76,4.65C364.977,29.191,366.39,29.738,368.041,29.738z M349.31,100.609c0,2.035,0.928,3.585,2.781,4.65
			c1.854,1.064,4.577,1.597,8.17,1.597c6.403,0,10.589-2.724,12.56-8.172c0.348-0.877,0.615-2.294,0.804-4.25
			c0.188-1.957,0.283-4.485,0.283-7.585v-43.49c0-2.567-0.543-4.485-1.63-5.753c-1.086-1.268-2.499-1.902-4.237-1.902
			c-1.797,0-3.245,0.642-4.346,1.926c-1.101,1.284-1.651,3.194-1.651,5.73v43.208c0,3.475-0.268,5.886-0.804,7.233
			c-0.536,1.346-1.601,2.02-3.194,2.02c-0.29,0-0.819-0.032-1.586-0.094c-0.767-0.063-1.347-0.117-1.738-0.164
			c-0.391-0.047-0.674-0.07-0.847-0.07c-1.361,0-2.462,0.477-3.303,1.432C349.731,97.877,349.31,99.106,349.31,100.609z
			 M393.812,29.503h23.251c-3.651,5.01-6.801,10.043-9.452,15.099c-2.651,5.057-4.861,9.988-6.628,14.794
			c-1.768,4.807-3.042,8.932-3.824,12.375c-0.782,3.445-1.173,6.169-1.173,8.172c0,2.599,0.536,4.564,1.608,5.894
			c1.072,1.33,2.491,1.996,4.259,1.996c1.854,0,3.339-0.619,4.455-1.855c1.115-1.237,1.977-3.452,2.586-6.646
			c0.261-1.377,0.565-3.365,0.913-5.965c0.348-2.599,0.666-4.712,0.956-6.34c0.289-1.628,0.782-3.679,1.478-6.152
			c1.651-5.604,3.469-10.348,5.454-14.23c1.984-3.882,3.911-7.131,5.78-9.745c1.869-2.614,3.534-5.002,4.998-7.162
			c1.463-2.16,2.195-3.898,2.195-5.213c0-2.16-0.623-3.71-1.869-4.65c-1.246-0.939-3.259-1.409-6.041-1.409h-28.944
			c-2.289,0-4.071,0.313-5.345,0.939c-1.275,0.627-1.912,2.02-1.912,4.18c0,2.036,0.601,3.53,1.804,4.485
			C389.56,29.026,391.379,29.503,393.812,29.503z"/>
	</g>
</g>
</svg>
