<?xml version="1.0" encoding="iso-8859-1"?>
<!-- Generator: Adobe Illustrator 21.0.2, SVG Export Plug-In . SVG Version: 6.00 Build 0)  -->
<svg version="1.1" id="F_1_" xmlns="http://www.w3.org/2000/svg" xmlns:xlink="http://www.w3.org/1999/xlink" x="0px" y="0px"
	 viewBox="0 0 533 700" style="enable-background:new 0 0 533 700;" xml:space="preserve">
<g id="F">
	<g>
		<path style="fill-rule:evenodd;clip-rule:evenodd;" d="M97,114.5v4.5v15v96v8v6.589c-21.376,2.506-37.965,20.681-37.965,42.743
			c0,22.063,16.589,40.238,37.965,42.744V341v8v105v8v103v8v101h10V573h101v101h10V573h101v101h10V573h101v101h10V573v-8V462v-8V349
			v-8V238v-8v-96v-15v-4.5H97z M208,565H107V462h101V565z M208,454H107V349h101V454z M208,341H107v-10.91
			c21.43-2.455,38.077-20.656,38.077-42.758c0-22.101-16.647-40.302-38.077-42.758V238h101V341z M208,230H107v-96h101V230z M319,565
			H218V462h101V565z M319,454H218V349h101V454z M319,341H218V238h101V341z M319,138.589c-21.376,2.506-37.965,20.681-37.965,42.743
			c0,22.063,16.589,40.238,37.965,42.744V230H218v-96h101V138.589z M430,565H329V462h101V565z M430,454H329V349h101V454z M430,341
			H329V238h101V341z M430,230H329v-5.91c21.43-2.455,38.077-20.656,38.077-42.758c0-22.101-16.647-40.302-38.077-42.758V134h101V230
			z M257.307,87.834c1.883,0,3.426-0.697,4.628-2.09c1.202-1.393,1.804-3.53,1.804-6.411V56.649h21.252
			c1.941,0,3.404-0.47,4.389-1.409c0.985-0.939,1.478-2.207,1.478-3.804c0-1.597-0.486-2.872-1.456-3.828
			c-0.971-0.955-2.441-1.432-4.411-1.432h-21.252V28.564h25.424c2.057,0,3.585-0.493,4.585-1.479s1.499-2.293,1.499-3.922
			c0-1.597-0.5-2.888-1.499-3.875s-2.528-1.479-4.585-1.479h-30.421c-1.825,0-3.325,0.29-4.498,0.869
			c-1.173,0.58-2.036,1.503-2.586,2.771c-0.551,1.268-0.826,2.904-0.826,4.908v52.977c0,2.849,0.601,4.978,1.804,6.387
			C253.837,87.13,255.395,87.834,257.307,87.834z"/>
	</g>
</g>
</svg>
