<?xml version="1.0" encoding="iso-8859-1"?>
<!-- Generator: Adobe Illustrator 21.0.2, SVG Export Plug-In . SVG Version: 6.00 Build 0)  -->
<svg version="1.1" id="Gb_1_" xmlns="http://www.w3.org/2000/svg" xmlns:xlink="http://www.w3.org/1999/xlink" x="0px" y="0px"
	 viewBox="0 0 533 700" style="enable-background:new 0 0 533 700;" xml:space="preserve">
<g id="Gb">
	<g>
		<path style="fill-rule:evenodd;clip-rule:evenodd;" d="M440,139.575V134v-15v-4.5H97v4.5v15v96v8v103v8v9.589
			c-21.376,2.506-37.965,20.681-37.965,42.743c0,22.063,16.589,40.238,37.965,42.744V454v8v103v8v101h10V573h101v101h10V573h101v101
			h10V573h101v101h10V573v-8V462v-8V349v-8V238v-8v-4.91c21.43-2.455,38.077-20.656,38.077-42.758
			C478.077,160.231,461.43,142.03,440,139.575z M208,565H107V462h101V565z M208,454H107v-9.91
			c21.43-2.455,38.077-20.656,38.077-42.758c0-22.101-16.647-40.302-38.077-42.758V349h101V454z M208,341H107V238h101V341z
			 M208,139.586c-21.376,2.505-37.965,20.683-37.965,42.746c0,22.063,16.589,40.241,37.965,42.746V230H107v-96h101V139.586z
			 M319,565H218V462h101V565z M319,454H218V349h101V454z M319,245.589c-21.376,2.506-37.965,20.681-37.965,42.743
			c0,22.063,16.589,40.238,37.965,42.744V341H218V238h101V245.589z M319,230H218v-4.619c14.461,0,57.214,0,101,0V230z M319,139.283
			c-43.784,0-86.535,0-101,0V134h101V139.283z M430,565H329V462h101V565z M430,454H329V349h101V454z M430,341H329v-9.91
			c21.43-2.455,38.077-20.656,38.077-42.758c0-22.101-16.647-40.302-38.077-42.758V238h101V341z M430,230H329v-4.618
			c43.858,0,86.656,0,101,0V230z M430,139.283c-14.344,0-57.141,0-101,0V134h101V139.283z M221.128,78.3
			c2.839,3.1,6.272,5.464,10.3,7.092c4.027,1.628,8.489,2.442,13.385,2.442c4.201,0,8.083-0.517,11.647-1.55
			c3.564-1.033,7.272-2.677,11.126-4.931c1.332-0.782,2.426-1.597,3.281-2.442c0.854-0.845,1.441-1.792,1.76-2.841
			c0.319-1.049,0.478-2.45,0.478-4.203V58.669c0-2.379-0.384-4.164-1.152-5.354c-0.768-1.19-1.775-1.956-3.02-2.301
			c-1.246-0.344-2.767-0.517-4.563-0.517h-14.646c-1.768,0-3.166,0.501-4.194,1.503c-1.029,1.002-1.543,2.271-1.543,3.804
			c0,1.879,0.615,3.21,1.847,3.992c1.231,0.783,3.049,1.174,5.454,1.174h9.996v11.178c-2.694,1.566-5.353,2.771-7.975,3.616
			c-2.622,0.845-5.426,1.268-8.409,1.268c-6.143,0-10.93-2.176-14.363-6.528c-3.433-4.352-5.15-10.567-5.15-18.645
			c0-3.726,0.441-7.123,1.326-10.191c0.883-3.068,2.158-5.659,3.824-7.773c1.666-2.113,3.672-3.726,6.019-4.837
			c2.347-1.111,5.012-1.667,7.996-1.667c2.897,0,5.28,0.47,7.149,1.409c1.869,0.939,3.353,2.098,4.455,3.475
			c1.101,1.378,2.448,3.413,4.042,6.105c0.579,0.845,1.296,1.503,2.151,1.973c0.854,0.47,1.745,0.704,2.673,0.704
			c1.68,0,3.122-0.618,4.324-1.855c1.202-1.237,1.804-2.731,1.804-4.485c0-1.628-0.521-3.491-1.565-5.589
			c-1.043-2.097-2.593-4.086-4.65-5.965c-2.057-1.879-4.737-3.436-8.04-4.673c-3.303-1.237-7.099-1.855-11.386-1.855
			c-5.215,0-9.88,0.822-13.994,2.466c-4.114,1.644-7.605,4.016-10.474,7.115c-2.868,3.1-5.041,6.873-6.519,11.319
			c-1.478,4.446-2.216,9.346-2.216,14.7c0,5.448,0.761,10.379,2.282,14.794S218.288,75.201,221.128,78.3z M289.837,87.834
			c1.651,0,3.013-0.619,4.085-1.855c1.072-1.237,1.608-3.06,1.608-5.471V79.24c1.304,1.628,2.354,2.849,3.151,3.663
			c0.797,0.815,1.76,1.605,2.89,2.372c1.13,0.768,2.499,1.385,4.107,1.855c1.608,0.47,3.325,0.705,5.15,0.705
			c2.984,0,5.715-0.65,8.192-1.949c2.477-1.299,4.585-3.139,6.323-5.518c1.738-2.379,3.064-5.19,3.977-8.43
			c0.913-3.241,1.369-6.802,1.369-10.685c0-5.26-0.819-9.808-2.456-13.643c-1.637-3.835-3.94-6.763-6.91-8.782
			c-2.97-2.02-6.425-3.029-10.365-3.029c-3.419,0-6.287,0.666-8.605,1.996c-2.318,1.331-4.592,3.249-6.823,5.753V23.961
			c0-2.348-0.493-4.156-1.478-5.424c-0.985-1.268-2.39-1.902-4.216-1.902c-1.738,0-3.093,0.666-4.063,1.996
			c-0.971,1.331-1.456,3.296-1.456,5.894v55.983c0,2.411,0.5,4.235,1.499,5.471C286.816,87.216,288.156,87.834,289.837,87.834z
			 M297.616,53.056c1.014-2.52,2.405-4.446,4.172-5.777c1.767-1.33,3.781-1.996,6.041-1.996c2.201,0,4.129,0.666,5.78,1.996
			c1.651,1.331,2.926,3.217,3.824,5.659c0.898,2.442,1.347,5.354,1.347,8.736c0,5.229-1.08,9.245-3.238,12.047
			c-2.159,2.802-4.73,4.203-7.714,4.203c-3.506,0-6.338-1.369-8.496-4.109c-2.159-2.739-3.238-6.661-3.238-11.765
			C296.095,58.575,296.601,55.577,297.616,53.056z"/>
	</g>
</g>
</svg>
